<?xml version="1.0" standalone="no"?>
<!DOCTYPE svg PUBLIC "-//W3C//DTD SVG 1.1//EN" "http://www.w3.org/Graphics/SVG/1.1/DTD/svg11.dtd" >
<svg xmlns="http://www.w3.org/2000/svg" xmlns:xlink="http://www.w3.org/1999/xlink" version="1.1">
<metadata>
Created by FontForge 20170910 at Wed Jan 10 07:36:27 2018
 By Jimmy Wärting
Copyright \(c\) 2018 by Riley Cran. All rights reserved.
</metadata>
<defs>
<font id="MortModern-09Medium" horiz-adv-x="516" >
  <font-face 
    font-family="Mort Modern 09 Medium"
    font-weight="90"
    font-stretch="normal"
    units-per-em="1000"
    panose-1="0 0 1 0 0 0 0 0 0 0"
    ascent="800"
    descent="-200"
    x-height="476"
    cap-height="694"
    bbox="-455 -381 1549 926.019"
    underline-thickness="30"
    underline-position="-68"
    stemh="21"
    stemv="122"
    unicode-range="U+0020-FB03"
  />
<missing-glyph horiz-adv-x="451" 
d="M369 717v-901h-285v901h285zM300 657h-149v-30h59v-33h-60v-30h150v30h-59v33h59v30zM241 540h-91v-93h150v30h-59v63zM210 510v-33h-30v33h30zM300 422h-150v-29h60v-34h-60v-29h91v63h59v29zM300 368h-30v-59h-120v-31h150v90zM300 258h-90v-50h31v21h29v-43h-90v72
h-30v-101h150v101zM300 103h-150v-102h150v102zM270 73v-43h-90v43h90zM300 -20h-150v-30h64l-64 -42v-30h150v30h-92l63 42h29v30z" />
    <glyph glyph-name=".notdef" horiz-adv-x="451" 
d="M369 717v-901h-285v901h285zM300 657h-149v-30h59v-33h-60v-30h150v30h-59v33h59v30zM241 540h-91v-93h150v30h-59v63zM210 510v-33h-30v33h30zM300 422h-150v-29h60v-34h-60v-29h91v63h59v29zM300 368h-30v-59h-120v-31h150v90zM300 258h-90v-50h31v21h29v-43h-90v72
h-30v-101h150v101zM300 103h-150v-102h150v102zM270 73v-43h-90v43h90zM300 -20h-150v-30h64l-64 -42v-30h150v30h-92l63 42h29v30z" />
    <glyph glyph-name="space" unicode=" " horiz-adv-x="194" 
 />
    <glyph glyph-name="uni2009" unicode="&#x2009;" horiz-adv-x="112" 
 />
    <glyph glyph-name="A" unicode="A" horiz-adv-x="666" 
d="M587 21h73v-21h-298v21h80l-61 207h-220l-40 -139c-11 -41 0 -68 44 -68h48v-21h-238v21h37c45 0 67 33 77 70l177 612h110zM167 251h207l-105 355z" />
    <glyph glyph-name="B" unicode="B" horiz-adv-x="671" 
d="M420 356c127 -11 205 -65 205 -174c0 -122 -93 -182 -251 -182h-329v21h84v651h-84v22h322c133 0 226 -44 226 -166c0 -101 -72 -156 -173 -172zM329 672h-71v-306h65c92 0 144 45 144 155c0 115 -52 151 -138 151zM343 21c90 0 148 36 148 160c0 126 -62 163 -160 163
h-73v-323h85z" />
    <glyph glyph-name="C" unicode="C" horiz-adv-x="640" 
d="M356 -12c-143 0 -305 115 -305 360c0 244 159 358 302 358c90 0 121 -44 160 -44c25 0 36 19 41 40h19v-243h-20c-24 146 -103 220 -178 220c-107 0 -182 -105 -182 -331s77 -333 182 -333c77 0 159 82 181 225h20v-248h-18c-6 22 -18 40 -43 40c-39 0 -70 -44 -159 -44z
" />
    <glyph glyph-name="D" unicode="D" horiz-adv-x="716" 
d="M321 694c206 0 344 -115 344 -347c0 -233 -137 -347 -344 -347h-276v21h84v651h-84v22h276zM311 21c146 0 213 104 213 326c0 221 -68 325 -213 325h-52v-651h52z" />
    <glyph glyph-name="E" unicode="E" horiz-adv-x="635" 
d="M558 217h21l-9 -217h-525v21h84v652h-84v21h519l8 -210h-21c-20 135 -78 189 -177 189h-116v-299h73c76 0 101 46 108 116h18v-256h-18c-7 74 -33 119 -108 119h-73v-332h122c112 0 155 62 178 196z" />
    <glyph glyph-name="F" unicode="F" horiz-adv-x="596" 
d="M555 694l8 -210h-20c-22 130 -64 189 -171 189h-114v-321h78c71 0 97 46 104 116h18v-260h-18c-7 77 -33 122 -104 122h-78v-309h104v-21h-317v21h84v652h-84v21h510z" />
    <glyph glyph-name="G" unicode="G" horiz-adv-x="699" 
d="M686 321v-21h-69v-308h-19c-7 26 -23 47 -54 47c-47 0 -83 -51 -182 -51c-158 0 -311 121 -311 360c0 240 163 358 312 358c97 0 140 -45 179 -45c28 0 40 18 45 41h20l-3 -247h-19c-26 136 -100 223 -198 223c-112 0 -189 -113 -189 -330c0 -216 61 -334 175 -334
c74 0 133 49 133 135v151h-92v21h272z" />
    <glyph glyph-name="H" unicode="H" horiz-adv-x="787" 
d="M743 673h-85v-652h85v-21h-287v21h73v334h-271v-334h73v-21h-286v21h84v652h-84v21h286v-21h-73v-294h271v294h-73v21h287v-21z" />
    <glyph glyph-name="I" unicode="I" horiz-adv-x="387" 
d="M343 672h-85v-651h85v-21h-298v21h84v651h-84v22h298v-22z" />
    <glyph glyph-name="J" unicode="J" horiz-adv-x="498" 
d="M481 694v-21h-85v-499c0 -137 -90 -186 -203 -186c-111 0 -168 53 -168 133c0 62 34 87 74 87c39 0 65 -24 65 -61c0 -36 -24 -64 -62 -64c-25 0 -43 12 -54 28c8 -64 60 -93 113 -93c65 0 106 42 106 135v520h-95v21h309z" />
    <glyph glyph-name="K" unicode="K" horiz-adv-x="699" 
d="M645 21h65v-21h-288v21h73l-192 331l-45 -53v-278h83v-21h-296v21h84v651h-84v22h301v-22h-88v-333l212 254c29 35 32 79 -20 79h-20v22h240v-22h-21c-51 0 -100 -28 -137 -72l-124 -147z" />
    <glyph glyph-name="L" unicode="L" horiz-adv-x="577" 
d="M517 253h20l-6 -253h-486v21h84v652h-84v21h312v-21h-99v-652h81c97 0 153 60 178 232z" />
    <glyph glyph-name="M" unicode="M" horiz-adv-x="932" 
d="M841 673c-24 0 -38 -15 -38 -39v-613h85v-21h-300v21h86v620l-236 -651h-24l-255 641v-512c0 -71 37 -99 80 -99h28v-20h-243v20h28c40 0 80 28 80 99v492c0 45 -16 62 -58 62h-42v21h241l200 -517l191 517h224v-21h-47z" />
    <glyph glyph-name="N" unicode="N" horiz-adv-x="717" 
d="M468 694h226v-21h-24c-37 0 -76 -28 -76 -89v-595h-83l-358 634v-508c0 -65 34 -95 80 -95h23v-20h-232v20h23c42 0 78 30 78 95v496c0 45 -15 62 -58 62h-35v21h230l305 -523v413c0 61 -36 89 -75 89h-24v21z" />
    <glyph glyph-name="O" unicode="O" horiz-adv-x="729" 
d="M366 -12c-139 0 -315 124 -315 359s173 358 315 358c143 0 312 -122 312 -358s-173 -359 -312 -359zM366 11c101 0 170 109 170 336c0 230 -69 335 -170 335c-102 0 -173 -105 -173 -335c0 -227 72 -336 173 -336z" />
    <glyph glyph-name="P" unicode="P" horiz-adv-x="643" 
d="M350 267h-92v-246h103v-21h-316v21h84v651h-84v22h309c162 0 254 -73 254 -207s-94 -220 -258 -220zM331 672h-73v-383h66c105 0 149 54 149 194c0 139 -45 189 -142 189z" />
    <glyph glyph-name="Q" unicode="Q" horiz-adv-x="726" 
d="M584 -57c41 0 57 33 68 71l17 -4c-12 -70 -39 -135 -119 -135c-63 0 -107 44 -123 121c-20 -5 -41 -8 -61 -8c-139 0 -315 123 -315 358c0 236 173 359 315 359c143 0 312 -122 312 -359c0 -154 -74 -260 -164 -314c6 -60 27 -89 70 -89zM366 682
c-102 0 -173 -105 -173 -336c0 -138 26 -231 70 -284c5 78 38 127 113 127c69 0 105 -25 123 -74c24 54 37 131 37 231c0 231 -69 336 -170 336zM366 11c20 0 40 4 57 13c0 5 -1 9 -1 14c-5 84 -23 125 -67 125c-43 0 -71 -41 -74 -120c25 -21 53 -32 85 -32z" />
    <glyph glyph-name="R" unicode="R" horiz-adv-x="707" 
d="M696 115l16 -4c-15 -66 -43 -123 -127 -123c-96 0 -128 59 -133 160c-6 118 -25 182 -119 182h-75v-309h99v-21h-312v21h84v652h-84v21h313c160 0 255 -51 255 -174c0 -109 -74 -168 -206 -180c112 -10 171 -67 176 -178c4 -96 17 -129 54 -129c31 0 47 32 59 82z
M340 673h-82v-321h71c93 0 149 47 149 164c0 113 -53 157 -138 157z" />
    <glyph glyph-name="S" unicode="S" horiz-adv-x="578" 
d="M323 -12c-95 0 -142 50 -182 50c-28 0 -41 -20 -49 -43h-16l-5 250h18c47 -168 138 -233 233 -233c79 0 119 53 119 117c0 83 -65 123 -176 174c-112 51 -189 104 -189 222c0 136 111 181 196 181c86 0 125 -45 163 -45c26 0 36 18 43 41h17l-3 -214h-18
c-28 119 -103 196 -200 196c-65 0 -113 -36 -113 -103c0 -77 61 -109 165 -155c112 -50 200 -104 200 -235c0 -145 -106 -203 -203 -203z" />
    <glyph glyph-name="T" unicode="T" horiz-adv-x="666" 
d="M612 694l10 -253h-21c-20 135 -70 233 -177 233h-27v-653h117v-21h-361v21h116v653h-27c-107 0 -156 -98 -177 -233h-21l11 253h557z" />
    <glyph glyph-name="U" unicode="U" horiz-adv-x="691" 
d="M441 694h242v-21h-28c-59 0 -76 -47 -76 -93v-350c0 -171 -68 -242 -219 -242c-170 0 -247 86 -247 240v445h-84v21h295v-21h-82v-488c0 -127 52 -170 146 -170c104 0 156 66 156 213v352c0 46 -19 93 -72 93h-31v21z" />
    <glyph glyph-name="V" unicode="V" horiz-adv-x="625" 
d="M416 694h231v-21h-19c-57 0 -88 -43 -100 -89l-158 -589h-98l-199 678h-71v21h287v-21h-76l157 -568l128 483c11 42 -6 85 -60 85h-22v21z" />
    <glyph glyph-name="W" unicode="W" horiz-adv-x="1011" 
d="M804 694h231v-21h-20c-57 0 -87 -45 -99 -90l-162 -588h-95l-151 522l-129 -522h-96l-207 678h-72v21h282v-21h-72l165 -561l113 460l-29 101h-62v21h272v-21h-72l155 -562l130 477c11 40 -6 85 -61 85h-21v21z" />
    <glyph glyph-name="X" unicode="X" horiz-adv-x="646" 
d="M585 21h75v-21h-295v21h79l-152 272l-117 -196c-16 -28 -21 -76 31 -76h32v-21h-233v21h30c44 0 89 47 108 79l132 222l-196 350h-74v22h292v-22h-76l143 -256l106 181c16 28 19 75 -30 75h-32v22h232v-22h-29c-44 0 -91 -46 -110 -78l-120 -208z" />
    <glyph glyph-name="Y" unicode="Y" horiz-adv-x="624" 
d="M410 693h233v-21h-24c-53 1 -91 -49 -110 -89l-120 -260v-302h97v-21h-324v21h98v282l-184 369h-79v22h301v-22h-81l156 -318l108 233c17 38 9 86 -45 85h-26v21z" />
    <glyph glyph-name="Z" unicode="Z" horiz-adv-x="612" 
d="M554 242l-7 -242h-494v18l352 654h-119c-119 0 -172 -64 -190 -205h-21l5 227h471v-19l-352 -654h134c124 0 177 61 199 221h22z" />
    <glyph glyph-name="a" unicode="a" horiz-adv-x="526" 
d="M512 126l18 -1c-1 -87 -25 -137 -104 -137c-56 0 -95 24 -109 80c-17 -45 -62 -80 -144 -80c-78 0 -144 36 -144 121c0 99 83 145 283 162v90c0 75 -41 103 -104 103c-52 0 -98 -20 -119 -59c9 6 21 10 35 10c35 0 59 -22 59 -55c0 -34 -23 -59 -62 -59
c-38 0 -64 21 -64 65c0 66 59 122 181 122c130 0 196 -56 196 -163v-249c0 -36 12 -52 33 -52c25 0 43 29 45 102zM221 29c46 0 91 35 91 100v121c-111 -14 -159 -47 -159 -131c0 -62 25 -90 68 -90z" />
    <glyph glyph-name="b" unicode="b" horiz-adv-x="589" 
d="M353 488c94 0 197 -81 197 -250s-103 -250 -199 -250c-67 0 -116 29 -142 96v-84h-188v20h66v676h-66v21h188v-326c27 67 76 97 144 97zM313 29c53 0 105 47 105 209s-51 209 -104 209c-54 0 -108 -49 -108 -209s54 -209 107 -209z" />
    <glyph glyph-name="c" unicode="c" horiz-adv-x="496" 
d="M449 148l21 -7c-31 -94 -87 -153 -192 -153c-119 0 -239 79 -239 251c0 166 117 249 241 249c103 0 171 -54 171 -133c0 -50 -30 -74 -69 -74c-40 0 -63 25 -63 60s24 58 60 58c18 0 32 -5 42 -15c-16 49 -60 74 -110 74c-77 0 -140 -57 -140 -214
c0 -147 55 -221 137 -221c68 0 113 50 141 125z" />
    <glyph glyph-name="d" unicode="d" horiz-adv-x="588" 
d="M502 20h67v-20h-189v84c-26 -67 -75 -96 -142 -96c-96 0 -199 81 -199 250s103 250 197 250c68 0 117 -30 144 -97v305h-74v21h196v-697zM276 29c53 0 107 49 107 209s-54 209 -108 209c-53 0 -104 -47 -104 -209s52 -209 105 -209z" />
    <glyph glyph-name="e" unicode="e" 
d="M464 146l20 -8c-30 -91 -99 -150 -206 -150c-128 0 -239 93 -239 252c0 163 112 248 231 248c112 0 207 -68 207 -202v-24h-307v-15c0 -147 51 -225 140 -225c68 0 125 46 154 124zM269 465c-52 0 -92 -45 -98 -179h187c-2 129 -33 179 -89 179z" />
    <glyph glyph-name="f" unicode="f" horiz-adv-x="346" 
d="M270 735c91 0 130 -42 130 -100c0 -40 -26 -61 -60 -61c-35 0 -56 23 -56 54c0 32 24 52 55 52c13 0 25 -5 34 -13c-13 29 -42 45 -79 45c-52 0 -81 -29 -81 -97v-139h110v-22h-110v-434h83v-20h-272v20h67v434h-80v22h80v82c0 131 85 177 179 177z" />
    <glyph glyph-name="g" unicode="g" horiz-adv-x="514" 
d="M414 522c0 17 7 28 18 34c-40 -11 -65 -47 -69 -99c49 -29 82 -75 82 -134c0 -102 -96 -166 -201 -166c-22 0 -43 3 -63 8c-23 -13 -50 -31 -50 -57c0 -38 63 -36 158 -42c142 -7 188 -48 188 -121c0 -109 -112 -144 -240 -144c-122 0 -218 31 -218 100
c0 43 44 71 101 86c-48 15 -72 41 -72 82c0 58 50 85 106 105c-63 26 -110 78 -110 149c0 101 96 165 200 165c36 0 72 -8 102 -22c6 64 49 110 109 110c40 0 61 -22 61 -52c0 -32 -23 -50 -51 -50c-27 0 -51 17 -51 48zM244 177c50 0 85 46 85 146c0 99 -35 145 -85 145
c-49 0 -83 -46 -83 -145c0 -100 34 -146 83 -146zM388 -95c0 48 -46 62 -152 66c-30 1 -57 3 -80 7c-29 -16 -47 -38 -47 -70c0 -55 51 -84 136 -84c89 0 143 30 143 81z" />
    <glyph glyph-name="h" unicode="h" horiz-adv-x="591" 
d="M504 20h67v-20h-237v20h48v335c0 58 -26 82 -65 82c-42 0 -83 -27 -107 -87v-330h53v-20h-242v20h67v677h-67v20h189v-326c29 62 90 97 160 97c78 0 134 -42 134 -136v-332z" />
    <glyph glyph-name="i" unicode="i" horiz-adv-x="297" 
d="M143 574c-42 0 -74 27 -74 67s32 67 74 67c43 0 76 -27 76 -67s-33 -67 -76 -67zM209 20h67v-20h-255v20h67v436h-67v20h188v-456z" />
    <glyph glyph-name="j" unicode="j" horiz-adv-x="290" 
d="M145 573c-43 0 -74 27 -74 67s31 67 74 67s76 -27 76 -67s-33 -67 -76 -67zM213 476v-519c0 -135 -95 -169 -173 -169c-67 0 -101 33 -101 81c0 39 24 59 53 59c31 0 48 -19 48 -47s-21 -46 -47 -46c-11 0 -21 3 -29 9c10 -21 31 -34 59 -34c41 0 68 29 68 92v554h-68v20
h190z" />
    <glyph glyph-name="k" unicode="k" horiz-adv-x="568" 
d="M517 21h54v-21h-255v21h58l-129 231l-36 -35v-197h54v-20h-242v20h67v675h-67v20h188v-466l151 149c29 28 16 58 -22 58h-20v20h208v-20h-11c-46 -5 -88 -25 -131 -66l-51 -50z" />
    <glyph glyph-name="l" unicode="l" horiz-adv-x="297" 
d="M210 20h67v-20h-256v20h67v675h-67v20h189v-695z" />
    <glyph glyph-name="m" unicode="m" horiz-adv-x="876" 
d="M788 20h67v-20h-240v20h52v345c0 47 -23 71 -62 71c-42 0 -86 -27 -108 -83v-333h55v-20h-227v20h51v339c0 53 -23 78 -62 78c-43 0 -84 -33 -104 -86v-331h52v-20h-241v20h67v436h-67v20h189v-84c29 59 89 96 156 96s116 -31 128 -98c31 62 93 98 163 98
c77 0 131 -39 131 -132v-336z" />
    <glyph glyph-name="n" unicode="n" horiz-adv-x="592" 
d="M505 20h67v-20h-239v20h50v335c0 58 -25 82 -64 82c-42 0 -85 -27 -109 -89v-328h51v-20h-240v20h67v436h-67v20h189v-87c29 62 90 99 161 99c78 0 134 -42 134 -136v-332z" />
    <glyph glyph-name="o" unicode="o" horiz-adv-x="551" 
d="M277 -12c-108 0 -238 79 -238 250c0 170 130 250 238 250c107 0 236 -80 236 -250c0 -171 -128 -250 -236 -250zM277 9c61 0 104 64 104 229s-43 229 -104 229c-62 0 -106 -64 -106 -229s44 -229 106 -229z" />
    <glyph glyph-name="p" unicode="p" horiz-adv-x="588" 
d="M352 488c94 0 197 -81 197 -250s-103 -250 -199 -250c-66 0 -114 28 -141 94v-247h84v-20h-273v20h67v620h-67v20h189v-82c27 66 76 95 143 95zM312 29c53 0 105 47 105 209s-51 209 -104 209c-54 0 -108 -49 -108 -209s54 -209 107 -209z" />
    <glyph glyph-name="q" unicode="q" horiz-adv-x="580" 
d="M502 -166h69v-19h-275v19h84v250c-26 -67 -75 -96 -142 -96c-96 0 -199 81 -199 250s103 250 197 250c76 0 128 -36 152 -120l94 108h20v-642zM276 29c53 0 107 49 107 209s-54 209 -108 209c-53 0 -104 -47 -104 -209s52 -209 105 -209z" />
    <glyph glyph-name="r" unicode="r" horiz-adv-x="460" 
d="M330 488c66 0 100 -45 100 -100c0 -52 -28 -79 -69 -79c-40 0 -65 25 -65 61s26 61 62 61c23 0 40 -11 50 -26c-7 40 -35 64 -77 64c-69 0 -121 -59 -121 -163v-286h85v-20h-274v20h67v436h-67v20h189v-77c18 53 60 89 120 89z" />
    <glyph glyph-name="s" unicode="s" horiz-adv-x="433" 
d="M237 -12c-70 0 -110 33 -140 33c-21 0 -34 -11 -40 -27h-15l-2 169h15c29 -102 116 -153 181 -153c52 0 85 26 85 72c0 52 -45 75 -131 104c-95 33 -148 82 -148 165c0 94 73 137 151 137c66 0 96 -29 126 -29c20 0 30 12 33 27h14v-143h-13c-33 81 -95 125 -156 124
c-48 0 -80 -25 -80 -64c0 -49 51 -71 121 -97c92 -33 158 -72 158 -168c0 -104 -79 -150 -159 -150z" />
    <glyph glyph-name="t" unicode="t" horiz-adv-x="361" 
d="M316 148l20 -2c-9 -97 -28 -158 -125 -158c-70 0 -127 31 -127 141v326h-82v21h82v151h122v-151h117v-21h-117v-361c0 -57 16 -75 42 -75c39 0 59 41 68 129z" />
    <glyph glyph-name="u" unicode="u" horiz-adv-x="577" 
d="M488 20h67v-20h-189v84c-28 -61 -88 -96 -159 -96c-79 0 -135 42 -135 136v332h-67v20h190v-357c0 -58 24 -81 64 -81c45 0 85 26 107 87v331h-58v20h180v-456z" />
    <glyph glyph-name="v" unicode="v" horiz-adv-x="503" 
d="M318 476h197v-20h-13c-49 0 -75 -34 -86 -69l-120 -390h-90l-160 459h-63v20h262v-20h-64l116 -368l90 303c9 32 -3 65 -46 65h-23v20z" />
    <glyph glyph-name="w" unicode="w" horiz-adv-x="814" 
d="M632 476h197v-20h-15c-43 0 -73 -31 -84 -69l-120 -390h-90l-115 337l-102 -337h-90l-165 459h-63v20h262v-20h-67l122 -366l87 292l-26 74h-53v20h249v-20h-65l117 -364l89 300c10 32 -4 64 -45 64h-23v20z" />
    <glyph glyph-name="x" unicode="x" horiz-adv-x="527" 
d="M461 21h62v-21h-254v21h63l-115 181l-78 -120c-19 -30 -16 -61 25 -61h20v-21h-196v21h21c44 0 76 31 96 63l96 144l-144 228h-62v20h249v-20h-56l103 -165l71 110c17 28 16 55 -18 55h-22v20h187v-20h-25c-43 0 -69 -28 -88 -58l-88 -133z" />
    <glyph glyph-name="y" unicode="y" horiz-adv-x="497" 
d="M317 476h202v-20h-20c-43 0 -69 -23 -86 -71l-166 -477c-25 -71 -60 -114 -124 -114c-58 0 -100 35 -100 90c0 43 27 70 66 70c33 0 59 -20 59 -56c0 -35 -25 -56 -58 -56c-21 0 -37 9 -46 22c10 -33 40 -51 77 -51c56 0 86 49 103 99l23 69l-205 475h-64v20h266v-20h-65
l122 -315l83 246c16 46 -1 69 -43 69h-24v20z" />
    <glyph glyph-name="z" unicode="z" horiz-adv-x="464" 
d="M411 462l-250 -443h74c89 0 139 47 160 152h16l-6 -171h-374v14l250 443h-78c-78 0 -130 -41 -145 -146h-15l6 165h362v-14z" />
    <glyph glyph-name="ordfeminine" unicode="&#xaa;" horiz-adv-x="311" 
d="M281 531h9c0 -45 -12 -71 -59 -71c-33 0 -53 12 -61 38c-9 -22 -31 -38 -74 -38c-42 0 -75 18 -75 61c0 48 40 69 146 77v47c0 36 -22 48 -53 48c-24 0 -47 -9 -60 -26c6 3 12 5 20 5c20 0 34 -11 34 -30s-14 -32 -36 -32c-21 0 -36 12 -36 34c0 33 31 62 99 62
c73 0 110 -29 110 -84v-119c0 -16 5 -23 14 -23c12 0 20 14 22 51zM129 483c21 0 38 16 38 46v59c-46 -6 -68 -20 -68 -62c0 -30 12 -43 30 -43z" />
    <glyph glyph-name="ordmasculine" unicode="&#xba;" horiz-adv-x="298" 
d="M150 460c-58 0 -129 37 -129 123c0 85 71 123 129 123c56 0 127 -38 127 -123c0 -86 -70 -123 -127 -123zM150 469c27 0 44 31 44 114c0 82 -17 112 -44 112c-28 0 -46 -30 -46 -112c0 -83 18 -114 46 -114z" />
    <glyph glyph-name="zero" unicode="0" horiz-adv-x="668" 
d="M334 -12c-135 0 -286 131 -286 359s150 359 286 359c137 0 286 -131 286 -359s-151 -359 -286 -359zM334 11c98 0 143 116 143 336s-45 336 -143 336c-99 0 -143 -116 -143 -336s45 -336 143 -336z" />
    <glyph glyph-name="one" unicode="1" horiz-adv-x="394" 
d="M261 21h88v-21h-301v21h87v610c-24 -19 -56 -36 -98 -44l-4 20c62 16 108 54 150 96h78v-682z" />
    <glyph glyph-name="two" unicode="2" horiz-adv-x="542" 
d="M488 197h18c0 -107 -26 -209 -136 -209c-108 0 -140 101 -218 101c-48 0 -80 -37 -94 -89h-25c0 340 302 318 302 533c0 95 -54 139 -128 139c-73 0 -133 -43 -148 -114c11 17 32 28 56 28c37 0 66 -26 66 -64s-27 -67 -70 -67c-45 0 -77 31 -77 86c0 89 79 165 216 165
c116 0 227 -43 227 -178c0 -260 -392 -170 -423 -488c26 76 79 118 155 118c80 0 123 -43 192 -43c51 0 87 23 87 82z" />
    <glyph glyph-name="three" unicode="3" horiz-adv-x="550" 
d="M299 357c109 -9 206 -54 206 -175c0 -131 -113 -194 -254 -194s-214 69 -214 152c0 52 28 84 74 84c42 0 68 -27 68 -63s-27 -63 -65 -63c-22 0 -42 10 -53 28c11 -65 73 -106 151 -106c94 0 147 56 147 162c0 112 -62 161 -169 161h-32v26h32c100 0 153 70 153 169
c0 97 -51 137 -124 137c-70 0 -126 -36 -138 -107c10 19 31 27 51 27c37 0 63 -25 63 -61c0 -35 -23 -64 -67 -64c-42 0 -72 27 -72 82c0 89 73 154 207 154c118 0 216 -49 216 -164c0 -99 -75 -167 -180 -185z" />
    <glyph glyph-name="four" unicode="4" horiz-adv-x="543" 
d="M516 239h-106v-218h95v-21h-321v21h99v218h-276v25l309 452h94v-454h106v-23zM37 262h246v357z" />
    <glyph glyph-name="five" unicode="5" horiz-adv-x="537" 
d="M288 450c104 0 215 -55 215 -218c0 -159 -105 -244 -254 -244c-139 0 -215 73 -215 158c0 57 33 88 77 88c39 0 69 -25 69 -67s-30 -69 -69 -69c-18 0 -35 7 -47 19c15 -52 66 -94 142 -94c94 0 151 70 151 201c0 125 -51 187 -128 187c-61 0 -107 -38 -133 -85l-21 1
l27 373c57 -12 128 -16 184 -16c67 0 136 6 185 19c-2 -88 -55 -124 -167 -124c-57 0 -140 9 -184 21l-18 -235c34 46 95 85 186 85z" />
    <glyph glyph-name="six" unicode="6" horiz-adv-x="595" 
d="M356 421c99 0 204 -61 204 -204c0 -149 -116 -229 -249 -229c-128 0 -263 76 -263 334c0 251 138 384 297 384c100 0 176 -48 176 -132c0 -51 -31 -80 -77 -80c-44 0 -68 28 -68 64c0 40 29 64 65 64c20 0 39 -7 50 -19c-17 54 -79 78 -140 78
c-120 0 -161 -103 -166 -363c29 70 94 103 171 103zM311 12c81 0 113 76 113 190c0 116 -36 181 -110 181c-65 0 -125 -51 -128 -165c8 -145 54 -206 125 -206z" />
    <glyph glyph-name="seven" unicode="7" horiz-adv-x="467" 
d="M467 694v-18c-140 -196 -220 -391 -226 -676h-136c7 279 183 467 278 591h-316v-92h-27v195h427z" />
    <glyph glyph-name="eight" unicode="8" horiz-adv-x="561" 
d="M342 402c89 -55 181 -113 181 -222c0 -106 -81 -192 -243 -192c-130 0 -241 58 -241 170c0 90 66 146 174 180c-74 49 -140 106 -140 200c0 102 86 168 208 168c114 0 205 -48 205 -145c0 -80 -68 -135 -144 -159zM282 682c-70 0 -99 -53 -99 -102
c0 -74 65 -120 138 -165c35 33 63 82 63 143c0 82 -40 124 -102 124zM282 11c84 0 124 57 124 119c0 88 -88 138 -173 194c-49 -37 -78 -91 -78 -164c0 -103 48 -149 127 -149z" />
    <glyph glyph-name="nine" unicode="9" horiz-adv-x="595" 
d="M284 702c128 0 264 -76 264 -334c0 -251 -138 -384 -298 -384c-100 0 -176 48 -176 132c0 51 31 80 77 80c44 0 68 -28 68 -64c0 -40 -29 -64 -65 -64c-20 0 -39 7 -50 19c18 -54 80 -78 140 -78c120 0 161 103 166 363c-29 -70 -94 -103 -171 -103
c-99 0 -204 61 -204 204c0 149 116 229 249 229zM281 307c63 0 122 48 128 153c-5 154 -52 219 -125 219c-81 0 -113 -77 -113 -191c0 -116 36 -181 110 -181z" />
    <glyph glyph-name="uni00B9" unicode="&#xb9;" horiz-adv-x="249" 
d="M164 365h44v-13h-165v13h44v298c-12 -10 -29 -19 -51 -23l-2 12c32 9 57 29 80 52h50v-339z" />
    <glyph glyph-name="uni00B2" unicode="&#xb2;" horiz-adv-x="301" 
d="M268 460h13c0 -56 -17 -114 -80 -114c-60 0 -75 53 -118 53c-25 0 -42 -19 -49 -47h-15c0 175 158 159 158 267c0 45 -29 65 -67 65c-36 0 -63 -17 -73 -48c7 7 17 11 28 11c22 0 39 -14 39 -37c0 -22 -17 -37 -42 -37c-26 0 -43 17 -43 47c0 47 42 86 122 86
c62 0 123 -22 123 -91c0 -133 -203 -79 -229 -229c16 35 44 53 85 53s63 -20 102 -20c27 0 46 11 46 41z" />
    <glyph glyph-name="uni00B3" unicode="&#xb3;" horiz-adv-x="304" 
d="M166 530c62 -5 111 -27 111 -86c0 -68 -62 -98 -138 -98c-78 0 -117 34 -117 78c0 28 16 45 42 45c23 0 39 -14 39 -35c0 -20 -16 -34 -37 -34c-11 0 -20 4 -26 11c8 -29 36 -45 72 -45c49 0 76 26 76 78s-30 77 -85 77h-16v16h16c51 0 78 34 78 83s-28 66 -65 66
c-33 0 -59 -14 -67 -44c6 6 16 9 26 9c20 0 36 -14 36 -34c0 -19 -15 -34 -38 -34c-24 0 -42 14 -42 44c0 46 41 79 116 79c62 0 118 -24 118 -83c0 -50 -39 -84 -99 -93z" />
    <glyph glyph-name="onequarter" unicode="&#xbc;" horiz-adv-x="658" 
d="M567 710h31l-531 -710h-31zM111 663c-12 -10 -29 -19 -51 -23l-2 12c32 9 57 29 80 52h50v-339h44v-13h-165v13h44v298zM623 113h-53v-106h49v-13h-178v13h52v106h-143v13l160 227h60v-225h53v-15zM371 128h122v172z" />
    <glyph glyph-name="onehalf" unicode="&#xbd;" horiz-adv-x="663" 
d="M567 710h31l-531 -710h-31zM111 663c-12 -10 -29 -19 -51 -23l-2 12c32 9 57 29 80 52h50v-339h44v-13h-165v13h44v298zM631 103h12c0 -57 -17 -115 -79 -115c-60 0 -76 53 -118 53c-25 0 -43 -19 -50 -47h-15c0 175 158 159 158 267c0 46 -28 65 -67 65
c-36 0 -63 -17 -73 -48c7 7 16 11 28 11c23 0 39 -14 39 -36c0 -23 -16 -37 -41 -37c-26 0 -43 17 -43 47c0 47 42 85 122 85c62 0 122 -22 122 -91c0 -133 -203 -78 -229 -230c15 36 45 55 85 55c41 0 64 -20 102 -20c28 0 47 10 47 41z" />
    <glyph glyph-name="threequarters" unicode="&#xbe;" horiz-adv-x="688" 
d="M597 710h31l-531 -710h-31zM277 444c0 -68 -62 -98 -138 -98c-78 0 -117 34 -117 78c0 28 16 45 42 45c23 0 39 -14 39 -35c0 -20 -16 -34 -37 -34c-11 0 -20 4 -26 11c8 -29 36 -45 72 -45c49 0 76 26 76 78s-30 77 -85 77h-16v16h16c51 0 78 34 78 83s-28 66 -65 66
c-33 0 -59 -14 -67 -44c6 6 16 9 26 9c20 0 36 -14 36 -34c0 -19 -15 -34 -38 -34c-24 0 -42 14 -42 44c0 46 41 79 116 79c62 0 118 -24 118 -83c0 -50 -39 -84 -99 -93c62 -5 111 -27 111 -86zM653 113h-53v-106h50v-13h-179v13h52v106h-143v13l160 227h60v-225h53v-15z
M401 128h122v172z" />
    <glyph glyph-name="uni2153" unicode="&#x2153;" horiz-adv-x="664" 
d="M567 710h31l-531 -710h-31zM111 663c-12 -10 -29 -19 -51 -23l-2 12c32 9 57 29 80 52h50v-339h44v-13h-165v13h44v298zM527 172c61 -4 111 -26 111 -86c0 -68 -63 -98 -138 -98c-78 0 -118 34 -118 78c0 28 16 46 42 46c24 0 40 -15 40 -35s-17 -35 -38 -35
c-11 0 -20 4 -26 12c8 -29 36 -45 73 -45c48 0 76 26 76 78s-30 77 -86 77h-15v16h15c51 0 79 33 79 82c0 50 -28 67 -65 67c-33 0 -59 -15 -67 -45c6 6 16 9 25 9c21 0 36 -13 36 -33s-14 -35 -37 -35c-24 0 -42 14 -42 44c0 46 41 79 115 79c63 0 118 -24 118 -83
c0 -50 -38 -84 -98 -93z" />
    <glyph glyph-name="uni2154" unicode="&#x2154;" horiz-adv-x="692" 
d="M595 710h31l-531 -710h-31zM201 346c-60 0 -75 53 -118 53c-25 0 -42 -19 -49 -47h-15c0 175 158 159 158 267c0 45 -29 65 -67 65c-36 0 -63 -17 -73 -48c7 7 17 11 28 11c22 0 39 -14 39 -37c0 -22 -17 -37 -42 -37c-26 0 -43 17 -43 47c0 47 42 86 122 86
c62 0 123 -22 123 -91c0 -133 -203 -79 -229 -229c16 35 44 53 85 53s63 -20 102 -20c27 0 46 11 46 41h13c0 -56 -17 -114 -80 -114zM555 172c61 -4 111 -26 111 -86c0 -68 -63 -98 -138 -98c-78 0 -118 34 -118 78c0 28 16 46 42 46c24 0 40 -15 40 -35s-17 -35 -38 -35
c-10 0 -19 4 -25 11c8 -28 35 -44 72 -44c48 0 76 26 76 78s-30 77 -86 77h-15v16h15c51 0 79 33 79 82c0 50 -28 67 -65 67c-33 0 -59 -15 -67 -45c6 6 16 9 26 9c20 0 35 -13 35 -33s-14 -35 -38 -35c-23 0 -41 14 -41 44c0 46 41 79 115 79c63 0 118 -24 118 -83
c0 -50 -38 -84 -98 -93z" />
    <glyph glyph-name="oneeighth" unicode="&#x215b;" horiz-adv-x="668" 
d="M567 710h31l-531 -710h-31zM111 663c-12 -10 -29 -19 -51 -23l-2 12c32 9 57 29 80 52h50v-339h44v-13h-165v13h44v298zM549 199c47 -28 97 -56 97 -112c0 -55 -44 -99 -131 -99c-74 0 -133 28 -133 85c0 44 34 70 93 85c-39 26 -75 55 -75 103c0 55 47 87 114 87
c62 0 113 -23 113 -73c0 -40 -36 -66 -78 -76zM515 334c-33 0 -48 -23 -48 -47c0 -37 33 -59 70 -81c16 16 29 39 29 68c0 43 -20 60 -51 60zM515 2c41 0 60 25 60 54c0 43 -44 67 -89 95c-21 -17 -34 -42 -34 -76c0 -53 25 -73 63 -73z" />
    <glyph glyph-name="threeeighths" unicode="&#x215c;" horiz-adv-x="698" 
d="M597 710h31l-531 -710h-31zM277 444c0 -68 -62 -98 -138 -98c-78 0 -117 34 -117 78c0 28 16 45 42 45c23 0 39 -14 39 -35c0 -20 -16 -34 -37 -34c-11 0 -20 4 -26 11c8 -29 36 -45 72 -45c49 0 76 26 76 78s-30 77 -85 77h-16v16h16c51 0 78 34 78 83s-28 66 -65 66
c-33 0 -59 -14 -67 -44c6 6 16 9 26 9c20 0 36 -14 36 -34c0 -19 -15 -34 -38 -34c-24 0 -42 14 -42 44c0 46 41 79 116 79c62 0 118 -24 118 -83c0 -50 -39 -84 -99 -93c62 -5 111 -27 111 -86zM580 199c47 -28 97 -56 97 -112c0 -55 -44 -99 -132 -99
c-74 0 -133 28 -133 85c0 45 34 70 93 86c-39 25 -74 54 -74 102c0 55 46 87 114 87c61 0 112 -23 112 -73c0 -40 -35 -66 -77 -76zM546 334c-34 0 -49 -23 -49 -47c0 -37 33 -59 70 -81c16 16 29 39 29 68c0 43 -20 60 -50 60zM545 2c41 0 60 25 60 54c0 43 -44 68 -88 95
c-22 -17 -35 -42 -35 -76c0 -53 25 -73 63 -73z" />
    <glyph glyph-name="fiveeighths" unicode="&#x215d;" horiz-adv-x="690" 
d="M589 710h31l-531 -710h-31zM275 468c0 -82 -57 -122 -137 -122c-76 0 -117 36 -117 82c0 32 18 47 42 47c23 0 40 -13 40 -35c0 -23 -17 -37 -39 -37c-8 0 -16 2 -22 6c9 -25 33 -42 67 -42c47 0 77 30 77 96c0 61 -26 91 -65 91c-30 0 -49 -16 -63 -38l-14 1l14 186
c31 -6 68 -8 98 -8c34 0 74 3 102 9c-1 -49 -29 -70 -94 -70c-30 0 -71 5 -94 10l-9 -107c19 22 52 40 99 40c55 0 115 -26 115 -109zM571 199c47 -28 97 -56 97 -112c0 -55 -43 -99 -131 -99c-74 0 -132 28 -132 85c0 45 33 70 92 86c-39 25 -74 54 -74 102
c0 55 46 87 114 87c61 0 112 -23 112 -73c0 -40 -36 -66 -78 -76zM538 334c-34 0 -49 -23 -49 -47c0 -37 33 -59 70 -81c16 16 29 39 29 68c0 43 -20 60 -50 60zM537 2c41 0 60 25 60 54c0 43 -44 68 -88 95c-22 -17 -35 -42 -35 -76c0 -53 25 -73 63 -73z" />
    <glyph glyph-name="seveneighths" unicode="&#x215e;" horiz-adv-x="659" 
d="M558 710h31l-531 -710h-31zM49 639v-43h-15v104h231v-8c-70 -100 -115 -203 -117 -340h-80c3 134 104 234 147 287h-166zM541 199c47 -28 97 -56 97 -112c0 -55 -44 -99 -132 -99c-74 0 -132 28 -132 85c0 45 34 70 92 86c-39 25 -74 54 -74 102c0 55 46 87 114 87
c61 0 112 -23 112 -73c0 -40 -35 -66 -77 -76zM507 334c-34 0 -49 -23 -49 -47c0 -37 33 -59 70 -81c16 16 29 39 29 68c0 43 -20 60 -50 60zM506 2c41 0 60 25 60 54c0 43 -44 68 -88 95c-22 -17 -35 -42 -35 -76c0 -53 26 -73 63 -73z" />
    <glyph glyph-name="underscore" unicode="_" horiz-adv-x="445" 
d="M5 -68h467v-31h-467v31z" />
    <glyph glyph-name="hyphen" unicode="-" horiz-adv-x="364" 
d="M45 286v27h274v-27h-274z" />
    <glyph glyph-name="endash" unicode="&#x2013;" horiz-adv-x="534" 
d="M45 286v27h445v-27h-445z" />
    <glyph glyph-name="emdash" unicode="&#x2014;" horiz-adv-x="914" 
d="M45 286v27h824v-27h-824z" />
    <glyph glyph-name="parenleft" unicode="(" horiz-adv-x="405" 
d="M51 273c0 284 204 431 284 479l18 -17c-81 -62 -163 -216 -163 -462c0 -245 82 -399 163 -461l-18 -18c-80 48 -284 196 -284 479z" />
    <glyph glyph-name="parenright" unicode=")" horiz-adv-x="404" 
d="M353 273c0 284 -204 431 -284 479l-18 -17c81 -62 163 -216 163 -462c0 -245 -82 -399 -163 -461l18 -18c80 48 284 196 284 479z" />
    <glyph glyph-name="bracketleft" unicode="[" horiz-adv-x="350" 
d="M298 711h-126v-878h126v-22h-253v922h253v-22z" />
    <glyph glyph-name="bracketright" unicode="]" horiz-adv-x="349" 
d="M304 733v-922h-253v22h126v878h-126v22h253z" />
    <glyph glyph-name="braceleft" unicode="{" horiz-adv-x="408" 
d="M338 719c-56 0 -85 -35 -85 -100c0 -72 32 -134 32 -200c0 -76 -40 -136 -140 -149c100 -14 140 -74 140 -150c0 -66 -32 -128 -32 -200c0 -65 29 -100 85 -100h18v-18h-79c-113 0 -154 57 -154 132c0 76 36 124 36 202c0 68 -30 124 -108 124v19c78 0 108 56 108 124
c0 78 -36 127 -36 202s41 132 154 132h79v-18h-18z" />
    <glyph glyph-name="braceright" unicode="}" horiz-adv-x="408" 
d="M249 136c0 68 30 124 108 124v19c-78 0 -108 56 -108 124c0 78 36 127 36 202s-41 132 -154 132h-79v-18h18c56 0 85 -35 85 -100c0 -72 -32 -134 -32 -200c0 -76 40 -136 140 -149c-100 -14 -140 -74 -140 -150c0 -66 32 -128 32 -200c0 -65 -29 -100 -85 -100h-18v-18
h79c113 0 154 57 154 132c0 76 -36 124 -36 202z" />
    <glyph glyph-name="numbersign" unicode="#" horiz-adv-x="674" 
d="M701 474h-178l-62 -238h181v-22h-186l-56 -214h-27l55 214h-234l-55 -214h-29l56 214h-161v22h166l62 238h-169v22h175l50 194h28l-50 -194h234l50 194h28l-50 -194h172v-22zM434 236l61 238h-234l-61 -238h234z" />
    <glyph glyph-name="percent" unicode="%" horiz-adv-x="821" 
d="M132 0l531 710h31l-531 -710h-31zM185 346c-71 0 -157 61 -157 180c0 117 86 180 157 180c72 0 156 -62 156 -180c0 -119 -85 -180 -156 -180zM185 360c48 0 69 51 69 166c0 114 -21 166 -69 166s-69 -52 -69 -166c0 -115 21 -166 69 -166zM636 -12
c-70 0 -156 62 -156 180s85 180 156 180c73 0 157 -62 157 -180s-85 -180 -157 -180zM636 2c48 0 69 52 69 166s-21 166 -69 166s-68 -52 -68 -166s20 -166 68 -166z" />
    <glyph glyph-name="perthousand" unicode="&#x2030;" horiz-adv-x="1196" 
d="M132 0l531 710h31l-531 -710h-31zM185 346c-71 0 -157 61 -157 180c0 117 86 180 157 180c72 0 156 -62 156 -180c0 -119 -85 -180 -156 -180zM185 360c48 0 69 51 69 166c0 114 -21 166 -69 166s-69 -52 -69 -166c0 -115 21 -166 69 -166zM636 -12
c-70 0 -156 62 -156 180s85 180 156 180c73 0 157 -62 157 -180s-85 -180 -157 -180zM1011 -12c-71 0 -157 62 -157 180s86 180 157 180c72 0 156 -62 156 -180s-85 -180 -156 -180zM636 2c48 0 69 52 69 166s-21 166 -69 166s-68 -52 -68 -166s20 -166 68 -166zM1011 2
c48 0 69 52 69 166s-21 166 -69 166s-69 -52 -69 -166s21 -166 69 -166z" />
    <glyph glyph-name="quotesingle" unicode="'" horiz-adv-x="262" 
d="M135 464h-10c-33 61 -59 122 -59 169c0 46 28 73 65 73s65 -27 65 -73c0 -47 -28 -108 -61 -169z" />
    <glyph glyph-name="quotedbl" unicode="&#x22;" horiz-adv-x="457" 
d="M135 464h-10c-33 61 -59 122 -59 169c0 46 28 73 65 73s65 -27 65 -73c0 -47 -28 -108 -61 -169zM330 464h-10c-33 61 -59 122 -59 169c0 46 28 73 65 73s65 -27 65 -73c0 -47 -28 -108 -61 -169z" />
    <glyph glyph-name="quoteleft" unicode="&#x2018;" horiz-adv-x="288" 
d="M146 599c45 0 74 -30 74 -73c0 -42 -31 -71 -75 -71c-45 0 -79 31 -79 86c0 74 54 151 137 176l9 -19c-59 -22 -93 -65 -108 -109c11 6 25 10 42 10z" />
    <glyph glyph-name="quoteright" unicode="&#x2019;" horiz-adv-x="288" 
d="M143 706c45 0 79 -31 79 -86c0 -74 -54 -151 -137 -176l-9 19c59 22 93 65 108 109c-11 -6 -25 -10 -42 -10c-45 0 -74 30 -74 73c0 42 31 71 75 71z" />
    <glyph glyph-name="quotedblleft" unicode="&#x201c;" horiz-adv-x="486" 
d="M146 599c45 0 74 -30 74 -73c0 -42 -31 -71 -75 -71c-45 0 -79 31 -79 86c0 74 54 151 137 176l9 -19c-59 -22 -93 -65 -108 -109c11 6 25 10 42 10zM344 599c45 0 74 -30 74 -73c0 -42 -31 -71 -75 -71c-45 0 -79 31 -79 86c0 74 54 151 137 176l9 -19
c-59 -22 -93 -65 -108 -109c11 6 25 10 42 10z" />
    <glyph glyph-name="quotedblright" unicode="&#x201d;" horiz-adv-x="487" 
d="M143 706c45 0 79 -31 79 -86c0 -74 -54 -151 -137 -176l-9 19c59 22 93 65 108 109c-11 -6 -25 -10 -42 -10c-45 0 -74 30 -74 73c0 42 31 71 75 71zM342 706c45 0 79 -31 79 -86c0 -74 -54 -151 -137 -176l-9 19c59 22 93 65 108 109c-11 -6 -25 -10 -42 -10
c-45 0 -74 30 -74 73c0 42 31 71 75 71z" />
    <glyph glyph-name="quotesinglbase" unicode="&#x201a;" horiz-adv-x="262" 
d="M135 -119h-10c-33 61 -59 122 -59 169c0 46 28 73 65 73s65 -27 65 -73c0 -47 -28 -108 -61 -169z" />
    <glyph glyph-name="quotedblbase" unicode="&#x201e;" horiz-adv-x="457" 
d="M135 -119h-10c-33 61 -59 122 -59 169c0 46 28 73 65 73s65 -27 65 -73c0 -47 -28 -108 -61 -169zM330 -119h-10c-33 61 -59 122 -59 169c0 46 28 73 65 73s65 -27 65 -73c0 -47 -28 -108 -61 -169z" />
    <glyph glyph-name="guilsinglleft" unicode="&#x2039;" horiz-adv-x="381" 
d="M163 308c60 -30 138 -129 166 -206l-14 -10c-64 101 -171 188 -264 207v18c93 23 200 106 264 207l14 -10c-28 -77 -106 -176 -166 -206z" />
    <glyph glyph-name="guilsinglright" unicode="&#x203a;" horiz-adv-x="381" 
d="M66 524c64 -101 171 -184 264 -207v-18c-93 -19 -200 -106 -264 -207l-14 10c28 77 106 176 166 206c-60 30 -138 129 -166 206z" />
    <glyph glyph-name="guillemotleft" unicode="&#xab;" horiz-adv-x="596" 
d="M163 308c60 -30 138 -129 166 -206l-14 -10c-64 101 -171 188 -264 207v18c93 23 200 106 264 207l14 -10c-28 -77 -106 -176 -166 -206zM378 308c60 -30 138 -129 166 -206l-14 -10c-64 101 -171 188 -264 207v18c93 23 200 106 264 207l14 -10
c-28 -77 -106 -176 -166 -206z" />
    <glyph glyph-name="guillemotright" unicode="&#xbb;" horiz-adv-x="596" 
d="M330 299c-93 -19 -200 -106 -264 -207l-14 10c28 77 106 176 166 206c-60 30 -138 129 -166 206l14 10c64 -101 171 -184 264 -207v-18zM281 524c64 -101 171 -184 264 -207v-18c-93 -19 -200 -106 -264 -207l-14 10c28 77 106 176 166 206c-60 30 -138 129 -166 206z
" />
    <glyph glyph-name="asterisk" unicode="*" horiz-adv-x="490" 
d="M200 390c-19 -25 -46 -24 -64 -11c-19 14 -29 39 -11 64c21 30 69 42 112 84c-61 9 -105 -9 -139 2c-30 9 -37 36 -30 58c8 21 29 39 59 29c34 -11 60 -51 112 -79c-9 60 -40 97 -40 132c0 31 23 45 46 45c22 0 46 -14 46 -45c0 -36 -31 -73 -42 -133c55 28 80 69 115 80
c29 9 50 -8 57 -30c7 -21 0 -48 -29 -57c-35 -11 -80 6 -139 -2c43 -43 90 -55 111 -84c18 -25 8 -50 -11 -64c-18 -13 -45 -14 -64 10c-21 30 -18 78 -44 131c-27 -55 -25 -101 -45 -130z" />
    <glyph glyph-name="dagger" unicode="&#x2020;" horiz-adv-x="530" 
d="M421 482c38 0 64 -26 64 -61s-26 -60 -64 -60c-52 0 -91 49 -148 55c2 -122 45 -170 127 -205v-6c-87 -36 -123 -78 -127 -415h-16c-5 337 -40 379 -127 415v6c82 35 125 83 127 205c-57 -6 -97 -55 -148 -55c-39 0 -64 25 -64 60s25 61 64 61c51 0 91 -47 148 -54
c-2 119 -60 142 -60 204c0 49 36 70 68 70s68 -21 68 -70c0 -62 -58 -85 -60 -204c57 7 96 54 148 54z" />
    <glyph glyph-name="daggerdbl" unicode="&#x2021;" horiz-adv-x="530" 
d="M273 437c2 -120 53 -160 127 -194v-6c-74 -34 -125 -80 -127 -199c57 6 97 55 148 55c38 0 64 -25 64 -61c0 -34 -26 -60 -64 -60c-51 0 -91 47 -148 54c1 -106 60 -117 60 -179c0 -49 -36 -70 -68 -70s-68 21 -68 70c0 62 57 72 60 179c-56 -6 -96 -54 -148 -54
c-39 0 -64 26 -64 60c0 36 25 61 64 61c51 0 91 -49 148 -55c-2 118 -53 164 -127 199v6c74 34 125 75 127 194c-57 -6 -97 -55 -148 -55c-39 0 -64 25 -64 60s25 61 64 61c52 0 92 -49 148 -54c-3 107 -60 121 -60 183c0 49 36 70 68 70s68 -21 68 -70
c0 -62 -59 -77 -60 -183c57 6 97 54 148 54c38 0 64 -26 64 -61s-26 -60 -64 -60c-51 0 -91 49 -148 55z" />
    <glyph glyph-name="period" unicode="." horiz-adv-x="281" 
d="M140 -13c-44 0 -74 30 -74 70c0 41 30 72 74 72s75 -31 75 -72c0 -40 -31 -70 -75 -70z" />
    <glyph glyph-name="comma" unicode="," horiz-adv-x="288" 
d="M143 131c45 0 79 -31 79 -86c0 -74 -54 -151 -137 -176l-9 19c59 22 93 65 108 109c-11 -6 -25 -10 -42 -10c-45 0 -74 30 -74 73c0 42 31 71 75 71z" />
    <glyph glyph-name="colon" unicode=":" horiz-adv-x="282" 
d="M141 346c-44 0 -74 30 -74 70c0 41 30 72 74 72s75 -31 75 -72c0 -40 -31 -70 -75 -70zM140 -13c-44 0 -74 30 -74 70c0 41 30 72 74 72s75 -31 75 -72c0 -40 -31 -70 -75 -70z" />
    <glyph glyph-name="semicolon" unicode=";" horiz-adv-x="289" 
d="M143 297c-44 0 -74 30 -74 70c0 41 30 72 74 72s75 -31 75 -72c0 -40 -31 -70 -75 -70zM143 131c45 0 79 -31 79 -86c0 -74 -54 -151 -137 -176l-9 19c59 22 93 65 108 109c-11 -6 -25 -10 -42 -10c-45 0 -74 30 -74 73c0 42 31 71 75 71z" />
    <glyph glyph-name="ellipsis" unicode="&#x2026;" horiz-adv-x="731" 
d="M140 -13c-44 0 -74 30 -74 70c0 41 30 72 74 72s75 -31 75 -72c0 -40 -31 -70 -75 -70zM365 -13c-44 0 -74 30 -74 70c0 41 30 72 74 72s75 -31 75 -72c0 -40 -31 -70 -75 -70zM589 -13c-44 0 -74 30 -74 70c0 41 30 72 74 72s75 -31 75 -72c0 -40 -31 -70 -75 -70z" />
    <glyph glyph-name="exclam" unicode="!" horiz-adv-x="311" 
d="M165 201h-20c-5 125 -74 338 -74 414c0 58 36 91 85 91s85 -33 85 -91c0 -76 -72 -289 -76 -414zM155 -13c-44 0 -74 30 -74 70c0 41 30 72 74 72s75 -31 75 -72c0 -40 -31 -70 -75 -70z" />
    <glyph glyph-name="exclamdown" horiz-adv-x="311" 
d="M155 507c-44 0 -74 -30 -74 -70c0 -41 30 -72 74 -72s75 31 75 72c0 40 -31 70 -75 70zM165 293h-20c-5 -125 -74 -338 -74 -414c0 -58 36 -91 85 -91s85 33 85 91c0 76 -72 289 -76 414z" />
    <glyph glyph-name="question" unicode="?" horiz-adv-x="466" 
d="M239 706c115 0 213 -50 213 -153c0 -161 -210 -163 -232 -341h-17c1 182 108 214 108 340c0 83 -47 122 -114 122c-76 0 -131 -43 -144 -113c11 19 32 31 57 31c37 0 66 -28 66 -65s-27 -67 -71 -67s-77 29 -77 86c0 82 67 160 211 160zM220 129c44 0 75 -31 75 -72
c0 -40 -31 -70 -75 -70s-74 30 -74 70c0 41 30 72 74 72z" />
    <glyph glyph-name="questiondown" unicode="&#xbf;" horiz-adv-x="480" 
d="M260 365c-44 0 -75 31 -75 72c0 40 31 70 75 70s74 -30 74 -70c0 -41 -30 -72 -74 -72zM375 34c44 0 77 -29 77 -86c0 -82 -67 -160 -211 -160c-115 0 -213 50 -213 153c0 161 210 163 232 341h17c-1 -182 -108 -214 -108 -340c0 -83 47 -122 114 -122
c76 0 131 43 144 113c-11 -19 -32 -31 -57 -31c-37 0 -66 28 -66 65s27 67 71 67z" />
    <glyph glyph-name="slash" unicode="/" horiz-adv-x="513" 
d="M497 716l-468 -826h-29l467 826h30z" />
    <glyph glyph-name="backslash" unicode="\" horiz-adv-x="513" 
d="M16 716l468 -826h29l-467 826h-30z" />
    <glyph glyph-name="fraction" unicode="&#x2044;" horiz-adv-x="87" 
d="M-237 0l531 710h31l-531 -710h-31z" />
    <glyph glyph-name="bar" unicode="|" horiz-adv-x="100" 
d="M62 -200h-24v920h24v-920z" />
    <glyph glyph-name="at" unicode="@" horiz-adv-x="984" 
d="M932 92c-28 -42 -144 -208 -414 -208c-259 0 -467 167 -467 432c0 263 209 441 459 441c248 0 404 -130 404 -333c0 -205 -134 -315 -272 -315c-72 0 -112 30 -111 91c-37 -69 -82 -91 -129 -91c-79 1 -132 60 -119 186c13 137 95 240 192 240c56 0 93 -28 103 -86l27 76
h83l-63 -286c-15 -61 -4 -98 50 -98c97 0 213 106 213 287c0 183 -146 306 -379 306c-237 0 -427 -173 -427 -421s191 -405 439 -405c242 0 358 148 393 198zM434 148c45 -1 81 39 112 163c28 115 16 188 -36 189c-65 0 -107 -92 -122 -215c-15 -104 8 -137 46 -137z" />
    <glyph glyph-name="ampersand" unicode="&#x26;" horiz-adv-x="734" 
d="M728 150l18 -4c-6 -62 -24 -158 -147 -158c-82 0 -129 30 -175 86c-41 -49 -99 -87 -195 -87c-107 0 -211 51 -211 174c0 128 113 176 212 196c-34 52 -67 108 -67 179c0 111 82 170 197 170c120 0 182 -62 182 -142c0 -52 -30 -78 -72 -78c-41 0 -65 28 -65 62
c0 36 26 60 62 60c23 0 40 -10 51 -25c-11 58 -54 95 -118 95c-69 0 -114 -44 -114 -121c0 -59 26 -102 66 -159l143 -206l53 88c23 39 15 81 -30 81h-20v21h210v-21h-14c-42 0 -86 -31 -115 -80l-69 -111l32 -46c32 -47 66 -76 107 -76c46 0 72 42 79 102zM278 25
c54 0 97 27 132 67c-5 6 -9 12 -14 19l-155 231c-63 -27 -92 -86 -92 -156c0 -113 58 -161 129 -161z" />
    <glyph glyph-name="section" unicode="&#xa7;" horiz-adv-x="572" 
d="M388 17c69 -37 128 -87 128 -185c0 -134 -102 -213 -241 -213c-119 0 -209 59 -209 145c0 55 31 83 73 83c41 0 66 -27 66 -64c0 -40 -28 -63 -64 -63c-20 0 -37 7 -48 20c21 -56 91 -95 176 -95c99 0 154 59 154 136c0 85 -77 120 -158 157c-92 42 -190 87 -190 209
c0 108 83 160 164 173c-81 39 -159 85 -159 197c0 133 118 189 229 189c112 0 191 -60 191 -136c0 -47 -30 -73 -69 -73c-41 0 -66 27 -66 62c0 37 28 60 62 60c15 0 27 -4 37 -12c-22 44 -80 73 -148 73c-87 0 -142 -48 -142 -118c0 -84 84 -115 170 -152
c89 -39 179 -85 179 -209c0 -100 -58 -161 -135 -184zM165 193c0 -80 80 -111 165 -148c10 -4 19 -9 29 -13c46 18 71 58 71 112c0 84 -69 121 -147 156l-16 7c-60 -12 -102 -55 -102 -114z" />
    <glyph glyph-name="paragraph" unicode="&#xb6;" horiz-adv-x="589" 
d="M537 694v-22h-85v-668h-31v668h-75v-670h-31v269h-12c-156 0 -252 78 -252 216c0 136 93 207 249 207h237z" />
    <glyph glyph-name="uni2116" unicode="&#x2116;" horiz-adv-x="1238" 
d="M971 705c110 0 233 -82 233 -238s-122 -239 -233 -239c-109 0 -234 83 -234 239s125 238 234 238zM468 673v21h226v-21h-24c-37 0 -76 -28 -76 -89v-595h-83l-358 634v-508c0 -65 34 -94 80 -94h23v-21h-232v21h23c42 0 78 29 78 94v496c0 45 -15 62 -58 62h-35v21h230
l305 -523v413c0 61 -36 89 -75 89h-24zM971 249c64 0 102 68 102 218s-38 217 -102 217c-63 0 -103 -67 -103 -217s40 -218 103 -218zM972 129c44 0 75 -31 75 -72c0 -40 -31 -70 -75 -70s-74 30 -74 70c0 41 30 72 74 72z" />
    <glyph glyph-name="periodcentered" unicode="&#xb7;" horiz-adv-x="238" 
d="M118 375c-44 0 -74 30 -74 70c0 41 30 72 74 72s75 -31 75 -72c0 -40 -31 -70 -75 -70z" />
    <glyph glyph-name="bullet" unicode="&#x2022;" horiz-adv-x="304" 
d="M151 345c-64 0 -107 43 -107 101c0 59 43 104 107 104c63 0 108 -45 108 -104c0 -58 -45 -101 -108 -101z" />
    <glyph glyph-name="plus" unicode="+" horiz-adv-x="494" 
d="M443 313v-26h-183v-202h-26v202h-183v26h183v180h26v-180h183z" />
    <glyph glyph-name="minus" unicode="&#x2212;" horiz-adv-x="567" 
d="M515 287h-464v26h464v-26z" />
    <glyph glyph-name="plusminus" unicode="&#xb1;" horiz-adv-x="582" 
d="M304 346h219v-26h-219v-190h-26v190h-219v26h219v164h26v-164zM59 0v26h464v-26h-464z" />
    <glyph glyph-name="divide" unicode="&#xf7;" horiz-adv-x="613" 
d="M306 417c-19 0 -33 12 -33 33s14 33 33 33s33 -12 33 -33s-14 -33 -33 -33zM553 287h-494v26h494v-26zM306 102c-20 0 -35 14 -35 35c0 22 15 35 35 35c19 0 35 -13 35 -35c0 -21 -16 -35 -35 -35z" />
    <glyph glyph-name="multiply" unicode="&#xd7;" horiz-adv-x="549" 
d="M479 407l-185 -199l185 -199l-21 -20l-184 197l-185 -198l-21 21l185 199l-185 199l21 22l185 -199l184 199z" />
    <glyph glyph-name="equal" unicode="=" horiz-adv-x="567" 
d="M515 356h-464v27h464v-27zM515 133h-464v27h464v-27z" />
    <glyph glyph-name="less" unicode="&#x3c;" horiz-adv-x="511" 
d="M460 422v-28l-368 -137l368 -139v-30l-409 156v25z" />
    <glyph glyph-name="greater" unicode="&#x3e;" horiz-adv-x="511" 
d="M51 422l409 -153v-25l-409 -156v30l368 139l-368 137v28z" />
    <glyph glyph-name="lessequal" unicode="&#x2264;" horiz-adv-x="552" 
d="M480 154v-30l-408 150v25l408 147v-28l-369 -130zM71 26h414v-26h-414v26z" />
    <glyph glyph-name="greaterequal" unicode="&#x2265;" horiz-adv-x="552" 
d="M484 299v-25l-408 -150v30l369 134l-369 130v28zM71 26h414v-26h-414v26z" />
    <glyph glyph-name="approxequal" unicode="&#x2248;" horiz-adv-x="652" 
d="M601 368c-35 17 -71 37 -139 37c-107 0 -148 -40 -280 -40c-65 0 -97 20 -130 37v26c33 -17 66 -37 130 -37c128 0 172 40 280 40c65 0 104 -20 139 -36v-27zM601 190h-550v26h550v-26zM601 1h-550v26h550v-26z" />
    <glyph glyph-name="notequal" unicode="&#x2260;" horiz-adv-x="592" 
d="M532 356h-161l-137 -196h298v-27h-317l-102 -145l-22 15l91 130h-123v27h142l137 196h-279v27h298l109 155l22 -15l-98 -140h142v-27z" />
    <glyph glyph-name="logicalnot" unicode="&#xac;" horiz-adv-x="539" 
d="M51 313h437v-225h-29v198h-408v27z" />
    <glyph glyph-name="arrowleft" unicode="&#x2190;" horiz-adv-x="847" 
d="M294 50c11 -36 28 -63 67 -63c38 0 59 25 59 63c0 78 -130 201 -307 258c282 -17 482 -90 565 -90c63 0 103 38 103 98c0 59 -40 97 -103 97c-84 0 -280 -75 -561 -92c176 56 303 179 303 256c0 38 -21 62 -59 62c-39 0 -56 -25 -67 -62c-40 -126 -134 -253 -249 -253
v-22c115 0 209 -123 249 -252z" />
    <glyph glyph-name="arrowup" unicode="&#x2191;" horiz-adv-x="784" 
d="M129 485c-36 -11 -63 -28 -63 -67c0 -38 25 -59 63 -59c78 0 201 130 258 307c-17 -282 -90 -482 -90 -565c0 -63 38 -103 98 -103c59 0 97 40 97 103c0 84 -75 280 -92 561c56 -176 179 -303 256 -303c38 0 62 21 62 59c0 39 -25 56 -62 67c-126 40 -253 134 -253 249
h-22c0 -115 -123 -209 -252 -249z" />
    <glyph glyph-name="arrowright" unicode="&#x2192;" horiz-adv-x="847" 
d="M553 577c40 -126 134 -253 249 -253v-22c-115 0 -209 -123 -249 -252c-11 -36 -28 -63 -67 -63c-38 0 -59 25 -59 63c0 78 130 201 307 258c-282 -17 -482 -90 -565 -90c-63 0 -103 38 -103 98c0 59 40 97 103 97c84 0 280 -75 561 -92c-176 56 -303 179 -303 256
c0 38 21 62 59 62c39 0 56 -25 67 -62z" />
    <glyph glyph-name="arrowdown" unicode="&#xa1;" horiz-adv-x="784" 
d="M655 206c36 11 63 28 63 67c0 38 -25 59 -63 59c-78 0 -201 -130 -258 -307c17 282 90 482 90 565c0 63 -38 103 -98 103c-59 0 -97 -40 -97 -103c0 -84 75 -280 92 -561c-56 176 -179 303 -256 303c-38 0 -62 -21 -62 -59c0 -39 25 -56 62 -67
c126 -40 253 -134 253 -249h22c0 115 123 209 252 249z" />
    <glyph glyph-name="arrowdown" unicode="&#x2193;" horiz-adv-x="784" 
d="M655 206c36 11 63 28 63 67c0 38 -25 59 -63 59c-78 0 -201 -130 -258 -307c17 282 90 482 90 565c0 63 -38 103 -98 103c-59 0 -97 -40 -97 -103c0 -84 75 -280 92 -561c-56 176 -179 303 -256 303c-38 0 -62 -21 -62 -59c0 -39 25 -56 62 -67
c126 -40 253 -134 253 -249h22c0 115 123 209 252 249z" />
    <glyph glyph-name="dollar" unicode="$" horiz-adv-x="576" 
d="M528 201c0 -134 -97 -208 -223 -213v-93h-21v93c-130 2 -221 56 -221 144c0 52 30 80 72 80c41 0 68 -28 68 -65c0 -39 -30 -63 -65 -63c-20 0 -36 7 -47 19c23 -56 102 -90 193 -89v286c-94 44 -206 86 -206 218c0 125 99 181 206 187v84h21v-83c112 0 204 -55 204 -135
c0 -46 -29 -72 -67 -72c-42 0 -67 27 -67 62c0 37 29 59 62 59c13 0 24 -3 33 -9c-28 43 -97 70 -165 69v-253c100 -41 223 -83 223 -226zM167 564c0 -66 52 -98 117 -128v243c-69 -8 -117 -51 -117 -115zM305 15c79 6 132 56 132 128c0 80 -56 112 -132 147v-275z" />
    <glyph glyph-name="cent" unicode="&#xa2;" horiz-adv-x="547" 
d="M481 141c-29 -89 -81 -146 -176 -153v-93h-20v93c-109 1 -235 75 -235 251c0 173 128 247 235 248v93h20v-93c97 -6 157 -58 157 -132c0 -50 -30 -74 -69 -74c-40 0 -63 25 -63 60s24 58 60 58c18 0 32 -5 42 -15c-17 54 -70 77 -127 72v-431c75 -7 125 44 155 123z
M182 244c0 -129 43 -201 103 -216v425c-58 -14 -103 -77 -103 -209z" />
    <glyph glyph-name="sterling" unicode="&#xa3;" horiz-adv-x="615" 
d="M563 199h18c0 -100 -8 -214 -116 -214c-96 0 -115 98 -161 129c-18 -91 -77 -129 -141 -130c-57 0 -92 35 -92 79c0 52 46 83 132 83c26 0 50 -3 72 -7c2 9 3 20 3 35c-7 58 -32 99 -61 136h-162v19h146c-48 56 -100 105 -100 194c0 124 114 183 238 183
c135 0 204 -75 204 -158c0 -57 -31 -89 -76 -89c-41 0 -69 29 -69 67c0 40 30 66 69 66c22 0 39 -9 50 -23c-15 68 -73 103 -137 103c-73 0 -135 -36 -135 -148c0 -65 23 -127 41 -195h197v-19h-192c11 -42 19 -86 19 -134c0 -16 -1 -30 -3 -44c47 -11 91 -24 144 -24
c81 0 111 33 112 91z" />
    <glyph glyph-name="currency" unicode="&#xa4;" horiz-adv-x="595" 
d="M509 351c0 -65 -20 -115 -51 -151l92 -92l-19 -19l-91 92c-41 -37 -94 -55 -143 -55c-48 0 -102 18 -143 55l-90 -91l-19 19l91 90c-32 36 -53 87 -53 152c0 59 17 106 44 142l-82 82l19 19l81 -81c43 42 100 63 152 63s109 -21 151 -64l83 83l19 -19l-84 -84
c26 -36 43 -82 43 -141zM297 145c55 0 94 58 94 206s-39 206 -94 206c-56 0 -95 -58 -95 -206s39 -206 95 -206z" />
    <glyph glyph-name="yen" unicode="&#xa5;" horiz-adv-x="628" 
d="M410 693h233v-21h-24c-53 1 -91 -49 -110 -89l-112 -242h161v-21h-169v-118h169v-21h-169v-160h97v-21h-324v21h98v160h-159v21h159v101l-8 17h-151v21h140l-165 331h-79v22h301v-22h-81l156 -318l108 233c17 38 9 86 -45 85h-26v21z" />
    <glyph glyph-name="uni20A9" unicode="&#x20a9;" horiz-adv-x="1013" 
d="M804 694h231v-21h-20c-57 0 -87 -45 -99 -90l-27 -99h97v-22h-103l-47 -168h129v-22h-135l-76 -277h-95l-80 277h-131l-69 -277h-96l-84 277h-139v22h132l-51 167h-109v22h102l-58 190h-72v21h282v-21h-72l56 -190h200l22 89l-29 101h-62v21h272v-21h-72l52 -189h205
l28 104c11 40 -6 85 -61 85h-21v21zM453 294h120l-65 223zM806 294l46 168h-193l46 -168h101zM276 461l50 -167h98l41 167h-189zM379 112l39 160h-86zM756 111l44 161h-88z" />
    <glyph glyph-name="Euro" unicode="&#x20ac;" horiz-adv-x="641" 
d="M558 240h20v-248h-18c-6 22 -18 40 -43 40c-39 0 -70 -44 -159 -44c-128 0 -270 91 -300 285h-92l11 21h79c-2 17 -3 35 -3 54c0 23 1 45 4 66h-91l11 22h84c33 184 169 270 294 270c90 0 121 -44 160 -44c25 0 36 19 41 40h19v-243h-20c-24 146 -103 220 -178 220
c-92 0 -160 -78 -178 -243h259l-11 -22h-250c-1 -21 -2 -43 -2 -66c0 -19 1 -37 2 -54h261l-11 -21h-249c16 -175 86 -258 179 -258c77 0 159 82 181 225z" />
    <glyph glyph-name="fhook" unicode="&#x192;" horiz-adv-x="302" 
d="M365 746c75 0 107 -42 107 -94c0 -42 -25 -62 -56 -62c-30 0 -51 19 -50 47s23 47 50 47c15 0 28 -7 36 -17c-6 35 -31 58 -75 58c-83 0 -114 -104 -141 -253h110l-4 -21h-110l-65 -349c-40 -222 -116 -318 -230 -318c-69 0 -102 34 -102 79c0 42 26 65 56 65
s47 -18 47 -44c0 -28 -20 -48 -48 -48c-14 0 -26 6 -34 14c9 -26 31 -46 71 -46c76 0 99 70 138 285l67 362h-80l4 21h80c40 197 126 274 229 274z" />
    <glyph glyph-name="asciicircum" unicode="^" horiz-adv-x="576" 
d="M304 573l199 -295l-14 -15l-199 156l-199 -156l-14 15l199 295h28z" />
    <glyph glyph-name="asciitilde" unicode="~" horiz-adv-x="576" 
d="M81 308c4 115 50 168 130 168c63 0 133 -48 187 -48c40 0 68 22 71 61l27 -3c-4 -116 -50 -168 -126 -168c-57 0 -128 47 -186 47c-44 0 -74 -20 -77 -60z" />
    <glyph glyph-name="acute" unicode="&#xb4;" horiz-adv-x="556" 
d="M144 545l93 128c47 84 152 -1 60 -55l-140 -86z" />
    <glyph glyph-name="grave" unicode="`" horiz-adv-x="556" 
d="M337 545l-93 128c-47 84 -152 -1 -60 -55l140 -86z" />
    <glyph glyph-name="hungarumlaut" unicode="&#x2dd;" horiz-adv-x="556" 
d="M140 542l77 132c33 90 146 20 69 -43l-132 -99zM316 542l76 132c33 90 147 20 70 -43l-132 -99z" />
    <glyph glyph-name="circumflex" unicode="&#x2c6;" horiz-adv-x="556" 
d="M268 704l138 -156l-10 -15l-139 77l-139 -77l-11 15l139 156h22z" />
    <glyph glyph-name="caron" unicode="&#x2c7;" horiz-adv-x="556" 
d="M396 706l10 -15l-138 -156h-22l-139 156l11 15l139 -77z" />
    <glyph glyph-name="breve" unicode="&#x2d8;" horiz-adv-x="556" 
d="M369 708h19c0 -91 -35 -167 -141 -167c-107 0 -142 76 -142 167h19c1 -57 46 -87 123 -87c76 0 121 30 122 87z" />
    <glyph glyph-name="tilde" unicode="&#x2dc;" horiz-adv-x="556" 
d="M426 680c-4 -81 -39 -116 -94 -116c-44 0 -96 33 -139 33c-30 0 -51 -16 -53 -44l-20 3c4 80 39 116 95 116c46 0 99 -33 139 -33c29 0 51 17 52 44z" />
    <glyph glyph-name="macron" unicode="&#xaf;" horiz-adv-x="556" 
d="M405 623v-55h-291v55h291z" />
    <glyph glyph-name="dieresis" unicode="&#xa8;" horiz-adv-x="556" 
d="M170 550c-39 0 -64 25 -64 61c0 34 25 60 64 60c37 0 64 -26 64 -60c0 -36 -27 -61 -64 -61zM361 550c-40 0 -65 25 -65 61c0 34 25 60 65 60c37 0 63 -26 63 -60c0 -36 -26 -61 -63 -61z" />
    <glyph glyph-name="dotaccent" unicode="&#x2d9;" horiz-adv-x="556" 
d="M257 552c-45 0 -74 28 -74 68c0 38 29 66 74 66c43 0 74 -28 74 -66c0 -40 -31 -68 -74 -68z" />
    <glyph glyph-name="ring" unicode="&#x2da;" horiz-adv-x="556" 
d="M240 533c-76 0 -128 39 -128 98c0 60 52 99 128 100s128 -39 128 -100c0 -59 -52 -97 -128 -98zM240 552c39 0 65 29 65 79c0 52 -26 81 -65 81c-38 0 -64 -29 -64 -81c0 -50 26 -79 64 -79z" />
    <glyph glyph-name="cedilla" unicode="&#xb8;" horiz-adv-x="556" 
d="M253 -66c-16 0 -32 -8 -53 -31l-19 9l82 88h26l-44 -47c12 4 25 5 42 5c61 0 97 -32 97 -69c0 -52 -49 -85 -128 -85c-51 0 -79 20 -94 41l15 13c17 -20 39 -32 65 -32c37 0 53 20 53 56c0 41 -17 52 -42 52z" />
    <glyph glyph-name="ogonek" unicode="&#x2db;" horiz-adv-x="556" 
d="M242 -195c-66 0 -97 34 -97 74c0 36 18 55 77 83c46 32 90 50 132 57v-19c-50 -7 -88 -41 -88 -108c0 -35 11 -54 36 -54c15 0 31 6 48 15l5 -17c-20 -14 -54 -31 -113 -31z" />
    <glyph glyph-name="copyright" unicode="&#xa9;" horiz-adv-x="821" 
d="M410 -12c-200 0 -359 145 -359 357s159 357 359 357c201 0 359 -145 359 -357s-158 -357 -359 -357zM410 12c178 0 328 132 328 333s-150 333 -328 333c-177 0 -327 -132 -327 -333s150 -333 327 -333zM420 155c-88 0 -178 56 -178 193c0 136 90 191 177 191
c50 0 68 -20 91 -20c15 0 22 9 25 19h10v-127h-11c-16 69 -55 109 -100 109c-59 0 -96 -54 -96 -172s38 -173 96 -173c45 0 87 47 101 113h12l1 -131h-10c-4 11 -11 19 -26 19c-26 0 -43 -21 -92 -21z" />
    <glyph glyph-name="registered" unicode="&#xae;" horiz-adv-x="823" 
d="M412 -12c-201 0 -361 145 -361 357s160 357 361 357s359 -145 359 -357s-158 -357 -359 -357zM412 12c178 0 328 132 328 333s-150 333 -328 333s-329 -132 -329 -333s151 -333 329 -333zM568 448c0 -65 -44 -95 -152 -96h2c87 0 137 -24 139 -92c1 -47 8 -66 30 -66
c20 0 27 18 33 39l10 -2c-8 -42 -27 -68 -79 -68c-57 0 -78 28 -83 90c-4 66 -20 91 -68 91h-35v-157h55v-17h-193v17h50v337h-50v16h193c96 0 148 -25 148 -92zM402 524h-37v-163h33c55 0 79 25 79 85s-25 78 -75 78z" />
    <glyph glyph-name="trademark" unicode="&#x2122;" horiz-adv-x="839" 
d="M70 694h270l4 -128h-11c-10 60 -38 115 -84 115h-9v-283h51v-13h-172v13h51v283h-8c-47 0 -75 -55 -85 -115h-11zM757 681c-12 0 -20 -8 -20 -21v-262h36v-13h-143v13h37v266l-107 -284h-10l-117 279v-203c0 -40 16 -58 37 -58h11v-13h-113v13h11c19 0 36 18 36 58v194
c0 22 -6 31 -27 31h-16v13h122l85 -208l80 208h114v-13h-16z" />
    <glyph glyph-name="degree" unicode="&#xb0;" horiz-adv-x="423" 
d="M212 423c-64 0 -146 47 -146 141s82 142 146 142s145 -48 145 -142s-81 -141 -145 -141zM212 441c38 0 71 34 71 123c0 90 -33 123 -71 123s-72 -33 -72 -123c0 -89 34 -123 72 -123z" />
    <glyph glyph-name="uni2117" unicode="&#x2117;" horiz-adv-x="817" 
d="M408 702c201 0 357 -145 357 -357s-156 -357 -357 -357c-200 0 -357 145 -357 357s157 357 357 357zM408 13c178 0 327 131 327 332s-149 332 -327 332c-177 0 -326 -131 -326 -332s149 -332 326 -332zM441 530c91 0 144 -35 144 -110s-53 -118 -142 -118h-57v-133h62
v-15h-198v15h50v347h-50v14h191zM426 317c47 0 69 25 69 102c0 76 -22 97 -69 97h-40v-199h40z" />
    <glyph glyph-name="uni261C" unicode="&#x261c;" horiz-adv-x="1569" 
d="M1063 621c-88 54 -191 95 -406 95s-453 -13 -617 -95c-6 -3 -20 -23 -20 -48c0 -51 44 -94 146 -94c71 0 87 9 97 16c10 -4 31 -6 42 -6c-1 -5 -2 -15 -2 -24c0 -27 38 -78 118 -78c-2 -17 6 -39 30 -50c-6 -6 -12 -17 -12 -48c0 -44 38 -83 61 -93c-3 -4 -5 -16 -5 -28
c0 -66 68 -121 167 -121c89 0 96 -13 204 -13c78 0 149 44 172 65c38 -18 421 -201 478 -229l3 4l-146 238l120 90v4l-148 121l151 151v3l-136 89l150 259l-3 3zM1186 377c0 127 -51 186 -83 217l301 140l-111 -183l124 -78l-147 -148l146 -116l-112 -87l100 -151l-330 157
c30 28 112 122 112 249zM610 670c-83 -25 -216 -101 -227 -117c-21 -11 -29 -13 -52 -26c-38 -4 -55 8 -74 8s-21 -19 -90 -19s-114 27 -114 51c0 15 2 28 11 31c170 63 344 75 443 75c61 0 69 -1 103 -3zM1136 434c0 -45 -31 -106 -134 -106s-237 73 -300 181
c-7 12 -25 29 -33 29s-12 -6 -12 -15c0 -6 13 -15 5 -19s-46 -29 -76 -29s-50 7 -57 7s16 -14 10 -14s-89 -43 -121 -43c-39 0 -81 17 -81 49c0 27 44 52 59 52s36 -5 36 -29c0 -4 1 -8 5 -8c6 0 12 10 12 32s-6 26 -14 29c15 19 147 77 177 88s99 34 168 34
c141 0 356 -111 356 -238zM467 379c0 8 2 14 3 16c20 6 64 28 78 37c29 0 67 -40 81 -40s17 7 64 7s83 -38 83 -58s-13 -38 -38 -38c-52 0 -74 24 -79 24s-5 -20 -38 -20c-11 0 -60 3 -78 9s-76 52 -76 63zM1144 345c-32 -185 -182 -256 -236 -256c-46 0 -58 24 -58 35
c0 48 85 68 131 77s30 13 4 20c-78 20 -155 88 -174 113s-8 24 11 10s89 -57 177 -57c73 0 116 26 145 58zM482 292c0 8 6 14 14 14c30 -33 101 -44 164 -44c18 0 37 11 59 11s68 -9 68 -39c0 -36 -28 -43 -62 -43s-45 13 -51 13s-6 -12 -13 -12s-43 -1 -69 4s-52 18 -80 40
s-30 48 -30 56zM544 186c40 -22 126 -33 152 -33s60 6 81 6s45 -18 45 -40s-19 -34 -47 -34s-51 16 -57 16s-7 -19 -37 -19c-13 0 -58 4 -92 20s-52 48 -52 75c0 6 3 9 7 9z" />
    <glyph glyph-name="uni261E" unicode="&#x261e;" horiz-adv-x="1569" 
d="M506 621c88 54 191 95 406 95s453 -13 617 -95c6 -3 20 -23 20 -48c0 -51 -44 -94 -146 -94c-71 0 -87 9 -97 16c-10 -4 -31 -6 -42 -6c1 -5 2 -15 2 -24c0 -27 -38 -78 -118 -78c2 -17 -6 -39 -30 -50c6 -6 12 -17 12 -48c0 -44 -38 -83 -61 -93c3 -4 5 -16 5 -28
c0 -66 -68 -121 -167 -121c-89 0 -96 -13 -204 -13c-78 0 -149 44 -172 65c-38 -18 -421 -201 -478 -229l-3 4l146 238l-120 90v4l148 121l-151 151v3l136 89l-150 259l3 3zM383 377c0 127 51 186 83 217l-301 140l111 -183l-124 -78l147 -148l-146 -116l112 -87l-100 -151
l330 157c-30 28 -112 122 -112 249zM959 670c83 -25 216 -101 227 -117c21 -11 29 -13 52 -26c38 -4 55 8 74 8s21 -19 90 -19s114 27 114 51c0 15 -2 28 -11 31c-170 63 -344 75 -443 75c-61 0 -69 -1 -103 -3zM433 434c0 -45 31 -106 134 -106s237 73 300 181
c7 12 25 29 33 29s12 -6 12 -15c0 -6 -13 -15 -5 -19s46 -29 76 -29s50 7 57 7s-16 -14 -10 -14s89 -43 121 -43c39 0 81 17 81 49c0 27 -44 52 -59 52s-36 -5 -36 -29c0 -4 -1 -8 -5 -8c-6 0 -12 10 -12 32s6 26 14 29c-15 19 -147 77 -177 88s-99 34 -168 34
c-141 0 -356 -111 -356 -238zM1102 379c0 8 -2 14 -3 16c-20 6 -64 28 -78 37c-29 0 -67 -40 -81 -40s-17 7 -64 7s-83 -38 -83 -58s13 -38 38 -38c52 0 74 24 79 24s5 -20 38 -20c11 0 60 3 78 9s76 52 76 63zM425 345c32 -185 182 -256 236 -256c46 0 58 24 58 35
c0 48 -85 68 -131 77s-30 13 -4 20c78 20 155 88 174 113s8 24 -11 10s-89 -57 -177 -57c-73 0 -116 26 -145 58zM1087 292c0 8 -6 14 -14 14c-30 -33 -101 -44 -164 -44c-18 0 -37 11 -59 11s-68 -9 -68 -39c0 -36 28 -43 62 -43s45 13 51 13s6 -12 13 -12s43 -1 69 4
s52 18 80 40s30 48 30 56zM1025 186c-40 -22 -126 -33 -152 -33s-60 6 -81 6s-45 -18 -45 -40s19 -34 47 -34s51 16 57 16s7 -19 37 -19c13 0 58 4 92 20s52 48 52 75c0 6 -3 9 -7 9z" />
    <glyph glyph-name="uniE000" unicode="&#xe000;" horiz-adv-x="1286" 
d="M969 210v13c0 39 44 67 88 67c60 0 100 -38 100 -105c0 -91 -83 -154 -223 -154c-40 0 -77 4 -116 13c-88 -116 -184 -168 -284 -168c-94 0 -164 54 -164 143c0 57 50 111 102 111c17 0 26 -4 37 -13c10 -2 25 -18 25 -30v-11c-3 -23 -27 -49 -51 -49
c-31 0 -43 26 -43 49c0 8 2 16 7 23c-24 -5 -46 -40 -46 -83c0 -59 41 -106 115 -106c78 0 121 47 184 168c-122 48 -232 111 -338 151c-65 -88 -140 -126 -225 -126c-81 0 -107 35 -107 76c0 44 57 125 236 125h23c25 53 47 108 71 184l2 3c-137 22 -168 98 -168 152
c0 76 70 130 150 130c35 0 59 -21 59 -52v-2c-2 -30 -28 -54 -51 -54c-28 0 -48 24 -45 54c0 11 9 23 17 33c-43 0 -106 -47 -106 -109c0 -83 79 -117 152 -133c88 232 224 344 323 344c46 0 77 -34 77 -105c0 -121 -119 -231 -263 -258c-35 -79 -67 -149 -99 -201
c129 -28 233 -80 329 -134c13 38 28 73 50 113c27 67 58 116 89 158c-41 13 -89 25 -153 25c-99 0 -160 -40 -160 -105c0 -43 42 -71 88 -71c60 0 99 42 88 89h-2c0 -6 -9 -20 -17 -23c-20 -20 -51 -16 -67 0c-16 21 -16 46 6 63c10 7 23 9 34 9c37 0 65 -23 65 -57
c0 -71 -61 -101 -107 -101c-60 0 -114 34 -114 107c0 85 97 165 240 165c65 0 114 -10 165 -26c77 73 137 96 137 96l5 -12c-25 -17 -44 -53 -65 -98c11 -5 34 -5 55 -5c83 0 155 30 155 94c0 86 -91 142 -208 142c-70 0 -117 -18 -145 -56h6c22 0 43 -16 43 -39
c0 -38 -26 -55 -53 -55s-46 20 -43 46c0 56 80 123 192 123c146 0 235 -73 235 -169c0 -86 -81 -175 -226 -175c-17 0 -32 0 -52 5c-27 -67 -53 -147 -87 -218c-9 -28 -26 -55 -38 -78c46 -19 96 -35 139 -35c82 0 142 62 142 117c0 67 -55 97 -104 82c16 -8 23 -20 27 -35
c10 -28 -4 -53 -36 -58c-26 -10 -47 7 -52 36zM512 513c122 28 236 125 236 248c0 57 -25 69 -40 69c-39 0 -97 -53 -196 -317zM269 259c-21 3 -39 3 -59 3c-85 0 -160 -39 -160 -83c0 -33 24 -53 70 -53c63 0 105 38 149 133z" />
    <glyph glyph-name="uniF6C3" unicode="&#xf6c3;" horiz-adv-x="1286" 
d="M969 210v13c0 39 44 67 88 67c60 0 100 -38 100 -105c0 -91 -83 -154 -223 -154c-40 0 -77 4 -116 13c-88 -116 -184 -168 -284 -168c-94 0 -164 54 -164 143c0 57 50 111 102 111c17 0 26 -4 37 -13c10 -2 25 -18 25 -30v-11c-3 -23 -27 -49 -51 -49
c-31 0 -43 26 -43 49c0 8 2 16 7 23c-24 -5 -46 -40 -46 -83c0 -59 41 -106 115 -106c78 0 121 47 184 168c-122 48 -232 111 -338 151c-65 -88 -140 -126 -225 -126c-81 0 -107 35 -107 76c0 44 57 125 236 125h23c25 53 47 108 71 184l2 3c-137 22 -168 98 -168 152
c0 76 70 130 150 130c35 0 59 -21 59 -52v-2c-2 -30 -28 -54 -51 -54c-28 0 -48 24 -45 54c0 11 9 23 17 33c-43 0 -106 -47 -106 -109c0 -83 79 -117 152 -133c88 232 224 344 323 344c46 0 77 -34 77 -105c0 -121 -119 -231 -263 -258c-35 -79 -67 -149 -99 -201
c129 -28 233 -80 329 -134c13 38 28 73 50 113c27 67 58 116 89 158c-41 13 -89 25 -153 25c-99 0 -160 -40 -160 -105c0 -43 42 -71 88 -71c60 0 99 42 88 89h-2c0 -6 -9 -20 -17 -23c-20 -20 -51 -16 -67 0c-16 21 -16 46 6 63c10 7 23 9 34 9c37 0 65 -23 65 -57
c0 -71 -61 -101 -107 -101c-60 0 -114 34 -114 107c0 85 97 165 240 165c65 0 114 -10 165 -26c77 73 137 96 137 96l5 -12c-25 -17 -44 -53 -65 -98c11 -5 34 -5 55 -5c83 0 155 30 155 94c0 86 -91 142 -208 142c-70 0 -117 -18 -145 -56h6c22 0 43 -16 43 -39
c0 -38 -26 -55 -53 -55s-46 20 -43 46c0 56 80 123 192 123c146 0 235 -73 235 -169c0 -86 -81 -175 -226 -175c-17 0 -32 0 -52 5c-27 -67 -53 -147 -87 -218c-9 -28 -26 -55 -38 -78c46 -19 96 -35 139 -35c82 0 142 62 142 117c0 67 -55 97 -104 82c16 -8 23 -20 27 -35
c10 -28 -4 -53 -36 -58c-26 -10 -47 7 -52 36zM512 513c122 28 236 125 236 248c0 57 -25 69 -40 69c-39 0 -97 -53 -196 -317zM269 259c-21 3 -39 3 -59 3c-85 0 -160 -39 -160 -83c0 -33 24 -53 70 -53c63 0 105 38 149 133z" />
    <glyph glyph-name="uniF8FF" unicode="&#xf8ff;" horiz-adv-x="1286" 
d="M969 210v13c0 39 44 67 88 67c60 0 100 -38 100 -105c0 -91 -83 -154 -223 -154c-40 0 -77 4 -116 13c-88 -116 -184 -168 -284 -168c-94 0 -164 54 -164 143c0 57 50 111 102 111c17 0 26 -4 37 -13c10 -2 25 -18 25 -30v-11c-3 -23 -27 -49 -51 -49
c-31 0 -43 26 -43 49c0 8 2 16 7 23c-24 -5 -46 -40 -46 -83c0 -59 41 -106 115 -106c78 0 121 47 184 168c-122 48 -232 111 -338 151c-65 -88 -140 -126 -225 -126c-81 0 -107 35 -107 76c0 44 57 125 236 125h23c25 53 47 108 71 184l2 3c-137 22 -168 98 -168 152
c0 76 70 130 150 130c35 0 59 -21 59 -52v-2c-2 -30 -28 -54 -51 -54c-28 0 -48 24 -45 54c0 11 9 23 17 33c-43 0 -106 -47 -106 -109c0 -83 79 -117 152 -133c88 232 224 344 323 344c46 0 77 -34 77 -105c0 -121 -119 -231 -263 -258c-35 -79 -67 -149 -99 -201
c129 -28 233 -80 329 -134c13 38 28 73 50 113c27 67 58 116 89 158c-41 13 -89 25 -153 25c-99 0 -160 -40 -160 -105c0 -43 42 -71 88 -71c60 0 99 42 88 89h-2c0 -6 -9 -20 -17 -23c-20 -20 -51 -16 -67 0c-16 21 -16 46 6 63c10 7 23 9 34 9c37 0 65 -23 65 -57
c0 -71 -61 -101 -107 -101c-60 0 -114 34 -114 107c0 85 97 165 240 165c65 0 114 -10 165 -26c77 73 137 96 137 96l5 -12c-25 -17 -44 -53 -65 -98c11 -5 34 -5 55 -5c83 0 155 30 155 94c0 86 -91 142 -208 142c-70 0 -117 -18 -145 -56h6c22 0 43 -16 43 -39
c0 -38 -26 -55 -53 -55s-46 20 -43 46c0 56 80 123 192 123c146 0 235 -73 235 -169c0 -86 -81 -175 -226 -175c-17 0 -32 0 -52 5c-27 -67 -53 -147 -87 -218c-9 -28 -26 -55 -38 -78c46 -19 96 -35 139 -35c82 0 142 62 142 117c0 67 -55 97 -104 82c16 -8 23 -20 27 -35
c10 -28 -4 -53 -36 -58c-26 -10 -47 7 -52 36zM512 513c122 28 236 125 236 248c0 57 -25 69 -40 69c-39 0 -97 -53 -196 -317zM269 259c-21 3 -39 3 -59 3c-85 0 -160 -39 -160 -83c0 -33 24 -53 70 -53c63 0 105 38 149 133z" />
    <glyph glyph-name="arrowboth" horiz-adv-x="1103" 
d="M787 50c-11 -36 -28 -63 -67 -63c-38 0 -59 25 -59 63c0 78 130 201 305 257c-217 -10 -310 -78 -414 -78s-187 68 -415 78c176 -56 305 -180 305 -257c0 -38 -22 -63 -60 -63s-56 27 -66 63c-41 129 -141 252 -250 252v22c109 0 209 127 249 253c11 37 29 62 67 62
s60 -24 60 -62c0 -78 -131 -200 -306 -257c229 12 312 83 416 83c105 0 196 -72 414 -83c-176 57 -305 179 -305 257c0 38 21 62 59 62c39 0 56 -25 68 -62c39 -126 140 -253 249 -253v-22c-109 0 -210 -123 -250 -252z" />
    <glyph glyph-name="arrowupdn" horiz-adv-x="784" 
d="M655 520c36 -11 63 -28 63 -67c0 -38 -25 -59 -63 -59c-78 0 -201 130 -257 305c10 -217 78 -310 78 -414s-68 -187 -78 -415c56 176 180 305 257 305c38 0 63 -22 63 -60s-27 -56 -63 -66c-129 -41 -252 -141 -252 -250h-22c0 109 -127 209 -253 249
c-37 11 -62 29 -62 67s24 60 62 60c78 0 200 -131 257 -306c-12 229 -83 312 -83 416c0 105 72 196 83 414c-57 -176 -179 -305 -257 -305c-38 0 -62 21 -62 59c0 39 25 56 62 68c126 39 253 140 253 249h22c0 -109 123 -210 252 -250z" />
    <glyph glyph-name="f_f" unicode="&#xfb00;" horiz-adv-x="665" 
d="M591 731c93 0 132 -41 132 -98c0 -43 -27 -64 -61 -64c-37 0 -58 23 -58 54c0 34 25 53 56 53c13 0 24 -4 32 -10c-13 27 -40 42 -77 42c-50 0 -80 -29 -80 -97v-135h110v-22h-110v-434h83v-20h-273v20h67v434h-201v-434h79v-20h-269v20h68v434h-81v22h81v79
c0 130 87 176 180 176s123 -42 123 -96c0 -41 -26 -61 -57 -61c-34 0 -52 21 -52 50c0 30 22 48 50 48c13 0 24 -4 33 -11c-9 29 -32 47 -73 47c-50 0 -82 -29 -82 -97v-135h201v80c0 130 86 175 179 175z" />
    <glyph glyph-name="f_f_i" unicode="&#xfb03;" horiz-adv-x="897" 
d="M808 20h67v-20h-248v20h59v434h-172v-434h58v-20h-241v20h60v434h-180v-434h70v-20h-260v20h68v434h-81v22h81v87c0 131 91 177 184 177s130 -43 130 -99c0 -43 -27 -64 -61 -64c-36 0 -57 24 -57 55c0 33 25 52 56 52c12 0 23 -3 31 -9c-13 26 -39 42 -75 42
c-51 0 -86 -31 -86 -104v-137h180v32c0 171 124 234 246 234c115 0 164 -57 164 -115c0 -45 -27 -72 -68 -72c-37 0 -63 23 -63 60s26 59 59 59c17 0 31 -7 41 -17c-17 39 -59 58 -113 58c-83 0 -142 -48 -143 -173v-66h294v-456z" />
    <glyph glyph-name="f_i" horiz-adv-x="594" 
d="M506 20h67v-20h-249v20h60v286h-172v-137h131v-21h-131v-148h-123v148h-70v21h70v137h-74v21h74v182c0 173 125 235 244 235c113 0 166 -57 166 -118c0 -44 -27 -71 -68 -71c-37 0 -63 23 -63 60s26 59 59 59c17 0 32 -6 42 -16c-16 35 -56 60 -115 60
c-81 0 -142 -54 -142 -181v-210h172v149h122v-456z" />
    <glyph glyph-name="ampersand.alt" horiz-adv-x="776" 
d="M760 449c0 -79 -40 -156 -146 -156c-29 0 -58 5 -82 11c47 -17 103 -53 103 -128c0 -104 -102 -189 -268 -189c-167 0 -320 68 -320 235c0 151 137 219 260 231c-88 9 -147 46 -147 122c0 89 86 131 187 131c106 0 163 -48 163 -116c0 -47 -27 -68 -62 -68
c-37 0 -57 24 -57 54c0 31 22 50 55 50c16 0 30 -5 39 -15c-12 44 -50 68 -101 68c-64 0 -103 -43 -103 -106c0 -68 47 -111 109 -111h16v-22h-17c-119 0 -207 -78 -207 -221c0 -140 85 -210 190 -210s178 63 178 169c0 101 -69 139 -133 139c-57 0 -112 -31 -112 -99
c0 -57 40 -84 84 -84c30 0 50 13 60 34c-9 -9 -22 -14 -37 -14c-29 0 -54 19 -54 52c0 29 21 53 55 53c33 0 59 -22 59 -63c0 -45 -32 -80 -84 -80s-110 32 -110 116c0 86 60 168 187 168c65 0 110 -20 162 -20c64 0 104 28 104 83c0 49 -32 83 -82 83
c-29 0 -51 -11 -65 -27c9 6 19 9 30 9c26 0 51 -17 51 -49c0 -29 -22 -50 -54 -50c-31 0 -56 19 -56 56c0 38 31 78 93 78c69 0 112 -47 112 -114z" />
    <glyph glyph-name="zero.osf" horiz-adv-x="655" 
d="M328 -12c-135 0 -280 118 -280 299c0 182 145 300 280 300s280 -117 280 -300c0 -181 -146 -299 -280 -299zM328 8c91 0 137 104 137 279c0 176 -45 279 -137 279c-93 0 -137 -103 -137 -279c0 -175 44 -279 137 -279z" />
    <glyph glyph-name="one.osf" horiz-adv-x="394" 
d="M261 21h88v-21h-301v21h87v486c-24 -19 -56 -36 -98 -44l-4 18c62 16 108 54 150 96h78v-556z" />
    <glyph glyph-name="two.osf" horiz-adv-x="524" 
d="M472 179h16c0 -92 -23 -190 -132 -190c-103 0 -137 91 -211 91c-46 0 -78 -34 -91 -80h-22c0 287 290 251 290 437c0 77 -48 120 -121 120c-68 0 -122 -40 -137 -100c11 18 30 29 53 29c37 0 65 -26 65 -62c0 -34 -26 -63 -69 -63c-42 0 -71 27 -71 78
c0 78 75 148 204 148c114 0 214 -48 214 -155c0 -226 -364 -141 -404 -384c28 61 81 95 149 95c75 0 117 -38 184 -38c50 0 83 20 83 74z" />
    <glyph glyph-name="three.osf" horiz-adv-x="550" 
d="M299 238c109 -9 206 -54 206 -174c0 -132 -113 -195 -254 -195s-214 69 -214 152c0 52 28 85 74 85c42 0 68 -28 68 -63c0 -37 -27 -64 -65 -64c-22 0 -42 10 -53 28c11 -65 73 -105 151 -105c94 0 147 56 147 162c0 111 -62 161 -169 161h-32v25h32
c100 0 153 70 153 169c0 97 -51 138 -124 138c-67 0 -125 -35 -138 -106c10 18 31 26 51 26c37 0 63 -25 63 -61c0 -34 -23 -63 -67 -63c-42 0 -72 26 -72 82c0 88 76 152 208 152c114 0 215 -49 215 -164c0 -99 -75 -167 -180 -185z" />
    <glyph glyph-name="four.osf" horiz-adv-x="543" 
d="M516 113h-106v-218h95v-21h-321v21h99v218h-276v26l309 451h94v-454h106v-23zM36 136h247v358z" />
    <glyph glyph-name="five.osf" horiz-adv-x="537" 
d="M288 334c104 0 215 -56 215 -218c0 -160 -105 -244 -254 -244c-139 0 -215 73 -215 158c0 56 33 88 77 88c39 0 69 -25 69 -67s-30 -70 -69 -70c-18 0 -34 7 -47 18c16 -51 67 -93 142 -93c94 0 151 70 151 202c0 125 -51 186 -128 186c-61 0 -107 -38 -133 -85l-21 2
l27 372c57 -11 128 -16 184 -16c67 0 136 7 185 20c-2 -88 -55 -124 -167 -124c-57 0 -140 9 -184 20l-18 -235c34 46 95 86 186 86z" />
    <glyph glyph-name="six.osf" horiz-adv-x="595" 
d="M356 421c99 0 204 -61 204 -204c0 -149 -116 -229 -249 -229c-128 0 -263 76 -263 334c0 251 138 384 297 384c100 0 176 -48 176 -132c0 -51 -31 -80 -77 -80c-44 0 -68 28 -68 64c0 40 29 64 65 64c20 0 39 -7 50 -19c-17 54 -79 78 -140 78
c-120 0 -161 -103 -166 -363c29 70 94 103 171 103zM311 12c81 0 113 76 113 190c0 116 -36 181 -110 181c-65 0 -125 -51 -128 -165c8 -145 54 -206 125 -206z" />
    <glyph glyph-name="seven.osf" horiz-adv-x="467" 
d="M467 577v-18c-140 -195 -220 -390 -226 -676h-136c7 278 183 468 278 591h-316v-91h-27v194h427z" />
    <glyph glyph-name="eight.osf" horiz-adv-x="561" 
d="M342 402c89 -55 181 -113 181 -222c0 -106 -81 -192 -243 -192c-130 0 -241 58 -241 170c0 90 66 146 174 180c-74 49 -140 106 -140 200c0 102 86 168 208 168c114 0 205 -48 205 -145c0 -80 -68 -135 -144 -159zM282 682c-70 0 -99 -53 -99 -102
c0 -74 65 -120 138 -165c35 33 63 82 63 143c0 82 -40 124 -102 124zM282 11c84 0 124 57 124 119c0 88 -88 138 -173 194c-49 -37 -78 -91 -78 -164c0 -103 48 -149 127 -149z" />
    <glyph glyph-name="nine.osf" horiz-adv-x="595" 
d="M284 587c128 0 264 -76 264 -334c0 -251 -138 -383 -298 -383c-100 0 -176 48 -176 132c0 51 31 79 77 79c44 0 68 -28 68 -64c0 -39 -29 -63 -65 -63c-20 0 -39 8 -50 19c17 -55 79 -79 140 -79c120 0 161 104 166 364c-29 -70 -94 -104 -171 -104
c-99 0 -204 62 -204 204c0 150 116 229 249 229zM281 193c63 0 122 47 128 152c-5 154 -52 219 -125 219c-81 0 -113 -76 -113 -191c0 -116 36 -180 110 -180z" />
    <glyph glyph-name="zero.sub" horiz-adv-x="369" 
d="M185 -135c-71 0 -157 62 -157 180s86 180 157 180c72 0 156 -62 156 -180s-85 -180 -156 -180zM185 -121c48 0 69 52 69 166s-21 166 -69 166s-69 -52 -69 -166s21 -166 69 -166z" />
    <glyph glyph-name="one.sub" horiz-adv-x="225" 
d="M152 -116h44v-13h-165v13h44v299c-12 -10 -29 -19 -51 -23l-3 12c32 9 58 29 80 51h51v-339z" />
    <glyph glyph-name="two.sub" horiz-adv-x="301" 
d="M270 -21h13c0 -56 -17 -114 -80 -114c-60 0 -75 53 -118 53c-25 0 -43 -19 -49 -47h-15c0 175 158 159 158 267c0 46 -29 65 -68 65c-36 0 -64 -17 -73 -48c7 7 17 11 29 11c22 0 38 -14 38 -36c0 -23 -16 -37 -41 -37c-26 0 -43 17 -43 47c0 47 42 85 122 85
c62 0 123 -22 123 -91c0 -133 -203 -79 -229 -228c16 35 44 53 84 53c42 0 64 -21 102 -21c28 0 47 11 47 41z" />
    <glyph glyph-name="three.sub" horiz-adv-x="304" 
d="M166 49c62 -4 111 -26 111 -86c0 -68 -62 -98 -138 -98c-78 0 -117 34 -117 78c0 28 16 45 42 45c23 0 39 -14 39 -34s-16 -35 -37 -35c-11 0 -20 4 -26 12c8 -28 36 -45 72 -45c49 0 76 25 76 77s-30 78 -85 78h-16v16h16c51 0 78 33 78 82s-28 66 -65 66
c-33 0 -59 -14 -67 -44c6 6 16 9 26 9c20 0 36 -13 36 -33s-15 -35 -38 -35c-24 0 -42 14 -42 44c0 46 41 79 116 79c62 0 118 -24 118 -83c0 -50 -39 -84 -99 -93z" />
    <glyph glyph-name="four.sub" horiz-adv-x="299" 
d="M279 -10h-52v-106h49v-13h-178v13h52v106h-144v13l161 227h60v-225h52v-15zM27 5h123v172z" />
    <glyph glyph-name="five.sub" horiz-adv-x="296" 
d="M160 97c55 0 115 -27 115 -110c0 -81 -57 -122 -137 -122c-76 0 -117 36 -117 83c0 31 18 47 42 47c23 0 40 -14 40 -36s-17 -37 -39 -37c-8 0 -16 2 -22 6c9 -24 33 -41 67 -41c47 0 77 29 77 96c0 61 -26 90 -65 90c-30 0 -49 -16 -63 -38l-14 1l14 186
c31 -5 68 -8 98 -8c34 0 74 4 102 10c-1 -50 -29 -70 -94 -70c-30 0 -71 4 -94 9l-9 -106c19 23 52 40 99 40z" />
    <glyph glyph-name="six.sub" horiz-adv-x="326" 
d="M201 81c51 0 106 -27 106 -101c0 -76 -63 -115 -136 -115c-68 0 -143 35 -143 168c0 130 79 192 163 192c56 0 94 -25 94 -68c0 -27 -16 -43 -42 -43c-25 0 -39 15 -39 35c0 22 16 34 37 34c10 0 19 -3 25 -8c-9 23 -37 35 -69 35c-60 0 -82 -45 -85 -174
c16 30 49 45 89 45zM171 -121c38 0 55 33 55 93c0 57 -17 85 -53 85c-31 0 -59 -21 -62 -75c2 -72 24 -103 60 -103z" />
    <glyph glyph-name="seven.sub" horiz-adv-x="255" 
d="M256 219v-7c-70 -100 -115 -203 -118 -341h-80c3 133 103 233 148 287h-166v-42h-15v103h231z" />
    <glyph glyph-name="eight.sub" horiz-adv-x="307" 
d="M190 75c47 -27 96 -56 96 -112c0 -54 -44 -98 -132 -98c-74 0 -132 28 -132 85c0 45 33 70 92 86c-39 25 -74 54 -74 102c0 54 46 87 114 87c61 0 112 -24 112 -73c0 -40 -35 -66 -76 -77zM155 210c-34 0 -49 -22 -49 -46c0 -37 33 -59 70 -81c16 16 29 39 29 68
c0 43 -20 59 -50 59zM154 -121c41 0 60 25 60 54c0 43 -44 67 -88 95c-22 -17 -35 -41 -35 -76c0 -53 25 -73 63 -73z" />
    <glyph glyph-name="nine.sub" horiz-adv-x="326" 
d="M155 225c68 0 143 -35 143 -168c0 -130 -79 -192 -163 -192c-56 0 -94 24 -94 68c0 27 16 43 42 43c25 0 39 -15 39 -35c0 -22 -16 -34 -37 -34c-10 0 -19 3 -25 7c9 -22 37 -34 69 -34c60 0 82 45 85 174c-16 -30 -49 -45 -89 -45c-51 0 -106 27 -106 101
c0 76 63 115 136 115zM153 33c31 0 59 21 62 74c-2 73 -24 104 -60 104c-39 0 -55 -33 -55 -93c0 -58 17 -85 53 -85z" />
    <glyph glyph-name="zero.sup" horiz-adv-x="369" 
d="M185 426c-71 0 -157 62 -157 180c0 117 86 180 157 180c72 0 156 -62 156 -180s-85 -180 -156 -180zM185 440c48 0 69 51 69 166c0 114 -21 166 -69 166s-69 -52 -69 -166c0 -115 21 -166 69 -166z" />
    <glyph glyph-name="one.sup" horiz-adv-x="225" 
d="M152 445h44v-13h-165v13h44v298c-12 -10 -29 -19 -51 -23l-3 12c32 9 58 29 80 52h51v-339z" />
    <glyph glyph-name="two.sup" horiz-adv-x="301" 
d="M268 540h13c0 -56 -17 -114 -80 -114c-60 0 -75 53 -118 53c-25 0 -42 -19 -49 -47h-15c0 175 158 159 158 267c0 46 -29 65 -67 65c-36 0 -63 -17 -73 -48c7 7 17 11 28 11c22 0 39 -14 39 -36c0 -23 -17 -37 -42 -37c-26 0 -43 16 -43 46c0 48 42 86 122 86
c62 0 123 -22 123 -91c0 -133 -202 -79 -229 -228c16 34 44 52 85 52s63 -20 102 -20c27 0 46 11 46 41z" />
    <glyph glyph-name="three.sup" horiz-adv-x="304" 
d="M166 610c62 -4 111 -26 111 -86c0 -68 -62 -98 -138 -98c-78 0 -117 34 -117 78c0 28 16 45 42 45c23 0 39 -14 39 -34s-16 -35 -37 -35c-11 0 -20 4 -26 11c8 -28 36 -44 72 -44c49 0 76 25 76 77s-30 78 -85 78h-16v15h16c51 0 78 34 78 83s-28 66 -65 66
c-33 0 -59 -14 -67 -44c6 6 16 9 26 9c20 0 36 -13 36 -34c0 -19 -15 -34 -38 -34c-24 0 -42 14 -42 44c0 46 41 79 116 79c62 0 118 -24 118 -83c0 -50 -39 -84 -99 -93z" />
    <glyph glyph-name="four.sup" horiz-adv-x="299" 
d="M279 551h-52v-106h49v-13h-178v13h52v106h-144v13l161 226h60v-224h52v-15zM27 566h123v172z" />
    <glyph glyph-name="five.sup" horiz-adv-x="296" 
d="M160 658c55 0 115 -27 115 -110c0 -81 -57 -122 -137 -122c-76 0 -117 36 -117 82c0 32 18 48 42 48c23 0 40 -14 40 -36s-17 -37 -39 -37c-8 0 -16 2 -22 6c9 -24 33 -41 67 -41c47 0 77 29 77 96c0 61 -26 90 -65 90c-30 0 -49 -16 -63 -38l-14 1l14 186
c31 -5 68 -8 98 -8c34 0 74 4 102 10c-1 -50 -29 -70 -94 -70c-30 0 -71 4 -94 9l-9 -106c19 22 52 40 99 40z" />
    <glyph glyph-name="six.sup" horiz-adv-x="326" 
d="M201 642c51 0 106 -27 106 -101c0 -77 -63 -115 -136 -115c-68 0 -143 35 -143 168c0 130 79 192 163 192c56 0 94 -25 94 -68c0 -27 -16 -43 -42 -43c-25 0 -39 15 -39 35c0 22 16 34 37 34c10 0 19 -3 25 -8c-9 23 -37 35 -69 35c-60 0 -82 -45 -85 -174
c16 30 49 45 89 45zM171 440c38 0 55 33 55 93c0 57 -17 85 -53 85c-31 0 -59 -21 -62 -75c2 -72 24 -103 60 -103z" />
    <glyph glyph-name="seven.sup" horiz-adv-x="255" 
d="M256 780v-7c-70 -100 -115 -204 -118 -341h-80c3 133 103 233 148 287h-166v-43h-15v104h231z" />
    <glyph glyph-name="eight.sup" horiz-adv-x="307" 
d="M190 636c47 -27 96 -56 96 -112c0 -54 -44 -98 -132 -98c-74 0 -132 28 -132 85c0 45 34 70 93 85c-39 25 -75 54 -75 103c0 54 46 87 114 87c61 0 112 -24 112 -73c0 -40 -35 -66 -76 -77zM155 771c-34 0 -49 -22 -49 -46c0 -37 33 -59 70 -81c16 16 29 39 29 68
c0 42 -20 59 -50 59zM154 440c41 0 60 24 60 54c0 43 -44 67 -88 95c-22 -18 -35 -42 -35 -76c0 -54 25 -73 63 -73z" />
    <glyph glyph-name="nine.sup" horiz-adv-x="326" 
d="M155 786c68 0 143 -35 143 -168c0 -131 -79 -192 -163 -192c-56 0 -94 24 -94 68c0 27 16 43 42 43c25 0 39 -16 39 -35c0 -22 -16 -35 -37 -35c-10 0 -19 3 -24 8c9 -22 36 -34 68 -34c60 0 82 45 85 174c-16 -30 -49 -45 -89 -45c-51 0 -106 27 -106 101
c0 76 63 115 136 115zM153 594c31 0 59 21 62 74c-2 73 -24 104 -60 104c-39 0 -55 -33 -55 -93c0 -58 17 -85 53 -85z" />
    <glyph glyph-name="zero.dnom" horiz-adv-x="369" 
d="M185 -12c-71 0 -157 62 -157 180s86 180 157 180c72 0 156 -62 156 -180s-85 -180 -156 -180zM185 2c48 0 69 52 69 166s-21 166 -69 166s-69 -52 -69 -166s21 -166 69 -166z" />
    <glyph glyph-name="one.dnom" horiz-adv-x="249" 
d="M164 7h44v-13h-165v13h44v299c-12 -10 -29 -19 -51 -23l-2 12c32 9 57 29 80 52h50v-340z" />
    <glyph glyph-name="two.dnom" horiz-adv-x="301" 
d="M270 103h13c0 -57 -17 -115 -80 -115c-60 0 -75 53 -118 53c-25 0 -43 -19 -49 -47h-15c0 175 158 159 158 267c0 46 -29 65 -68 65c-36 0 -64 -17 -73 -48c7 7 17 11 29 11c22 0 38 -14 38 -36c0 -23 -16 -37 -41 -37c-26 0 -43 17 -43 47c0 47 42 85 122 85
c62 0 123 -22 123 -91c0 -133 -203 -79 -229 -228c16 35 44 53 84 53c42 0 64 -20 102 -20c28 0 47 10 47 41z" />
    <glyph glyph-name="three.dnom" horiz-adv-x="304" 
d="M166 172c62 -4 111 -26 111 -86c0 -68 -62 -98 -138 -98c-78 0 -117 34 -117 78c0 28 16 46 42 46c23 0 39 -15 39 -35s-16 -35 -37 -35c-11 0 -20 4 -26 11c8 -28 36 -44 72 -44c49 0 76 26 76 78s-30 77 -85 77h-16v16h16c51 0 78 33 78 82c0 50 -28 67 -65 67
c-33 0 -59 -15 -67 -45c6 6 16 9 26 9c20 0 36 -13 36 -33s-15 -35 -38 -35c-24 0 -42 14 -42 44c0 46 41 79 116 79c62 0 118 -24 118 -83c0 -50 -39 -84 -99 -93z" />
    <glyph glyph-name="four.dnom" horiz-adv-x="299" 
d="M279 113h-52v-106h49v-13h-178v13h52v106h-144v13l161 227h60v-225h52v-15zM27 128h123v172z" />
    <glyph glyph-name="five.dnom" horiz-adv-x="296" 
d="M160 220c55 0 115 -27 115 -109s-57 -123 -137 -123c-76 0 -117 36 -117 83c0 31 18 47 42 47c23 0 40 -14 40 -36s-17 -37 -39 -37c-8 0 -16 2 -22 6c9 -24 33 -41 67 -41c47 0 77 29 77 96c0 61 -26 90 -65 90c-30 0 -49 -16 -63 -37h-14l14 187c31 -6 68 -8 98 -8
c34 0 74 3 102 9c-1 -50 -29 -70 -94 -70c-30 0 -71 4 -94 9l-9 -106c19 23 52 40 99 40z" />
    <glyph glyph-name="six.dnom" horiz-adv-x="326" 
d="M201 204c51 0 106 -27 106 -101c0 -76 -63 -115 -136 -115c-68 0 -143 35 -143 168c0 130 79 192 163 192c56 0 94 -24 94 -68c0 -27 -16 -43 -42 -43c-25 0 -39 15 -39 35c0 22 16 35 37 35c10 0 18 -3 24 -8c-9 22 -37 34 -68 34c-60 0 -82 -45 -85 -174
c16 30 49 45 89 45zM171 2c38 0 55 33 55 93c0 58 -17 85 -53 85c-31 0 -59 -21 -62 -74c2 -73 24 -104 60 -104z" />
    <glyph glyph-name="seven.dnom" horiz-adv-x="255" 
d="M256 342v-7c-70 -100 -115 -203 -118 -341h-80c3 133 103 233 148 287h-166v-42h-15v103h231z" />
    <glyph glyph-name="eight.dnom" horiz-adv-x="307" 
d="M189 199c47 -28 97 -56 97 -112c0 -55 -44 -99 -132 -99c-74 0 -132 28 -132 85c0 45 33 70 92 86c-39 25 -74 54 -74 102c0 55 46 87 114 87c61 0 112 -23 112 -73c0 -40 -35 -66 -77 -76zM155 334c-34 0 -49 -23 -49 -47c0 -37 33 -59 70 -81c16 16 29 39 29 68
c0 43 -20 60 -50 60zM154 2c41 0 60 25 60 54c0 43 -44 68 -88 95c-22 -17 -35 -42 -35 -76c0 -53 25 -73 63 -73z" />
    <glyph glyph-name="nine.dnom" horiz-adv-x="326" 
d="M155 348c68 0 143 -35 143 -168c0 -130 -79 -192 -163 -192c-56 0 -94 25 -94 68c0 27 16 43 42 43c25 0 39 -15 39 -35c0 -22 -16 -34 -37 -34c-10 0 -19 3 -25 7c9 -22 37 -34 69 -34c60 0 82 45 85 174c-16 -30 -49 -45 -89 -45c-51 0 -106 27 -106 101
c0 77 63 115 136 115zM153 156c31 0 59 21 62 75c-2 72 -24 103 -60 103c-39 0 -55 -33 -55 -93c0 -57 17 -85 53 -85z" />
    <glyph glyph-name="zero.numr" horiz-adv-x="369" 
d="M185 346c-71 0 -157 61 -157 180c0 117 86 180 157 180c72 0 156 -62 156 -180c0 -119 -85 -180 -156 -180zM185 360c48 0 69 51 69 166c0 114 -21 166 -69 166s-69 -52 -69 -166c0 -115 21 -166 69 -166z" />
    <glyph glyph-name="one.numr" horiz-adv-x="249" 
d="M164 365h44v-13h-165v13h44v298c-12 -10 -29 -19 -51 -23l-2 12c32 9 57 29 80 52h50v-339z" />
    <glyph glyph-name="two.numr" horiz-adv-x="301" 
d="M268 460h13c0 -56 -17 -114 -80 -114c-60 0 -75 53 -118 53c-25 0 -42 -19 -49 -47h-15c0 175 158 159 158 267c0 45 -29 65 -67 65c-36 0 -63 -17 -73 -48c7 7 17 11 28 11c22 0 39 -14 39 -37c0 -22 -17 -37 -42 -37c-26 0 -43 17 -43 47c0 47 42 86 122 86
c62 0 123 -22 123 -91c0 -133 -203 -79 -229 -229c16 35 44 53 85 53s63 -20 102 -20c27 0 46 11 46 41z" />
    <glyph glyph-name="three.numr" horiz-adv-x="304" 
d="M166 530c62 -5 111 -27 111 -86c0 -68 -62 -98 -138 -98c-78 0 -117 34 -117 78c0 28 16 45 42 45c23 0 39 -14 39 -35c0 -20 -16 -34 -37 -34c-11 0 -20 4 -26 11c8 -29 36 -45 72 -45c49 0 76 26 76 78s-30 77 -85 77h-16v16h16c51 0 78 34 78 83s-28 66 -65 66
c-33 0 -59 -14 -67 -44c6 6 16 9 26 9c20 0 36 -14 36 -34c0 -19 -15 -34 -38 -34c-24 0 -42 14 -42 44c0 46 41 79 116 79c62 0 118 -24 118 -83c0 -50 -39 -84 -99 -93z" />
    <glyph glyph-name="four.numr" horiz-adv-x="299" 
d="M279 471h-52v-106h49v-13h-178v13h52v106h-144v13l161 226h60v-225h52v-14zM26 485h124v173z" />
    <glyph glyph-name="five.numr" horiz-adv-x="296" 
d="M160 577c55 0 115 -26 115 -109c0 -82 -57 -122 -137 -122c-76 0 -117 36 -117 82c0 32 18 47 42 47c23 0 40 -13 40 -35c0 -23 -17 -37 -39 -37c-8 0 -16 2 -22 6c9 -25 33 -42 67 -42c47 0 77 30 77 96c0 61 -26 91 -65 91c-30 0 -49 -16 -63 -38l-14 1l14 186
c31 -6 68 -8 98 -8c34 0 74 3 102 9c-1 -49 -29 -70 -94 -70c-30 0 -71 5 -94 10l-9 -107c19 22 52 40 99 40z" />
    <glyph glyph-name="six.numr" horiz-adv-x="326" 
d="M201 562c51 0 106 -28 106 -102c0 -76 -63 -114 -136 -114c-68 0 -143 35 -143 168c0 130 79 192 163 192c56 0 94 -25 94 -69c0 -26 -16 -42 -42 -42c-25 0 -39 15 -39 35c0 21 16 34 37 34c10 0 19 -3 25 -8c-9 23 -37 35 -69 35c-60 0 -82 -46 -86 -175
c17 31 50 46 90 46zM171 360c38 0 55 33 55 93c0 57 -17 84 -53 84c-31 0 -59 -20 -62 -74c2 -73 24 -103 60 -103z" />
    <glyph glyph-name="seven.numr" horiz-adv-x="255" 
d="M256 700v-8c-70 -100 -115 -203 -118 -340h-80c3 134 104 234 148 287h-166v-43h-15v104h231z" />
    <glyph glyph-name="eight.numr" horiz-adv-x="307" 
d="M189 556c47 -27 97 -56 97 -112c0 -54 -44 -98 -132 -98c-74 0 -132 28 -132 85c0 45 33 70 92 85c-38 25 -74 54 -74 103c0 54 46 87 114 87c61 0 112 -24 112 -73c0 -41 -35 -67 -77 -77zM155 691c-34 0 -49 -22 -49 -47c0 -37 33 -59 70 -81c16 16 29 40 29 69
c0 42 -20 59 -50 59zM154 360c41 0 60 24 60 54c0 43 -44 67 -88 95c-22 -18 -35 -43 -35 -77c0 -53 25 -72 63 -72z" />
    <glyph glyph-name="nine.numr" horiz-adv-x="326" 
d="M155 706c68 0 143 -36 143 -169c0 -130 -79 -191 -163 -191c-56 0 -94 24 -94 68c0 27 16 42 42 42c25 0 39 -15 39 -34c0 -22 -16 -35 -37 -35c-10 0 -19 3 -24 8c9 -22 36 -34 68 -34c60 0 82 45 86 174c-17 -31 -50 -46 -90 -46c-51 0 -106 28 -106 102
c0 76 63 115 136 115zM153 514c31 0 59 21 62 74c-2 73 -24 103 -60 103c-39 0 -55 -33 -55 -93c0 -57 17 -84 53 -84z" />
    <glyph glyph-name="zero.bulletFill" horiz-adv-x="828" 
d="M414 -12c192 0 362 136 362 357s-170 357 -362 357c-193 0 -363 -136 -363 -357s170 -357 363 -357zM413 96c-95 0 -200 92 -200 251s105 251 200 251c96 0 201 -91 201 -251s-106 -251 -201 -251zM413 112c69 0 100 81 100 235s-31 235 -100 235s-100 -81 -100 -235
s32 -235 100 -235z" />
    <glyph glyph-name="one.bulletFill" horiz-adv-x="828" 
d="M414 -12c192 0 362 136 362 357s-170 357 -362 357c-193 0 -363 -136 -363 -357s170 -357 363 -357zM520 120v-14h-212v14h62v427c-17 -13 -39 -25 -69 -31l-3 15c44 11 76 38 105 67h56v-478h61z" />
    <glyph glyph-name="two.bulletFill" horiz-adv-x="828" 
d="M414 -12c192 0 362 136 362 357s-170 357 -362 357c-193 0 -363 -136 -363 -357s170 -357 363 -357zM583 251c0 -74 -18 -145 -96 -145c-75 0 -97 69 -152 69c-33 0 -56 -25 -66 -61h-17c0 238 211 222 211 373c0 66 -37 97 -90 97c-55 0 -99 -36 -104 -91
c4 19 21 31 40 31c26 0 47 -18 47 -45c0 -26 -19 -47 -50 -47s-54 22 -54 60c0 63 56 115 152 115c81 0 159 -30 159 -124c0 -182 -277 -119 -297 -344c17 55 55 85 109 85c56 0 85 -30 135 -30c35 0 60 16 60 57h13z" />
    <glyph glyph-name="three.bulletFill" horiz-adv-x="828" 
d="M414 -12c192 0 362 136 362 357s-170 357 -362 357c-193 0 -363 -136 -363 -357s170 -357 363 -357zM579 236c0 -92 -79 -136 -178 -136c-98 0 -150 49 -150 106c0 36 21 59 52 59c29 0 48 -19 48 -44s-19 -44 -45 -44c-16 0 -31 7 -37 22c6 -47 49 -76 105 -76
c66 0 103 39 103 113c0 78 -43 113 -119 113h-21v17h21c71 0 107 50 107 119c0 68 -35 96 -86 96c-50 0 -89 -26 -97 -79c5 17 22 23 36 23c26 0 44 -18 44 -43s-16 -44 -47 -44c-30 0 -50 18 -50 57c0 62 51 107 144 107c83 0 152 -34 152 -114c0 -71 -55 -120 -133 -130
c79 -4 151 -35 151 -122z" />
    <glyph glyph-name="four.bulletFill" horiz-adv-x="828" 
d="M414 -12c192 0 362 136 362 357s-170 357 -362 357c-193 0 -363 -136 -363 -357s170 -357 363 -357zM558 119v-14h-225v14h70v153h-193v18l216 316h66v-317h74v-17h-74v-153h66zM403 539l-173 -250h173v250z" />
    <glyph glyph-name="five.bulletFill" horiz-adv-x="828" 
d="M414 -12c192 0 362 136 362 357s-170 357 -362 357c-193 0 -363 -136 -363 -357s170 -357 363 -357zM572 266c0 -112 -73 -170 -177 -170c-98 0 -151 51 -151 110c0 40 24 62 54 62c28 0 48 -18 48 -47c0 -30 -21 -49 -48 -49c-13 0 -27 8 -33 19c9 -40 45 -72 100 -72
c66 0 105 50 105 141c0 88 -35 132 -89 132c-43 0 -75 -28 -93 -60l-15 1l19 261c40 -8 90 -12 129 -12c47 0 95 5 129 14c-1 -62 -38 -87 -116 -87c-40 0 -100 6 -129 15l-13 -164c24 32 67 59 130 59c73 0 150 -39 150 -153z" />
    <glyph glyph-name="six.bulletFill" horiz-adv-x="828" 
d="M414 -12c192 0 362 136 362 357s-170 357 -362 357c-193 0 -363 -136 -363 -357s170 -357 363 -357zM583 263c0 -105 -81 -160 -174 -160c-90 0 -185 53 -185 233c0 177 97 268 208 268c71 0 124 -33 124 -92c0 -35 -22 -55 -54 -55c-31 0 -48 19 -48 45
c0 27 20 44 46 44c14 0 27 -6 35 -15c-11 39 -56 57 -99 57c-84 0 -114 -73 -116 -257c20 50 66 74 120 74c69 0 143 -43 143 -142zM410 379c-44 0 -84 -34 -89 -109c5 -105 37 -151 88 -151c56 0 79 53 79 133c0 82 -26 127 -78 127z" />
    <glyph glyph-name="seven.bulletFill" horiz-adv-x="828" 
d="M414 -12c192 0 362 136 362 357s-170 357 -362 357c-193 0 -363 -136 -363 -357s170 -357 363 -357zM575 571c-98 -137 -154 -274 -159 -473h-95c5 194 128 326 195 414h-221v-65h-19v136h299v-12z" />
    <glyph glyph-name="eight.bulletFill" horiz-adv-x="828" 
d="M414 -12c192 0 362 136 362 357s-170 357 -362 357c-193 0 -363 -136 -363 -357s170 -357 363 -357zM588 231c0 -74 -57 -134 -171 -134c-91 0 -169 40 -169 119c0 63 48 102 121 126c-51 35 -97 75 -97 140c0 72 60 118 146 118c79 0 144 -35 144 -102
c0 -56 -48 -94 -102 -111c63 -38 128 -79 128 -156zM349 511c0 -51 43 -82 93 -113c28 23 49 57 49 98c0 57 -29 87 -73 87c-48 0 -69 -38 -69 -72zM330 217c0 -72 34 -104 89 -104c59 0 86 40 86 83c0 61 -59 96 -117 135c-35 -28 -58 -64 -58 -114z" />
    <glyph glyph-name="nine.bulletFill" horiz-adv-x="828" 
d="M414 -12c192 0 362 136 362 357s-170 357 -362 357c-193 0 -363 -136 -363 -357s170 -357 363 -357zM603 365c0 -177 -97 -269 -208 -269c-71 0 -124 34 -124 92c0 36 22 56 54 56c31 0 48 -20 48 -45c0 -27 -20 -44 -46 -44c-14 0 -27 5 -35 14c12 -39 56 -56 98 -56
c84 0 115 73 117 256c-20 -50 -66 -74 -120 -74c-69 0 -143 43 -143 143c0 105 81 160 174 160c90 0 185 -53 185 -233zM339 449c0 -82 25 -127 77 -127c45 0 87 35 90 112c-6 103 -38 148 -88 148c-56 0 -79 -53 -79 -133z" />
    <glyph glyph-name="zero.bulletHollow" horiz-adv-x="828" 
d="M414 -12c192 0 362 136 362 357s-170 357 -362 357c-193 0 -363 -136 -363 -357s170 -357 363 -357zM414 7c-185 0 -342 128 -342 338s157 338 342 338c184 0 342 -128 342 -338s-158 -338 -342 -338zM413 96c-95 0 -200 92 -200 251s105 251 200 251
c96 0 201 -91 201 -251s-106 -251 -201 -251zM413 112c69 0 100 81 100 235s-31 235 -100 235s-100 -81 -100 -235s32 -235 100 -235z" />
    <glyph glyph-name="one.bulletHollow" horiz-adv-x="828" 
d="M414 -12c192 0 362 136 362 357s-170 357 -362 357c-193 0 -363 -136 -363 -357s170 -357 363 -357zM414 7c-185 0 -342 128 -342 338s157 338 342 338c184 0 342 -128 342 -338s-158 -338 -342 -338zM520 120v-14h-212v14h62v427c-17 -13 -39 -25 -69 -31l-3 15
c44 11 76 38 105 67h56v-478h61z" />
    <glyph glyph-name="two.bulletHollow" horiz-adv-x="828" 
d="M414 -12c192 0 362 136 362 357s-170 357 -362 357c-193 0 -363 -136 -363 -357s170 -357 363 -357zM414 7c-185 0 -342 128 -342 338s157 338 342 338c184 0 342 -128 342 -338s-158 -338 -342 -338zM583 251c0 -74 -18 -145 -96 -145c-75 0 -97 69 -152 69
c-33 0 -56 -25 -66 -61h-17c0 238 211 222 211 373c0 66 -37 97 -90 97c-55 0 -98 -35 -103 -90c3 19 20 30 39 30c26 0 47 -18 47 -45c0 -26 -19 -47 -50 -47s-54 22 -54 60c0 63 56 115 152 115c81 0 159 -30 159 -124c0 -182 -277 -119 -297 -344c17 55 55 85 109 85
c56 0 85 -30 135 -30c35 0 60 16 60 57h13z" />
    <glyph glyph-name="three.bulletHollow" horiz-adv-x="828" 
d="M414 -12c192 0 362 136 362 357s-170 357 -362 357c-193 0 -363 -136 -363 -357s170 -357 363 -357zM414 7c-185 0 -342 128 -342 338s157 338 342 338c184 0 342 -128 342 -338s-158 -338 -342 -338zM579 236c0 -92 -79 -136 -178 -136c-98 0 -150 49 -150 106
c0 36 21 59 52 59c29 0 48 -19 48 -44s-19 -44 -45 -44c-16 0 -31 7 -37 22c6 -47 49 -76 105 -76c66 0 103 39 103 113c0 78 -43 113 -119 113h-21v17h21c71 0 107 50 107 119c0 68 -35 96 -86 96c-50 0 -89 -26 -97 -79c5 17 22 23 36 23c26 0 44 -18 44 -43
s-16 -44 -47 -44c-30 0 -50 18 -50 57c0 62 51 107 144 107c83 0 152 -34 152 -114c0 -71 -55 -120 -134 -130c80 -4 152 -35 152 -122z" />
    <glyph glyph-name="four.bulletHollow" horiz-adv-x="828" 
d="M414 -12c192 0 362 136 362 357s-170 357 -362 357c-193 0 -363 -136 -363 -357s170 -357 363 -357zM414 7c-185 0 -342 128 -342 338s157 338 342 338c184 0 342 -128 342 -338s-158 -338 -342 -338zM558 119v-14h-225v14h70v153h-193v18l216 316h66v-317h74v-17h-74
v-153h66zM403 539l-173 -250h173v250z" />
    <glyph glyph-name="five.bulletHollow" horiz-adv-x="828" 
d="M414 -12c192 0 362 136 362 357s-170 357 -362 357c-193 0 -363 -136 -363 -357s170 -357 363 -357zM414 7c-185 0 -342 128 -342 338s157 338 342 338c184 0 342 -128 342 -338s-158 -338 -342 -338zM572 266c0 -112 -73 -170 -177 -170c-98 0 -150 51 -150 110
c0 40 23 62 53 62c28 0 48 -18 48 -47c0 -30 -21 -49 -48 -49c-13 0 -26 8 -32 19c9 -40 44 -72 99 -72c66 0 105 50 105 141c0 88 -35 132 -89 132c-43 0 -75 -28 -93 -60l-15 1l19 261c40 -8 90 -12 129 -12c47 0 95 5 129 14c-1 -62 -38 -87 -116 -87
c-40 0 -100 6 -129 15l-13 -164c24 32 67 59 130 59c73 0 150 -39 150 -153z" />
    <glyph glyph-name="six.bulletHollow" horiz-adv-x="828" 
d="M414 -12c192 0 362 136 362 357s-170 357 -362 357c-193 0 -363 -136 -363 -357s170 -357 363 -357zM414 7c-185 0 -342 128 -342 338s157 338 342 338c184 0 342 -128 342 -338s-158 -338 -342 -338zM583 263c0 -105 -81 -160 -174 -160c-90 0 -185 53 -185 233
c0 177 97 268 208 268c71 0 124 -33 124 -92c0 -35 -22 -55 -54 -55c-31 0 -48 19 -48 45c0 27 20 44 46 44c14 0 27 -6 35 -15c-11 39 -56 57 -99 57c-84 0 -114 -73 -116 -257c20 50 66 74 120 74c69 0 143 -43 143 -142zM410 379c-44 0 -84 -34 -89 -109
c5 -105 37 -151 88 -151c56 0 79 53 79 133c0 82 -26 127 -78 127z" />
    <glyph glyph-name="seven.bulletHollow" horiz-adv-x="828" 
d="M414 -12c192 0 362 136 362 357s-170 357 -362 357c-193 0 -363 -136 -363 -357s170 -357 363 -357zM414 7c-185 0 -342 128 -342 338s157 338 342 338c184 0 342 -128 342 -338s-158 -338 -342 -338zM575 571c-98 -137 -154 -274 -159 -473h-95c5 194 128 326 195 414
h-221v-65h-19v136h299v-12z" />
    <glyph glyph-name="eight.bulletHollow" horiz-adv-x="828" 
d="M414 -12c192 0 362 136 362 357s-170 357 -362 357c-193 0 -363 -136 -363 -357s170 -357 363 -357zM414 7c-185 0 -342 128 -342 338s157 338 342 338c184 0 342 -128 342 -338s-158 -338 -342 -338zM588 231c0 -74 -57 -134 -171 -134c-91 0 -169 40 -169 119
c0 63 48 102 121 126c-51 35 -97 75 -97 140c0 72 60 118 146 118c79 0 144 -35 144 -102c0 -56 -48 -94 -102 -111c63 -38 128 -79 128 -156zM349 511c0 -51 43 -82 93 -113c28 23 49 57 49 98c0 57 -29 87 -73 87c-48 0 -69 -38 -69 -72zM330 217c0 -72 34 -104 89 -104
c59 0 86 40 86 83c0 61 -59 96 -117 135c-35 -28 -58 -64 -58 -114z" />
    <glyph glyph-name="nine.bulletHollow" horiz-adv-x="828" 
d="M414 -12c192 0 362 136 362 357s-170 357 -362 357c-193 0 -363 -136 -363 -357s170 -357 363 -357zM414 7c-185 0 -342 128 -342 338s157 338 342 338c184 0 342 -128 342 -338s-158 -338 -342 -338zM603 365c0 -177 -97 -269 -208 -269c-71 0 -124 34 -124 92
c0 36 22 56 54 56c31 0 48 -20 48 -45c0 -27 -20 -44 -46 -44c-14 0 -27 5 -35 14c12 -39 56 -56 98 -56c84 0 115 73 117 256c-20 -50 -66 -74 -120 -74c-69 0 -143 43 -143 143c0 105 81 160 174 160c90 0 185 -53 185 -233zM339 449c0 -82 25 -127 77 -127
c45 0 87 35 90 112c-6 103 -38 148 -88 148c-56 0 -79 -53 -79 -133z" />
    <glyph glyph-name="A.sc" horiz-adv-x="600" 
d="M531 17h62v-17h-276v17h68l-52 167h-191l-32 -107c-12 -38 1 -60 40 -60h40v-17h-212v17h32c41 0 61 29 71 62l153 495h114zM148 203h179l-91 290z" />
    <glyph glyph-name="B.sc" horiz-adv-x="608" 
d="M382 290c115 -8 185 -49 185 -141c0 -101 -81 -149 -224 -149h-303v17h73v533h-73v17h300c116 0 198 -34 198 -135c0 -85 -66 -129 -156 -142zM297 550h-55v-251h52c76 0 119 35 119 127c0 95 -43 124 -116 124zM309 17c75 0 125 26 125 131s-53 133 -134 133h-58v-264
h67z" />
    <glyph glyph-name="C.sc" horiz-adv-x="574" 
d="M320 -10c-127 0 -275 91 -275 294c0 204 146 293 272 293c79 0 107 -34 142 -34c24 0 34 15 39 32h16v-200h-18c-23 115 -90 180 -156 180c-93 0 -154 -86 -154 -271c0 -184 64 -271 154 -271c68 0 139 73 159 184h18v-204h-16c-6 17 -18 31 -40 31
c-37 0 -64 -34 -141 -34z" />
    <glyph glyph-name="D.sc" horiz-adv-x="646" 
d="M295 567c178 0 305 -88 305 -283c0 -196 -127 -284 -305 -284h-255v17h73v533h-73v17h255zM284 17c120 0 175 85 175 267s-57 266 -175 266h-42v-533h42z" />
    <glyph glyph-name="E.sc" horiz-adv-x="575" 
d="M504 185h18l-6 -185h-476v17h73v534h-73v16h472l6 -178h-19c-19 117 -77 162 -166 162h-91v-245h53c70 0 95 39 102 100h16v-221h-16c-7 65 -32 104 -102 104h-53v-272h96c102 0 145 52 166 168z" />
    <glyph glyph-name="F.sc" horiz-adv-x="536" 
d="M501 567l5 -178h-17c-19 113 -61 162 -160 162h-87v-264h57c65 0 91 39 97 100h16v-225h-16c-6 69 -32 107 -97 107h-57v-252h89v-17h-291v17h73v534h-73v16h461z" />
    <glyph glyph-name="G.sc" horiz-adv-x="631" 
d="M618 263v-17h-61v-253h-18c-6 21 -21 38 -50 38c-45 0 -76 -41 -163 -41c-137 0 -281 94 -281 295c0 200 151 292 283 292c84 0 125 -35 159 -35c26 0 37 14 42 33h17l-1 -205h-17c-25 106 -86 183 -174 183c-97 0 -161 -92 -161 -268c0 -177 49 -273 145 -273
c61 0 109 39 109 109v125h-77v17h248z" />
    <glyph glyph-name="H.sc" horiz-adv-x="706" 
d="M666 551h-72v-534h72v-17h-263v17h62v273h-223v-273h61v-17h-263v17h73v534h-73v16h263v-16h-61v-241h223v241h-62v16h263v-16z" />
    <glyph glyph-name="I.sc" horiz-adv-x="354" 
d="M314 550h-72v-533h72v-17h-274v17h73v533h-73v17h274v-17z" />
    <glyph glyph-name="J.sc" horiz-adv-x="446" 
d="M439 567v-16h-73v-406c0 -113 -82 -155 -188 -155c-103 0 -155 46 -155 115c0 53 32 75 69 75c36 0 62 -22 62 -54s-25 -57 -59 -57c-23 0 -42 10 -52 25c8 -52 52 -78 100 -78c54 0 94 33 94 108v427h-82v16h284z" />
    <glyph glyph-name="K.sc" horiz-adv-x="632" 
d="M589 17h55v-17h-266v17h63l-166 265l-33 -36v-229h69v-17h-271v17h73v533h-73v17h277v-17h-75v-269l180 199c30 31 31 70 -16 70h-17v17h219v-17h-18c-46 0 -92 -23 -129 -63l-100 -110z" />
    <glyph glyph-name="L.sc" 
d="M468 214h18l-7 -214h-439v17h73v534h-73v16h287v-16h-85v-534h61c83 0 140 52 165 197z" />
    <glyph glyph-name="M.sc" horiz-adv-x="830" 
d="M753 551c-22 0 -36 -14 -36 -35v-499h73v-17h-276v17h74v505l-205 -531h-21l-225 520v-405c0 -63 35 -89 75 -89h21v-17h-217v17h22c37 0 75 26 75 89v393c0 37 -14 52 -53 52h-34v16h226l169 -403l158 403h211v-16h-37z" />
    <glyph glyph-name="N.sc" horiz-adv-x="640" 
d="M419 567h201v-16h-19c-34 0 -70 -27 -70 -80v-480h-85l-312 518v-407c0 -57 33 -85 76 -85h18v-17h-209v17h18c40 0 73 28 73 85v397c0 37 -13 52 -52 52h-29v16h217l261 -411v315c0 53 -33 80 -68 80h-20v16z" />
    <glyph glyph-name="O.sc" horiz-adv-x="654" 
d="M328 -10c-122 0 -283 97 -283 293c0 197 159 294 283 294c125 0 281 -97 281 -294c0 -196 -159 -293 -281 -293zM328 10c84 0 139 84 139 273c0 192 -55 275 -139 275s-141 -83 -141 -275c0 -189 58 -273 141 -273z" />
    <glyph glyph-name="P.sc" horiz-adv-x="582" 
d="M322 218h-80v-201h88v-17h-290v17h73v533h-73v17h286c144 0 225 -58 225 -169s-84 -180 -229 -180zM301 550h-59v-314h54c84 0 121 41 121 158c0 118 -37 156 -116 156z" />
    <glyph glyph-name="Q.sc" horiz-adv-x="653" 
d="M531 -43c34 0 48 25 58 58l14 -3c-10 -60 -35 -113 -107 -113c-57 0 -98 36 -113 97c-19 -4 -37 -6 -55 -6c-122 0 -283 97 -283 293c0 197 159 294 283 294c125 0 281 -96 281 -294c0 -122 -62 -206 -138 -251c5 -50 22 -75 60 -75zM328 558c-84 0 -141 -83 -141 -275
c0 -107 19 -181 50 -224c6 66 37 105 105 105c54 0 87 -13 106 -41c12 41 19 94 19 160c0 192 -55 275 -139 275zM328 10c18 0 35 4 50 12c0 5 -1 9 -1 14c-3 71 -19 105 -57 105s-64 -31 -67 -101c21 -20 47 -30 75 -30z" />
    <glyph glyph-name="R.sc" horiz-adv-x="641" 
d="M630 96l15 -4c-14 -56 -42 -102 -120 -102c-89 0 -118 47 -123 131c-6 101 -23 148 -100 148h-60v-252h84v-17h-286v17h73v534h-73v16h287c145 0 229 -41 229 -143c0 -93 -68 -138 -192 -146c105 -6 163 -51 168 -144c4 -77 14 -104 47 -104c27 0 41 27 51 66zM306 551
h-64v-264h58c75 0 122 38 122 134c0 94 -45 130 -116 130z" />
    <glyph glyph-name="S.sc" horiz-adv-x="522" 
d="M297 -10c-85 0 -127 41 -164 41c-26 0 -40 -16 -48 -35h-14l-4 204h17c47 -136 126 -190 212 -190c67 0 102 40 102 91c0 64 -54 98 -158 139c-101 42 -169 87 -169 185c0 117 104 152 178 152c76 0 111 -35 146 -35c23 0 34 14 41 33h14l-2 -175h-16
c-27 92 -92 160 -180 160c-57 0 -99 -29 -99 -82c0 -60 53 -86 148 -123c102 -41 178 -85 178 -195c0 -123 -96 -170 -182 -170z" />
    <glyph glyph-name="T.sc" horiz-adv-x="604" 
d="M555 567l9 -216h-19c-20 111 -67 200 -160 200h-19v-534h105v-17h-337v17h104v534h-18c-93 0 -141 -89 -160 -200h-20l10 216h505z" />
    <glyph glyph-name="U.sc" horiz-adv-x="619" 
d="M396 567h216v-16h-24c-52 0 -70 -41 -70 -81v-282c0 -142 -58 -198 -194 -198c-159 0 -225 71 -225 198v363h-72v16h271v-16h-70v-403c0 -101 45 -135 125 -135c90 0 135 52 135 172v285c0 40 -19 81 -66 81h-26v16z" />
    <glyph glyph-name="V.sc" horiz-adv-x="551" 
d="M371 564h204v-17h-16c-50 0 -79 -39 -90 -79l-131 -472h-102l-172 551h-59v17h266v-17h-63l131 -455l104 380c9 36 -6 75 -53 75h-19v17z" />
    <glyph glyph-name="W.sc" horiz-adv-x="918" 
d="M723 567h208v-16h-17c-53 0 -79 -40 -90 -79l-138 -476h-99l-129 417l-110 -417h-100l-182 555h-61v16h263v-16h-58l139 -455l95 363l-29 92h-54v16h254v-16h-58l131 -456l109 381c10 35 -5 75 -55 75h-19v16z" />
    <glyph glyph-name="X.sc" horiz-adv-x="582" 
d="M534 17h66v-17h-277v17h70l-131 217l-96 -149c-15 -23 -24 -68 25 -68h28v-17h-212v17h27c40 0 86 45 103 71l110 171l-175 291h-64v17h273v-17h-66l122 -204l86 137c14 22 21 67 -26 67h-27v17h209v-17h-24c-41 0 -87 -44 -104 -71l-99 -158z" />
    <glyph glyph-name="Y.sc" horiz-adv-x="562" 
d="M368 564h207v-17h-20c-49 0 -83 -45 -99 -79l-98 -205v-246h82v-17h-294v17h83v227l-161 303h-65v17h276v-17h-67l133 -256l86 180c14 32 9 76 -40 76h-23v17z" />
    <glyph glyph-name="Z.sc" horiz-adv-x="554" 
d="M49 14l305 536h-89c-109 0 -161 -59 -178 -171h-19l4 188h429v-15l-305 -535h101c112 0 164 55 186 187h20l-6 -204h-448v14z" />
    <glyph glyph-name="e.calt" 
d="M476 146l20 -8c-30 -92 -100 -150 -213 -150c-134 0 -244 93 -244 252c0 163 112 248 231 248c112 0 207 -68 207 -202v-24h-307v-15c0 -147 51 -224 145 -224c73 0 132 45 161 123zM269 465c-52 0 -92 -45 -98 -179h187c-2 129 -33 179 -89 179z" />
    <glyph glyph-name="r.calt" horiz-adv-x="453" 
d="M325 488c66 0 98 -44 98 -100c0 -52 -28 -80 -69 -80c-40 0 -65 26 -65 62s26 61 62 61c23 0 41 -11 50 -27c-6 40 -33 65 -76 65c-68 0 -115 -59 -115 -163v-286h85v-20h-274v20h67v436h-67v20h189v-74c17 52 56 86 115 86z" />
    <glyph glyph-name="t.calt" horiz-adv-x="361" 
d="M335 153l20 -2c-9 -106 -38 -163 -137 -163c-74 0 -134 31 -134 141v326h-82v21h82v151h122v-151h117v-21h-117v-360c0 -57 23 -75 53 -75c44 0 68 39 76 133z" />
    <glyph glyph-name="S.salt" horiz-adv-x="564" 
d="M333 414c90 -41 183 -90 183 -214c0 -134 -102 -213 -241 -213c-123 0 -209 63 -209 149c0 51 31 79 72 79s67 -27 67 -64c0 -38 -29 -62 -65 -62c-19 0 -34 6 -44 17c21 -53 86 -93 173 -93c98 0 153 55 153 132c0 80 -68 118 -144 154c-95 45 -201 93 -201 220
c0 133 114 187 224 187c112 0 191 -60 191 -135c0 -46 -28 -71 -67 -71c-41 0 -65 25 -65 61c0 38 28 59 62 59c13 0 24 -4 33 -10c-24 43 -81 71 -146 71c-84 0 -142 -47 -142 -117c0 -80 82 -112 166 -150z" />
    <glyph glyph-name="s.salt" horiz-adv-x="432" 
d="M253 296c67 -26 137 -58 137 -151c0 -103 -79 -157 -191 -157c-93 0 -158 43 -158 106c0 38 24 57 54 57s50 -18 50 -47s-20 -47 -50 -47c-9 0 -17 2 -23 5c20 -31 65 -53 122 -53c74 0 107 39 107 87c0 57 -49 81 -104 103c-71 29 -152 58 -152 154c0 91 77 138 174 138
c88 0 152 -42 152 -95c0 -37 -25 -53 -52 -53c-30 0 -48 20 -48 47c0 26 20 43 45 43c8 0 15 -2 21 -4c-23 26 -67 40 -108 40c-65 0 -98 -34 -98 -75c0 -55 60 -73 122 -98z" />
    <glyph glyph-name="Aacute" unicode="&#xc1;" horiz-adv-x="666" 
d="M446 798l-170 -53l-10 14l133 99c73 75 145 -25 47 -60zM587 21h73v-21h-298v21h80l-61 207h-220l-40 -139c-11 -41 0 -68 44 -68h48v-21h-238v21h37c45 0 67 33 77 70l177 612h110zM167 251h207l-105 355z" />
    <glyph glyph-name="Abreve" unicode="&#x102;" horiz-adv-x="666" 
d="M323 747c-103 0 -141 69 -141 139h20c0 -38 48 -62 121 -62c74 0 121 24 122 62h20c0 -70 -38 -139 -142 -139zM587 21h73v-21h-298v21h80l-61 207h-220l-40 -139c-11 -41 0 -68 44 -68h48v-21h-238v21h37c45 0 67 33 77 70l177 612h110zM167 251h207l-105 355z" />
    <glyph glyph-name="Acircumflex" unicode="&#xc2;" horiz-adv-x="666" 
d="M323 802l-146 -63l-11 15l147 128h21l147 -128l-11 -15zM587 21h73v-21h-298v21h80l-61 207h-220l-40 -139c-11 -41 0 -68 44 -68h48v-21h-238v21h37c45 0 67 33 77 70l177 612h110zM167 251h207l-105 355z" />
    <glyph glyph-name="Adieresis" unicode="&#xc4;" horiz-adv-x="666" 
d="M226 741c-38 0 -63 25 -63 59s25 59 63 59c36 0 62 -25 62 -59s-26 -59 -62 -59zM420 741c-38 0 -62 25 -62 59s24 59 62 59c36 0 62 -25 62 -59s-26 -59 -62 -59zM587 21h73v-21h-298v21h80l-61 207h-220l-40 -139c-11 -41 0 -68 44 -68h48v-21h-238v21h37
c45 0 67 33 77 70l177 612h110zM167 251h207l-105 355z" />
    <glyph glyph-name="Agrave" unicode="&#xc0;" horiz-adv-x="666" 
d="M199 798c-98 34 -26 134 47 59l133 -98l-10 -14zM587 21h73v-21h-298v21h80l-61 207h-220l-40 -139c-11 -41 0 -68 44 -68h48v-21h-238v21h37c45 0 67 33 77 70l177 612h110zM167 251h207l-105 355z" />
    <glyph glyph-name="Amacron" unicode="&#x100;" horiz-adv-x="666" 
d="M472 819v-51h-296v51h296zM587 21h73v-21h-298v21h80l-61 207h-220l-40 -139c-11 -41 0 -68 44 -68h48v-21h-238v21h37c45 0 67 33 77 70l177 612h110zM167 251h207l-105 355z" />
    <glyph glyph-name="Aogonek" unicode="&#x104;" horiz-adv-x="666" 
d="M594 0c-53 -4 -88 -46 -88 -106c0 -34 12 -52 36 -52c15 0 31 7 47 17l9 -16c-31 -22 -65 -38 -121 -38c-63 0 -95 35 -95 75c0 33 16 53 65 77c26 18 55 32 83 43h-168v21h80l-61 207h-220l-40 -139c-11 -41 0 -68 44 -68h48v-21h-238v21h37c45 0 67 33 77 70l177 612
h110l211 -682h73v-21h-66zM167 251h207l-105 355z" />
    <glyph glyph-name="Aring" unicode="&#xc5;" horiz-adv-x="666" 
d="M323 729c-76 0 -130 37 -130 98c0 60 54 98 130 99c77 1 130 -38 130 -99c0 -59 -53 -97 -130 -98zM323 909c-38 0 -62 -31 -62 -82c0 -50 24 -80 62 -80c39 0 63 30 63 80c0 51 -24 82 -63 82zM587 21h73v-21h-298v21h80l-61 207h-220l-40 -139c-11 -41 0 -68 44 -68h48
v-21h-238v21h37c45 0 67 33 77 70l177 612h110zM167 251h207l-105 355z" />
    <glyph glyph-name="Atilde" unicode="&#xc3;" horiz-adv-x="666" 
d="M245 794c-30 0 -52 -15 -54 -44l-19 3c3 82 39 118 96 118c46 0 99 -34 140 -34c30 0 51 18 53 45l20 -3c-4 -82 -40 -118 -96 -118c-43 0 -97 33 -140 33zM587 21h73v-21h-298v21h80l-61 207h-220l-40 -139c-11 -41 0 -68 44 -68h48v-21h-238v21h37c45 0 67 33 77 70
l177 612h110zM167 251h207l-105 355z" />
    <glyph glyph-name="AE" unicode="&#xc6;" horiz-adv-x="899" 
d="M821 217h21l-9 -217h-441v228h-242l-82 -140c-24 -43 -9 -67 32 -67h48v-21h-237v21h28c41 0 71 25 97 70l356 603h435l8 -210h-21c-19 135 -77 189 -176 189h-117v-299h74c75 0 100 46 108 116h18v-256h-18c-8 74 -33 119 -108 119h-74v-332h123c111 0 155 62 177 196z
M164 251h228v388z" />
    <glyph glyph-name="Cacute" unicode="&#x106;" horiz-adv-x="640" 
d="M286 767l133 99c73 75 145 -25 47 -60l-170 -53zM356 -12c-143 0 -305 115 -305 360c0 244 159 358 302 358c90 0 121 -44 160 -44c25 0 36 19 41 40h19v-243h-20c-24 146 -103 220 -178 220c-107 0 -182 -105 -182 -331s77 -333 182 -333c77 0 159 82 181 225h20v-248
h-18c-6 22 -18 40 -43 40c-39 0 -70 -44 -159 -44z" />
    <glyph glyph-name="Ccaron" unicode="&#x10c;" horiz-adv-x="640" 
d="M332 757l-146 128l10 16l147 -64l147 64l11 -16l-147 -128h-22zM556 240h20v-248h-18c-6 22 -18 40 -43 40c-39 0 -70 -44 -159 -44c-143 0 -305 115 -305 360c0 244 159 358 302 358c90 0 121 -44 160 -44c25 0 36 19 41 40h19v-243h-20c-24 146 -103 220 -178 220
c-107 0 -182 -105 -182 -331s77 -333 182 -333c77 0 159 82 181 225z" />
    <glyph glyph-name="Ccedilla" unicode="&#xc7;" horiz-adv-x="640" 
d="M556 240h20v-248h-18c-6 22 -18 40 -43 40c-39 0 -70 -44 -159 -44c-5 0 -11 0 -17 1l-35 -39c12 4 26 5 42 5c63 0 100 -34 100 -73c0 -53 -50 -88 -133 -88c-53 0 -82 22 -97 46l16 13c17 -24 42 -36 69 -36c38 0 55 18 55 59c0 44 -18 54 -43 54c-18 0 -34 -8 -54 -29
l-20 10l75 80c-131 21 -263 136 -263 357c0 244 159 358 302 358c90 0 121 -44 160 -44c25 0 36 19 41 40h19v-243h-20c-24 146 -103 220 -178 220c-107 0 -182 -105 -182 -331s77 -333 182 -333c77 0 159 82 181 225z" />
    <glyph glyph-name="Ccircumflex" unicode="&#x108;" horiz-adv-x="640" 
d="M342 810l-146 -63l-11 15l147 128h21l147 -128l-11 -15zM556 240h20v-248h-18c-6 22 -18 40 -43 40c-39 0 -70 -44 -159 -44c-143 0 -305 115 -305 360c0 244 159 358 302 358c90 0 121 -44 160 -44c25 0 36 19 41 40h19v-243h-20c-24 146 -103 220 -178 220
c-107 0 -182 -105 -182 -331s77 -333 182 -333c77 0 159 82 181 225z" />
    <glyph glyph-name="Cdotaccent" unicode="&#x10a;" horiz-adv-x="640" 
d="M343 750c-41 0 -68 25 -68 62c0 34 27 60 68 60c39 0 67 -26 67 -60c0 -37 -28 -62 -67 -62zM356 -12c-143 0 -305 115 -305 360c0 244 159 358 302 358c90 0 121 -44 160 -44c25 0 36 19 41 40h19v-243h-20c-24 146 -103 220 -178 220c-107 0 -182 -105 -182 -331
s77 -333 182 -333c77 0 159 82 181 225h20v-248h-18c-6 22 -18 40 -43 40c-39 0 -70 -44 -159 -44z" />
    <glyph glyph-name="Eth" unicode="&#xd0;" horiz-adv-x="716" 
d="M321 694c206 0 344 -115 344 -347c0 -233 -137 -347 -344 -347h-276v21h84v325h-84v21h84v305h-84v22h276zM311 21c146 0 213 104 213 326c0 221 -68 325 -213 325h-52v-305h134v-21h-134v-325h52z" />
    <glyph glyph-name="Dcaron" unicode="&#x10e;" horiz-adv-x="716" 
d="M347 749l-146 128l10 16l147 -64l147 64l11 -16l-147 -128h-22zM321 694c206 0 344 -115 344 -347c0 -233 -137 -347 -344 -347h-276v21h84v651h-84v22h276zM311 21c146 0 213 104 213 326c0 221 -68 325 -213 325h-52v-651h52z" />
    <glyph glyph-name="Dcroat" unicode="&#x110;" horiz-adv-x="716" 
d="M321 694c206 0 344 -115 344 -347c0 -233 -137 -347 -344 -347h-276v21h84v325h-84v21h84v305h-84v22h276zM311 21c146 0 213 104 213 326c0 221 -68 325 -213 325h-52v-305h134v-21h-134v-325h52z" />
    <glyph glyph-name="Eacute" unicode="&#xc9;" horiz-adv-x="635" 
d="M463 798l-170 -53l-10 14l133 99c73 75 145 -25 47 -60zM558 217h21l-9 -217h-525v21h84v652h-84v21h519l8 -210h-21c-20 135 -78 189 -177 189h-116v-299h73c76 0 101 46 108 116h18v-256h-18c-7 74 -33 119 -108 119h-73v-332h122c112 0 155 62 178 196z" />
    <glyph glyph-name="Ebreve" unicode="&#x114;" horiz-adv-x="635" 
d="M340 747c-103 0 -141 69 -141 139h20c0 -38 48 -62 121 -62c74 0 121 24 122 62h20c0 -70 -38 -139 -142 -139zM558 217h21l-9 -217h-525v21h84v652h-84v21h519l8 -210h-21c-20 135 -78 189 -177 189h-116v-299h73c76 0 101 46 108 116h18v-256h-18
c-7 74 -33 119 -108 119h-73v-332h122c112 0 155 62 178 196z" />
    <glyph glyph-name="Ecaron" unicode="&#x11a;" horiz-adv-x="635" 
d="M329 749l-146 128l10 16l147 -64l147 64l11 -16l-147 -128h-22zM558 217h21l-9 -217h-525v21h84v652h-84v21h519l8 -210h-21c-20 135 -78 189 -177 189h-116v-299h73c76 0 101 46 108 116h18v-256h-18c-7 74 -33 119 -108 119h-73v-332h122c112 0 155 62 178 196z" />
    <glyph glyph-name="Ecircumflex" unicode="&#xca;" horiz-adv-x="635" 
d="M340 802l-146 -63l-11 15l147 128h21l147 -128l-11 -15zM558 217h21l-9 -217h-525v21h84v652h-84v21h519l8 -210h-21c-20 135 -78 189 -177 189h-116v-299h73c76 0 101 46 108 116h18v-256h-18c-7 74 -33 119 -108 119h-73v-332h122c112 0 155 62 178 196z" />
    <glyph glyph-name="Edieresis" unicode="&#xcb;" horiz-adv-x="635" 
d="M243 741c-38 0 -63 25 -63 59s25 59 63 59c36 0 62 -25 62 -59s-26 -59 -62 -59zM437 741c-38 0 -62 25 -62 59s24 59 62 59c36 0 62 -25 62 -59s-26 -59 -62 -59zM558 217h21l-9 -217h-525v21h84v652h-84v21h519l8 -210h-21c-20 135 -78 189 -177 189h-116v-299h73
c76 0 101 46 108 116h18v-256h-18c-7 74 -33 119 -108 119h-73v-332h122c112 0 155 62 178 196z" />
    <glyph glyph-name="Edotaccent" unicode="&#x116;" horiz-adv-x="635" 
d="M341 742c-41 0 -68 25 -68 62c0 34 27 60 68 60c39 0 67 -26 67 -60c0 -37 -28 -62 -67 -62zM558 217h21l-9 -217h-525v21h84v652h-84v21h519l8 -210h-21c-20 135 -78 189 -177 189h-116v-299h73c76 0 101 46 108 116h18v-256h-18c-7 74 -33 119 -108 119h-73v-332h122
c112 0 155 62 178 196z" />
    <glyph glyph-name="Egrave" unicode="&#xc8;" horiz-adv-x="635" 
d="M215 798c-98 34 -26 134 47 59l133 -98l-10 -14zM558 217h21l-9 -217h-525v21h84v652h-84v21h519l8 -210h-21c-20 135 -78 189 -177 189h-116v-299h73c76 0 101 46 108 116h18v-256h-18c-7 74 -33 119 -108 119h-73v-332h122c112 0 155 62 178 196z" />
    <glyph glyph-name="Emacron" unicode="&#x112;" horiz-adv-x="635" 
d="M488 819v-51h-296v51h296zM558 217h21l-9 -217h-525v21h84v652h-84v21h519l8 -210h-21c-20 135 -78 189 -177 189h-116v-299h73c76 0 101 46 108 116h18v-256h-18c-7 74 -33 119 -108 119h-73v-332h122c112 0 155 62 178 196z" />
    <glyph glyph-name="Eogonek" unicode="&#x118;" horiz-adv-x="635" 
d="M565 0c-53 -4 -88 -46 -88 -106c0 -34 12 -52 36 -52c15 0 31 7 47 17l9 -16c-31 -22 -65 -38 -121 -38c-63 0 -95 35 -95 75c0 33 16 53 65 77c26 18 55 32 83 43h-456v21h84v652h-84v21h519l8 -210h-21c-20 135 -78 189 -177 189h-116v-299h73c76 0 101 46 108 116h18
v-256h-18c-7 74 -33 119 -108 119h-73v-332h122c112 0 155 62 178 196h21l-9 -217h-5z" />
    <glyph glyph-name="Gbreve" unicode="&#x11e;" horiz-adv-x="699" 
d="M357 754c-103 0 -141 69 -141 139h20c0 -38 48 -62 121 -62c74 0 121 24 122 62h20c0 -70 -38 -139 -142 -139zM686 321v-21h-69v-308h-19c-7 26 -23 47 -54 47c-47 0 -83 -51 -182 -51c-158 0 -311 121 -311 360c0 240 163 358 312 358c97 0 140 -45 179 -45
c28 0 40 18 45 41h20l-3 -247h-19c-26 136 -100 223 -198 223c-112 0 -189 -113 -189 -330c0 -216 61 -334 175 -334c74 0 133 49 133 135v151h-92v21h272z" />
    <glyph glyph-name="Gcircumflex" unicode="&#x11c;" horiz-adv-x="699" 
d="M357 809l-146 -63l-11 15l147 128h21l147 -128l-11 -15zM686 321v-21h-69v-308h-19c-7 26 -23 47 -54 47c-47 0 -83 -51 -182 -51c-158 0 -311 121 -311 360c0 240 163 358 312 358c97 0 140 -45 179 -45c28 0 40 18 45 41h20l-3 -247h-19c-26 136 -100 223 -198 223
c-112 0 -189 -113 -189 -330c0 -216 61 -334 175 -334c74 0 133 49 133 135v151h-92v21h272z" />
    <glyph glyph-name="uni0122" unicode="&#x122;" horiz-adv-x="699" 
d="M686 321v-21h-69v-308h-19c-7 26 -23 47 -54 47c-47 0 -83 -51 -182 -51c-158 0 -311 121 -311 360c0 240 163 358 312 358c97 0 140 -45 179 -45c28 0 40 18 45 41h20l-3 -247h-19c-26 136 -100 223 -198 223c-112 0 -189 -113 -189 -330c0 -216 61 -334 175 -334
c74 0 133 49 133 135v151h-92v21h272zM351 -49c34 0 60 -23 60 -64c0 -56 -41 -114 -103 -132l-7 14c45 17 70 49 81 82c-8 -4 -18 -7 -31 -7c-34 0 -56 22 -56 54s23 53 56 53z" />
    <glyph glyph-name="Gdotaccent" unicode="&#x120;" horiz-adv-x="699" 
d="M357 749c-41 0 -68 25 -68 62c0 34 27 60 68 60c39 0 67 -26 67 -60c0 -37 -28 -62 -67 -62zM686 321v-21h-69v-308h-19c-7 26 -23 47 -54 47c-47 0 -83 -51 -182 -51c-158 0 -311 121 -311 360c0 240 163 358 312 358c97 0 140 -45 179 -45c28 0 40 18 45 41h20l-3 -247
h-19c-26 136 -100 223 -198 223c-112 0 -189 -113 -189 -330c0 -216 61 -334 175 -334c74 0 133 49 133 135v151h-92v21h272z" />
    <glyph glyph-name="Hbar" unicode="&#x126;" horiz-adv-x="787" 
d="M743 673h-85v-153h85v-22h-85v-477h85v-21h-287v21h73v334h-271v-334h73v-21h-286v21h84v477h-84v22h84v153h-84v21h286v-21h-73v-153h271v153h-73v21h287v-21zM529 379v119h-271v-119h271z" />
    <glyph glyph-name="Hcircumflex" unicode="&#x124;" horiz-adv-x="787" 
d="M393 802l-146 -63l-11 15l147 128h21l147 -128l-11 -15zM743 673h-85v-652h85v-21h-287v21h73v334h-271v-334h73v-21h-286v21h84v652h-84v21h286v-21h-73v-294h271v294h-73v21h287v-21z" />
    <glyph glyph-name="IJ" unicode="&#x132;" horiz-adv-x="886" 
d="M343 694v-22h-85v-651h85v-21h-298v21h84v651h-84v22h298zM868 694v-21h-85v-499c0 -137 -90 -186 -203 -186c-111 0 -168 53 -168 133c0 62 34 87 74 87c39 0 65 -24 65 -61c0 -36 -24 -64 -62 -64c-25 0 -43 12 -54 28c8 -64 60 -93 113 -93c65 0 106 42 106 135v520
h-95v21h309z" />
    <glyph glyph-name="Iacute" unicode="&#xcd;" horiz-adv-x="387" 
d="M270 858c73 75 145 -25 47 -60l-170 -53l-10 14zM343 694v-22h-85v-651h85v-21h-298v21h84v651h-84v22h298z" />
    <glyph glyph-name="Ibreve" unicode="&#x12c;" horiz-adv-x="387" 
d="M193 747c-103 0 -141 69 -141 139h20c0 -38 48 -62 121 -62c74 0 121 24 122 62h20c0 -70 -38 -139 -142 -139zM343 672h-85v-651h85v-21h-298v21h84v651h-84v22h298v-22z" />
    <glyph glyph-name="Icircumflex" unicode="&#xce;" horiz-adv-x="387" 
d="M193 802l-146 -63l-11 15l147 128h21l147 -128l-11 -15zM343 694v-22h-85v-651h85v-21h-298v21h84v651h-84v22h298z" />
    <glyph glyph-name="Idieresis" unicode="&#xcf;" horiz-adv-x="387" 
d="M97 741c-38 0 -63 25 -63 59s25 59 63 59c36 0 62 -25 62 -59s-26 -59 -62 -59zM291 741c-38 0 -62 25 -62 59s24 59 62 59c36 0 62 -25 62 -59s-26 -59 -62 -59zM343 694v-22h-85v-651h85v-21h-298v21h84v651h-84v22h298z" />
    <glyph glyph-name="Idotaccent" unicode="&#x130;" horiz-adv-x="387" 
d="M194 742c-41 0 -68 25 -68 62c0 34 27 60 68 60c39 0 67 -26 67 -60c0 -37 -28 -62 -67 -62zM343 672h-85v-651h85v-21h-298v21h84v651h-84v22h298v-22z" />
    <glyph glyph-name="Igrave" unicode="&#xcc;" horiz-adv-x="387" 
d="M239 745l-170 53c-98 34 -26 134 47 59l133 -98zM343 672h-85v-651h85v-21h-298v21h84v651h-84v22h298v-22z" />
    <glyph glyph-name="Imacron" unicode="&#x12a;" horiz-adv-x="387" 
d="M342 819v-51h-296v51h296zM343 672h-85v-651h85v-21h-298v21h84v651h-84v22h298v-22z" />
    <glyph glyph-name="Iogonek" unicode="&#x12e;" horiz-adv-x="387" 
d="M343 672h-85v-651h85v-21h-25c-53 -4 -88 -46 -88 -106c0 -34 12 -52 36 -52c15 0 31 7 47 17l9 -16c-31 -22 -65 -38 -121 -38c-63 0 -95 35 -95 75c0 33 16 53 65 77c26 18 55 32 83 43h-209v21h84v651h-84v22h298v-22z" />
    <glyph glyph-name="Itilde" unicode="&#x128;" horiz-adv-x="387" 
d="M115 794c-30 0 -52 -15 -54 -44l-19 3c3 82 39 118 96 118c46 0 99 -34 140 -34c30 0 51 18 53 45l20 -3c-4 -82 -40 -118 -96 -118c-43 0 -97 33 -140 33zM343 694v-22h-85v-651h85v-21h-298v21h84v651h-84v22h298z" />
    <glyph glyph-name="Jcircumflex" unicode="&#x134;" horiz-adv-x="498" 
d="M313 802l-146 -63l-11 15l147 128h21l147 -128l-11 -15zM481 694v-21h-85v-499c0 -137 -90 -186 -203 -186c-111 0 -168 53 -168 133c0 62 34 87 74 87c39 0 65 -24 65 -61c0 -36 -24 -64 -62 -64c-25 0 -43 12 -54 28c8 -64 60 -93 113 -93c65 0 106 42 106 135v520h-95
v21h309z" />
    <glyph glyph-name="uni0136" unicode="&#x136;" horiz-adv-x="699" 
d="M645 21h65v-21h-288v21h73l-192 331l-45 -53v-278h83v-21h-296v21h84v651h-84v22h301v-22h-88v-333l212 254c29 35 32 79 -20 79h-20v22h240v-22h-21c-51 0 -100 -28 -137 -72l-124 -147zM347 -46c34 0 60 -23 60 -64c0 -56 -41 -114 -103 -132l-7 14c45 17 70 49 81 82
c-8 -4 -18 -7 -31 -7c-34 0 -56 22 -56 54s23 53 56 53z" />
    <glyph glyph-name="Lacute" unicode="&#x139;" horiz-adv-x="577" 
d="M341 798l-170 -53l-10 14l133 99c73 75 145 -25 47 -60zM517 253h20l-6 -253h-486v21h84v652h-84v21h312v-21h-99v-652h81c97 0 153 60 178 232z" />
    <glyph glyph-name="Lcaron" unicode="&#x13d;" horiz-adv-x="577" 
d="M528 778c26 0 45 -20 44 -53c-1 -36 -15 -76 -36 -132h-17c-22 56 -32 96 -33 132c-1 33 16 53 42 53zM339 21c97 0 153 60 178 232h20l-6 -253h-486v21h84v652h-84v21h312v-21h-99v-652h81z" />
    <glyph glyph-name="uni013B" unicode="&#x13b;" horiz-adv-x="577" 
d="M517 253h20l-6 -253h-486v21h84v652h-84v21h312v-21h-99v-652h81c97 0 153 60 178 232zM286 -46c34 0 60 -23 60 -64c0 -56 -41 -114 -103 -132l-7 14c45 17 70 49 81 82c-8 -4 -18 -7 -31 -7c-34 0 -56 22 -56 54s23 53 56 53z" />
    <glyph glyph-name="Ldot" unicode="&#x13f;" horiz-adv-x="573" 
d="M517 253h20l-6 -253h-486v21h84v652h-84v21h312v-21h-99v-652h81c97 0 153 60 178 232zM461 363c-44 0 -74 30 -74 70c0 41 30 72 74 72s75 -31 75 -72c0 -40 -31 -70 -75 -70z" />
    <glyph glyph-name="Lslash" unicode="&#x141;" horiz-adv-x="577" 
d="M517 253h20l-6 -253h-486v21h84v251l-75 -47l-9 19l84 53v376h-84v21h312v-21h-99v-294l183 116l10 -19l-193 -122v-333h81c97 0 153 60 178 232z" />
    <glyph glyph-name="Nacute" unicode="&#x143;" horiz-adv-x="717" 
d="M482 798l-170 -53l-10 14l133 99c73 75 145 -25 47 -60zM468 694h226v-21h-24c-37 0 -76 -28 -76 -89v-595h-83l-358 634v-508c0 -65 34 -95 80 -95h23v-20h-232v20h23c42 0 78 30 78 95v496c0 45 -15 62 -58 62h-35v21h230l305 -523v413c0 61 -36 89 -75 89h-24v21z" />
    <glyph glyph-name="Ncaron" unicode="&#x147;" horiz-adv-x="717" 
d="M348 749l-146 128l10 16l147 -64l147 64l11 -16l-147 -128h-22zM468 694h226v-21h-24c-37 0 -76 -28 -76 -89v-595h-83l-358 634v-508c0 -65 34 -95 80 -95h23v-20h-232v20h23c42 0 78 30 78 95v496c0 45 -15 62 -58 62h-35v21h230l305 -523v413c0 61 -36 89 -75 89h-24
v21z" />
    <glyph glyph-name="uni0145" unicode="&#x145;" horiz-adv-x="717" 
d="M468 694h226v-21h-24c-37 0 -76 -28 -76 -89v-595h-83l-358 634v-508c0 -65 34 -95 80 -95h23v-20h-232v20h23c42 0 78 30 78 95v496c0 45 -15 62 -58 62h-35v21h230l305 -523v413c0 61 -36 89 -75 89h-24v21zM356 -46c34 0 60 -23 60 -64c0 -56 -41 -114 -103 -132
l-7 14c45 17 70 49 81 82c-8 -4 -18 -7 -31 -7c-34 0 -56 22 -56 54s23 53 56 53z" />
    <glyph glyph-name="Eng" unicode="&#x14a;" horiz-adv-x="718" 
d="M670 673c-37 0 -76 -28 -76 -89v-581c0 -131 -60 -213 -175 -213c-77 0 -136 47 -136 126c0 64 35 87 72 87c40 0 66 -25 66 -61s-27 -64 -61 -64c-25 0 -45 12 -55 32c7 -63 57 -94 111 -94c100 0 141 93 99 167l-362 642v-510c0 -65 34 -95 80 -95h23v-20h-232v20h23
c42 0 78 30 78 95v496c0 45 -15 62 -58 62h-35v21h230l305 -524v414c0 61 -36 89 -75 89h-24v21h226v-21h-24z" />
    <glyph glyph-name="Ntilde" unicode="&#xd1;" horiz-adv-x="717" 
d="M281 794c-30 0 -52 -15 -54 -44l-19 3c3 82 39 118 96 118c46 0 99 -34 140 -34c30 0 51 18 53 45l20 -3c-4 -82 -40 -118 -96 -118c-43 0 -97 33 -140 33zM468 694h226v-21h-24c-37 0 -76 -28 -76 -89v-595h-83l-358 634v-508c0 -65 34 -95 80 -95h23v-20h-232v20h23
c42 0 78 30 78 95v496c0 45 -15 62 -58 62h-35v21h230l305 -523v413c0 61 -36 89 -75 89h-24v21z" />
    <glyph glyph-name="Oacute" unicode="&#xd3;" horiz-adv-x="729" 
d="M309 765l133 99c73 75 145 -25 47 -60l-170 -53zM366 -12c-139 0 -315 124 -315 359s173 358 315 358c143 0 312 -122 312 -358s-173 -359 -312 -359zM366 11c101 0 170 109 170 336c0 230 -69 335 -170 335c-102 0 -173 -105 -173 -335c0 -227 72 -336 173 -336z" />
    <glyph glyph-name="Obreve" unicode="&#x14e;" horiz-adv-x="729" 
d="M366 753c-103 0 -141 69 -141 139h20c0 -38 48 -62 121 -62c74 0 121 24 122 62h20c0 -70 -38 -139 -142 -139zM366 705c143 0 312 -122 312 -358s-173 -359 -312 -359s-315 124 -315 359s173 358 315 358zM366 11c101 0 170 109 170 336c0 230 -69 335 -170 335
c-102 0 -173 -105 -173 -335c0 -227 72 -336 173 -336z" />
    <glyph glyph-name="Ocircumflex" unicode="&#xd4;" horiz-adv-x="729" 
d="M366 808l-146 -63l-11 15l147 128h21l147 -128l-11 -15zM366 705c143 0 312 -122 312 -358s-173 -359 -312 -359s-315 124 -315 359s173 358 315 358zM366 11c101 0 170 109 170 336c0 230 -69 335 -170 335c-102 0 -173 -105 -173 -335c0 -227 72 -336 173 -336z" />
    <glyph glyph-name="Odieresis" unicode="&#xd6;" horiz-adv-x="729" 
d="M269 747c-38 0 -63 25 -63 59s25 59 63 59c36 0 62 -25 62 -59s-26 -59 -62 -59zM463 747c-38 0 -62 25 -62 59s24 59 62 59c36 0 62 -25 62 -59s-26 -59 -62 -59zM366 -12c-139 0 -315 124 -315 359s173 358 315 358c143 0 312 -122 312 -358s-173 -359 -312 -359z
M366 11c101 0 170 109 170 336c0 230 -69 335 -170 335c-102 0 -173 -105 -173 -335c0 -227 72 -336 173 -336z" />
    <glyph glyph-name="Ograve" unicode="&#xd2;" horiz-adv-x="729" 
d="M421 765l-133 98c-73 75 -145 -25 -47 -59l170 -53zM366 -12c-139 0 -315 124 -315 359s173 358 315 358c143 0 312 -122 312 -358s-173 -359 -312 -359zM366 11c101 0 170 109 170 336c0 230 -69 335 -170 335c-102 0 -173 -105 -173 -335c0 -227 72 -336 173 -336z" />
    <glyph glyph-name="Ohungarumlaut" unicode="&#x150;" horiz-adv-x="729" 
d="M270 761l106 119c44 76 134 4 53 -50l-147 -82zM431 761l105 119c44 76 134 4 54 -50l-147 -82zM366 -12c-139 0 -315 124 -315 359s173 358 315 358c143 0 312 -122 312 -358s-173 -359 -312 -359zM366 11c101 0 170 109 170 336c0 230 -69 335 -170 335
c-102 0 -173 -105 -173 -335c0 -227 72 -336 173 -336z" />
    <glyph glyph-name="Omacron" unicode="&#x14c;" horiz-adv-x="729" 
d="M514 825v-51h-296v51h296zM366 -12c-139 0 -315 124 -315 359s173 358 315 358c143 0 312 -122 312 -358s-173 -359 -312 -359zM366 11c101 0 170 109 170 336c0 230 -69 335 -170 335c-102 0 -173 -105 -173 -335c0 -227 72 -336 173 -336z" />
    <glyph glyph-name="Oslash" unicode="&#xd8;" horiz-adv-x="729" 
d="M594 594c50 -59 84 -142 84 -247c0 -236 -173 -359 -312 -359c-71 0 -152 33 -214 96l-83 -96l-18 15l85 98c-50 60 -85 142 -85 246c0 235 173 358 315 358c73 0 152 -32 213 -94l81 94l17 -15zM193 347c0 -63 6 -117 16 -162l305 352c-28 99 -81 145 -148 145
c-102 0 -173 -105 -173 -335zM366 11c101 0 170 109 170 336c0 64 -5 118 -15 163l-305 -352c29 -99 83 -147 150 -147z" />
    <glyph glyph-name="Otilde" unicode="&#xd5;" horiz-adv-x="729" 
d="M523 885c-4 -82 -40 -118 -96 -118c-43 0 -97 33 -140 33c-30 0 -52 -15 -54 -44l-19 3c3 82 39 118 96 118c46 0 99 -34 140 -34c30 0 51 18 53 45zM366 -12c-139 0 -315 124 -315 359s173 358 315 358c143 0 312 -122 312 -358s-173 -359 -312 -359zM366 11
c101 0 170 109 170 336c0 230 -69 335 -170 335c-102 0 -173 -105 -173 -335c0 -227 72 -336 173 -336z" />
    <glyph glyph-name="OE" unicode="&#x152;" horiz-adv-x="1042" 
d="M965 217h21l-9 -217h-441v39c-45 -34 -103 -51 -170 -51c-139 0 -315 124 -315 359s173 358 315 358c68 0 125 -16 170 -48v37h435l8 -210h-21c-20 135 -78 189 -177 189h-116v-299h73c76 0 101 46 108 116h18v-256h-18c-7 74 -33 119 -108 119h-73v-332h122
c112 0 155 62 178 196zM366 11c101 0 170 109 170 336c0 230 -69 335 -170 335c-102 0 -173 -105 -173 -335c0 -227 72 -336 173 -336z" />
    <glyph glyph-name="Thorn" unicode="&#xde;" horiz-adv-x="643" 
d="M350 136h-92v-115h103v-21h-316v21h84v651h-84v22h316v-22h-103v-109h96c162 0 254 -73 254 -207s-94 -220 -258 -220zM331 541h-73v-383h66c105 0 149 54 149 194c0 139 -45 189 -142 189z" />
    <glyph glyph-name="Racute" unicode="&#x154;" horiz-adv-x="707" 
d="M475 798l-170 -53l-10 14l133 99c73 75 145 -25 47 -60zM696 115l16 -4c-15 -66 -43 -123 -127 -123c-96 0 -128 59 -133 160c-6 118 -25 182 -119 182h-75v-309h99v-21h-312v21h84v652h-84v21h313c160 0 255 -51 255 -174c0 -109 -74 -168 -206 -180
c112 -10 171 -67 176 -178c4 -96 17 -129 54 -129c31 0 47 32 59 82zM340 673h-82v-321h71c93 0 149 47 149 164c0 113 -53 157 -138 157z" />
    <glyph glyph-name="Rcaron" unicode="&#x158;" horiz-adv-x="707" 
d="M341 749l-146 128l10 16l147 -64l147 64l11 -16l-147 -128h-22zM696 115l16 -4c-15 -66 -43 -123 -127 -123c-96 0 -128 59 -133 160c-6 118 -25 182 -119 182h-75v-309h99v-21h-312v21h84v652h-84v21h313c160 0 255 -51 255 -174c0 -109 -74 -168 -206 -180
c112 -10 171 -67 176 -178c4 -96 17 -129 54 -129c31 0 47 32 59 82zM340 673h-82v-321h71c93 0 149 47 149 164c0 113 -53 157 -138 157z" />
    <glyph glyph-name="uni0156" unicode="&#x156;" horiz-adv-x="707" 
d="M696 115l16 -4c-15 -66 -43 -123 -127 -123c-96 0 -128 59 -133 160c-6 118 -25 182 -119 182h-75v-309h99v-21h-312v21h84v652h-84v21h313c160 0 255 -51 255 -174c0 -109 -74 -168 -206 -180c112 -10 171 -67 176 -178c4 -96 17 -129 54 -129c31 0 47 32 59 82z
M340 673h-82v-321h71c93 0 149 47 149 164c0 113 -53 157 -138 157zM358 -46c34 0 60 -23 60 -64c0 -56 -41 -114 -103 -132l-7 14c45 17 70 49 81 82c-8 -4 -18 -7 -31 -7c-34 0 -56 22 -56 54s23 53 56 53z" />
    <glyph glyph-name="Sacute" unicode="&#x15a;" horiz-adv-x="578" 
d="M223 767l133 99c73 75 145 -25 47 -60l-170 -53zM323 -12c-95 0 -142 50 -182 50c-28 0 -41 -20 -49 -43h-16l-5 250h18c47 -168 138 -233 233 -233c79 0 119 53 119 117c0 83 -65 123 -176 174c-112 51 -189 104 -189 222c0 136 111 181 196 181c86 0 125 -45 163 -45
c26 0 36 18 43 41h17l-3 -214h-18c-28 119 -103 196 -200 196c-65 0 -113 -36 -113 -103c0 -77 61 -109 165 -155c112 -50 200 -104 200 -235c0 -145 -106 -203 -203 -203z" />
    <glyph glyph-name="Scaron" unicode="&#x160;" horiz-adv-x="578" 
d="M269 757l-146 128l10 16l147 -64l147 64l11 -16l-147 -128h-22zM326 426c112 -50 200 -104 200 -235c0 -145 -106 -203 -203 -203c-95 0 -142 50 -182 50c-28 0 -41 -20 -49 -43h-16l-5 250h18c47 -168 138 -233 233 -233c79 0 119 53 119 117c0 83 -65 123 -176 174
c-112 51 -189 104 -189 222c0 136 111 181 196 181c86 0 125 -45 163 -45c26 0 36 18 43 41h17l-3 -214h-18c-28 119 -103 196 -200 196c-65 0 -113 -36 -113 -103c0 -77 61 -109 165 -155z" />
    <glyph glyph-name="Scedilla" unicode="&#x15e;" horiz-adv-x="578" 
d="M323 -12h-11l-38 -41c12 4 26 5 42 5c63 0 100 -34 100 -73c0 -53 -50 -88 -133 -88c-53 0 -82 22 -97 46l16 13c17 -24 42 -36 69 -36c38 0 55 18 55 59c0 44 -18 54 -43 54c-18 0 -34 -8 -54 -29l-20 10l77 83c-71 10 -111 47 -145 47c-28 0 -41 -20 -49 -43h-16
l-5 250h18c47 -168 138 -233 233 -233c79 0 119 53 119 117c0 83 -65 123 -176 174c-112 51 -189 104 -189 222c0 136 111 181 196 181c86 0 125 -45 163 -45c26 0 36 18 43 41h17l-3 -214h-18c-28 119 -103 196 -200 196c-65 0 -113 -36 -113 -103c0 -77 61 -109 165 -155
c112 -50 200 -104 200 -235c0 -145 -106 -203 -203 -203z" />
    <glyph glyph-name="Scircumflex" unicode="&#x15c;" horiz-adv-x="578" 
d="M280 810l-146 -63l-11 15l147 128h21l147 -128l-11 -15zM326 426c112 -50 200 -104 200 -235c0 -145 -106 -203 -203 -203c-95 0 -142 50 -182 50c-28 0 -41 -20 -49 -43h-16l-5 250h18c47 -168 138 -233 233 -233c79 0 119 53 119 117c0 83 -65 123 -176 174
c-112 51 -189 104 -189 222c0 136 111 181 196 181c86 0 125 -45 163 -45c26 0 36 18 43 41h17l-3 -214h-18c-28 119 -103 196 -200 196c-65 0 -113 -36 -113 -103c0 -77 61 -109 165 -155z" />
    <glyph glyph-name="Sacute.salt" horiz-adv-x="564" 
d="M419 806l-170 -53l-10 14l133 99c73 75 145 -25 47 -60zM333 414c90 -41 183 -90 183 -214c0 -134 -102 -213 -241 -213c-123 0 -209 63 -209 149c0 51 31 79 72 79s67 -27 67 -64c0 -38 -29 -62 -65 -62c-19 0 -34 6 -44 17c21 -53 86 -93 173 -93c98 0 153 55 153 132
c0 80 -68 118 -144 154c-95 45 -201 93 -201 220c0 133 114 187 224 187c112 0 191 -60 191 -135c0 -46 -28 -71 -67 -71c-41 0 -65 25 -65 61c0 38 28 59 62 59c13 0 24 -4 33 -10c-24 43 -81 71 -146 71c-84 0 -142 -47 -142 -117c0 -80 82 -112 166 -150z" />
    <glyph glyph-name="Scaron.salt" horiz-adv-x="564" 
d="M285 757l-146 128l10 16l147 -64l147 64l11 -16l-147 -128h-22zM333 414c90 -41 183 -90 183 -214c0 -134 -102 -213 -241 -213c-123 0 -209 63 -209 149c0 51 31 79 72 79s67 -27 67 -64c0 -38 -29 -62 -65 -62c-19 0 -34 6 -44 17c21 -53 86 -93 173 -93
c98 0 153 55 153 132c0 80 -68 118 -144 154c-95 45 -201 93 -201 220c0 133 114 187 224 187c112 0 191 -60 191 -135c0 -46 -28 -71 -67 -71c-41 0 -65 25 -65 61c0 38 28 59 62 59c13 0 24 -4 33 -10c-24 43 -81 71 -146 71c-84 0 -142 -47 -142 -117
c0 -80 82 -112 166 -150z" />
    <glyph glyph-name="Scedilla.salt" horiz-adv-x="564" 
d="M516 200c0 -126 -90 -204 -217 -212l-35 -38c12 4 26 5 42 5c63 0 100 -34 100 -73c0 -53 -50 -88 -133 -88c-53 0 -82 22 -97 46l16 13c17 -24 42 -36 69 -36c38 0 55 18 55 59c0 44 -18 54 -43 54c-18 0 -34 -8 -54 -29l-20 10l71 76c-120 2 -204 64 -204 149
c0 51 31 79 72 79s67 -27 67 -64c0 -38 -29 -62 -65 -62c-19 0 -34 6 -44 17c21 -53 86 -93 173 -93c98 0 153 55 153 132c0 80 -68 118 -144 154c-95 45 -201 93 -201 220c0 133 114 187 224 187c112 0 191 -60 191 -135c0 -46 -28 -71 -67 -71c-41 0 -65 25 -65 61
c0 38 28 59 62 59c13 0 24 -4 33 -10c-24 43 -81 71 -146 71c-84 0 -142 -47 -142 -117c0 -80 82 -112 166 -150c90 -41 183 -90 183 -214z" />
    <glyph glyph-name="Scircumflex.salt" horiz-adv-x="564" 
d="M296 810l-146 -63l-11 15l147 128h21l147 -128l-11 -15zM333 414c90 -41 183 -90 183 -214c0 -134 -102 -213 -241 -213c-123 0 -209 63 -209 149c0 51 31 79 72 79s67 -27 67 -64c0 -38 -29 -62 -65 -62c-19 0 -34 6 -44 17c21 -53 86 -93 173 -93c98 0 153 55 153 132
c0 80 -68 118 -144 154c-95 45 -201 93 -201 220c0 133 114 187 224 187c112 0 191 -60 191 -135c0 -46 -28 -71 -67 -71c-41 0 -65 25 -65 61c0 38 28 59 62 59c13 0 24 -4 33 -10c-24 43 -81 71 -146 71c-84 0 -142 -47 -142 -117c0 -80 82 -112 166 -150z" />
    <glyph glyph-name="Tbar" unicode="&#x166;" horiz-adv-x="666" 
d="M424 674h-27v-374h175v-21h-175v-258h117v-21h-361v21h116v258h-175v21h175v374h-27c-107 0 -156 -98 -177 -233h-21l11 253h557l10 -253h-21c-20 135 -70 233 -177 233z" />
    <glyph glyph-name="Tcaron" unicode="&#x164;" horiz-adv-x="666" 
d="M322 749l-146 128l10 16l147 -64l147 64l11 -16l-147 -128h-22zM612 694l10 -253h-21c-20 135 -70 233 -177 233h-27v-653h117v-21h-361v21h116v653h-27c-107 0 -156 -98 -177 -233h-21l11 253h557z" />
    <glyph glyph-name="uni0162" unicode="&#x162;" horiz-adv-x="666" 
d="M612 694l10 -253h-21c-20 135 -70 233 -177 233h-27v-653h117v-21h-160l-46 -50c12 4 26 5 42 5c63 0 100 -34 100 -73c0 -53 -50 -88 -133 -88c-53 0 -82 22 -97 46l16 13c17 -24 42 -36 69 -36c38 0 55 18 55 59c0 44 -18 54 -43 54c-18 0 -34 -8 -54 -29l-20 10l83 89
h-173v21h116v653h-27c-107 0 -156 -98 -177 -233h-21l11 253h557z" />
    <glyph glyph-name="Uacute" unicode="&#xda;" horiz-adv-x="691" 
d="M483 798l-170 -53l-10 14l133 99c73 75 145 -25 47 -60zM441 694h242v-21h-28c-59 0 -76 -47 -76 -93v-350c0 -171 -68 -242 -219 -242c-170 0 -247 86 -247 240v445h-84v21h295v-21h-82v-488c0 -127 52 -170 146 -170c104 0 156 66 156 213v352c0 46 -19 93 -72 93h-31
v21z" />
    <glyph glyph-name="Ubreve" unicode="&#x16c;" horiz-adv-x="691" 
d="M360 747c-103 0 -141 69 -141 139h20c0 -38 48 -62 121 -62c74 0 121 24 122 62h20c0 -70 -38 -139 -142 -139zM441 694h242v-21h-28c-59 0 -76 -47 -76 -93v-350c0 -171 -68 -242 -219 -242c-170 0 -247 86 -247 240v445h-84v21h295v-21h-82v-488
c0 -127 52 -170 146 -170c104 0 156 66 156 213v352c0 46 -19 93 -72 93h-31v21z" />
    <glyph glyph-name="Ucircumflex" unicode="&#xdb;" horiz-adv-x="691" 
d="M360 802l-146 -63l-11 15l147 128h21l147 -128l-11 -15zM441 694h242v-21h-28c-59 0 -76 -47 -76 -93v-350c0 -171 -68 -242 -219 -242c-170 0 -247 86 -247 240v445h-84v21h295v-21h-82v-488c0 -127 52 -170 146 -170c104 0 156 66 156 213v352c0 46 -19 93 -72 93h-31
v21z" />
    <glyph glyph-name="Udieresis" unicode="&#xdc;" horiz-adv-x="691" 
d="M263 741c-38 0 -63 25 -63 59s25 59 63 59c36 0 62 -25 62 -59s-26 -59 -62 -59zM457 741c-38 0 -62 25 -62 59s24 59 62 59c36 0 62 -25 62 -59s-26 -59 -62 -59zM441 694h242v-21h-28c-59 0 -76 -47 -76 -93v-350c0 -171 -68 -242 -219 -242c-170 0 -247 86 -247 240
v445h-84v21h295v-21h-82v-488c0 -127 52 -170 146 -170c104 0 156 66 156 213v352c0 46 -19 93 -72 93h-31v21z" />
    <glyph glyph-name="Ugrave" unicode="&#xd9;" horiz-adv-x="691" 
d="M235 798c-98 34 -26 134 47 59l133 -98l-10 -14zM441 694h242v-21h-28c-59 0 -76 -47 -76 -93v-350c0 -171 -68 -242 -219 -242c-170 0 -247 86 -247 240v445h-84v21h295v-21h-82v-488c0 -127 52 -170 146 -170c104 0 156 66 156 213v352c0 46 -19 93 -72 93h-31v21z" />
    <glyph glyph-name="Uhungarumlaut" unicode="&#x170;" horiz-adv-x="691" 
d="M423 824l-147 -82l-12 13l106 119c44 76 134 4 53 -50zM437 742l-12 13l105 119c44 76 134 4 54 -50zM441 694h242v-21h-28c-59 0 -76 -47 -76 -93v-350c0 -171 -68 -242 -219 -242c-170 0 -247 86 -247 240v445h-84v21h295v-21h-82v-488c0 -127 52 -170 146 -170
c104 0 156 66 156 213v352c0 46 -19 93 -72 93h-31v21z" />
    <glyph glyph-name="Umacron" unicode="&#x16a;" horiz-adv-x="691" 
d="M508 819v-51h-296v51h296zM441 694h242v-21h-28c-59 0 -76 -47 -76 -93v-350c0 -171 -68 -242 -219 -242c-170 0 -247 86 -247 240v445h-84v21h295v-21h-82v-488c0 -127 52 -170 146 -170c104 0 156 66 156 213v352c0 46 -19 93 -72 93h-31v21z" />
    <glyph glyph-name="Uogonek" unicode="&#x172;" horiz-adv-x="691" 
d="M441 694h242v-21h-28c-59 0 -76 -47 -76 -93v-350c0 -145 -49 -218 -156 -237c-34 -16 -54 -53 -52 -99c1 -34 13 -52 37 -51c15 1 31 8 47 18l9 -15c-30 -23 -64 -40 -120 -42c-62 -2 -95 32 -97 72c-1 33 15 54 63 79c17 13 35 24 54 33h-4c-170 0 -247 86 -247 240
v445h-84v21h295v-21h-82v-488c0 -127 52 -170 146 -170c104 0 156 66 156 213v352c0 46 -19 93 -72 93h-31v21z" />
    <glyph glyph-name="Uring" unicode="&#x16e;" horiz-adv-x="691" 
d="M360 729c-76 0 -130 37 -130 98c0 60 54 98 130 99c77 1 130 -38 130 -99c0 -59 -53 -97 -130 -98zM360 909c-38 0 -62 -31 -62 -82c0 -50 24 -80 62 -80c39 0 63 30 63 80c0 51 -24 82 -63 82zM441 694h242v-21h-28c-59 0 -76 -47 -76 -93v-350
c0 -171 -68 -242 -219 -242c-170 0 -247 86 -247 240v445h-84v21h295v-21h-82v-488c0 -127 52 -170 146 -170c104 0 156 66 156 213v352c0 46 -19 93 -72 93h-31v21z" />
    <glyph glyph-name="Utilde" unicode="&#x168;" horiz-adv-x="691" 
d="M282 794c-30 0 -52 -15 -54 -44l-19 3c3 82 39 118 96 118c46 0 99 -34 140 -34c30 0 51 18 53 45l20 -3c-4 -82 -40 -118 -96 -118c-43 0 -97 33 -140 33zM441 694h242v-21h-28c-59 0 -76 -47 -76 -93v-350c0 -171 -68 -242 -219 -242c-170 0 -247 86 -247 240v445h-84
v21h295v-21h-82v-488c0 -127 52 -170 146 -170c104 0 156 66 156 213v352c0 46 -19 93 -72 93h-31v21z" />
    <glyph glyph-name="Wcircumflex" unicode="&#x174;" horiz-adv-x="1011" 
d="M525 802l-146 -63l-11 15l147 128h21l147 -128l-11 -15zM804 694h231v-21h-20c-57 0 -87 -45 -99 -90l-162 -588h-95l-151 522l-129 -522h-96l-207 678h-72v21h282v-21h-72l165 -561l113 460l-29 101h-62v21h272v-21h-72l155 -562l130 477c11 40 -6 85 -61 85h-21v21z
" />
    <glyph glyph-name="Yacute" unicode="&#xdd;" horiz-adv-x="624" 
d="M447 798l-170 -53l-10 14l133 99c73 75 145 -25 47 -60zM410 693h233v-21h-24c-53 1 -91 -49 -110 -89l-120 -260v-302h97v-21h-324v21h98v282l-184 369h-79v22h301v-22h-81l156 -318l108 233c17 38 9 86 -45 85h-26v21z" />
    <glyph glyph-name="Ycircumflex" unicode="&#x176;" horiz-adv-x="624" 
d="M324 802l-146 -63l-11 15l147 128h21l147 -128l-11 -15zM410 693h233v-21h-24c-53 1 -91 -49 -110 -89l-120 -260v-302h97v-21h-324v21h98v282l-184 369h-79v22h301v-22h-81l156 -318l108 233c17 38 9 86 -45 85h-26v21z" />
    <glyph glyph-name="Ydieresis" unicode="&#x178;" horiz-adv-x="624" 
d="M227 741c-38 0 -63 25 -63 59s25 59 63 59c36 0 62 -25 62 -59s-26 -59 -62 -59zM421 741c-38 0 -62 25 -62 59s24 59 62 59c36 0 62 -25 62 -59s-26 -59 -62 -59zM410 693h233v-21h-24c-53 1 -91 -49 -110 -89l-120 -260v-302h97v-21h-324v21h98v282l-184 369h-79v22
h301v-22h-81l156 -318l108 233c17 38 9 86 -45 85h-26v21z" />
    <glyph glyph-name="Zacute" unicode="&#x179;" horiz-adv-x="612" 
d="M253 759l133 99c73 75 145 -25 47 -60l-170 -53zM554 242l-7 -242h-494v18l352 654h-119c-119 0 -172 -64 -190 -205h-21l5 227h471v-19l-352 -654h134c124 0 177 61 199 221h22z" />
    <glyph glyph-name="Zcaron" unicode="&#x17d;" horiz-adv-x="612" 
d="M299 749l-146 128l10 16l147 -64l147 64l11 -16l-147 -128h-22zM532 242h22l-7 -242h-494v18l352 654h-119c-119 0 -172 -64 -190 -205h-21l5 227h471v-19l-352 -654h134c124 0 177 61 199 221z" />
    <glyph glyph-name="Zdotaccent" unicode="&#x17b;" horiz-adv-x="612" 
d="M310 742c-41 0 -68 25 -68 62c0 34 27 60 68 60c39 0 67 -26 67 -60c0 -37 -28 -62 -67 -62zM554 242l-7 -242h-494v18l352 654h-119c-119 0 -172 -64 -190 -205h-21l5 227h471v-19l-352 -654h134c124 0 177 61 199 221h22z" />
    <glyph glyph-name="aacute" unicode="&#xe1;" horiz-adv-x="526" 
d="M353 618l-140 -86l-13 13l93 128c47 84 152 -1 60 -55zM512 126l18 -1c-1 -87 -25 -137 -104 -137c-56 0 -95 24 -109 80c-17 -45 -62 -80 -144 -80c-78 0 -144 36 -144 121c0 99 83 145 283 162v90c0 75 -41 103 -104 103c-52 0 -98 -20 -119 -59c9 6 21 10 35 10
c35 0 59 -22 59 -55c0 -34 -23 -59 -62 -59c-38 0 -64 21 -64 65c0 66 59 122 181 122c130 0 196 -56 196 -163v-249c0 -36 12 -52 33 -52c25 0 43 29 45 102zM221 29c46 0 91 35 91 100v121c-111 -14 -159 -47 -159 -131c0 -62 25 -90 68 -90z" />
    <glyph glyph-name="abreve" unicode="&#x103;" horiz-adv-x="526" 
d="M251 541c-107 0 -142 76 -142 167h19c1 -57 46 -87 123 -87c76 0 121 30 122 87h19c0 -91 -35 -167 -141 -167zM512 126l18 -1c-1 -87 -25 -137 -104 -137c-56 0 -95 24 -109 80c-17 -45 -62 -80 -144 -80c-78 0 -144 36 -144 121c0 99 83 145 283 162v90
c0 75 -41 103 -104 103c-52 0 -98 -20 -119 -59c9 6 21 10 35 10c35 0 59 -22 59 -55c0 -34 -23 -59 -62 -59c-38 0 -64 21 -64 65c0 66 59 122 181 122c130 0 196 -56 196 -163v-249c0 -36 12 -52 33 -52c25 0 43 29 45 102zM221 29c46 0 91 35 91 100v121
c-111 -14 -159 -47 -159 -131c0 -62 25 -90 68 -90z" />
    <glyph glyph-name="acircumflex" unicode="&#xe2;" horiz-adv-x="526" 
d="M252 610l-139 -77l-11 15l139 156h22l138 -156l-10 -15zM512 126l18 -1c-1 -87 -25 -137 -104 -137c-56 0 -95 24 -109 80c-17 -45 -62 -80 -144 -80c-78 0 -144 36 -144 121c0 99 83 145 283 162v90c0 75 -41 103 -104 103c-52 0 -98 -20 -119 -59c9 6 21 10 35 10
c35 0 59 -22 59 -55c0 -34 -23 -59 -62 -59c-38 0 -64 21 -64 65c0 66 59 122 181 122c130 0 196 -56 196 -163v-249c0 -36 12 -52 33 -52c25 0 43 29 45 102zM221 29c46 0 91 35 91 100v121c-111 -14 -159 -47 -159 -131c0 -62 25 -90 68 -90z" />
    <glyph glyph-name="adieresis" unicode="&#xe4;" horiz-adv-x="526" 
d="M156 550c-39 0 -64 25 -64 61c0 34 25 60 64 60c37 0 64 -26 64 -60c0 -36 -27 -61 -64 -61zM347 550c-40 0 -65 25 -65 61c0 34 25 60 65 60c37 0 63 -26 63 -60c0 -36 -26 -61 -63 -61zM512 126l18 -1c-1 -87 -25 -137 -104 -137c-56 0 -95 24 -109 80
c-17 -45 -62 -80 -144 -80c-78 0 -144 36 -144 121c0 99 83 145 283 162v90c0 75 -41 103 -104 103c-52 0 -98 -20 -119 -59c9 6 21 10 35 10c35 0 59 -22 59 -55c0 -34 -23 -59 -62 -59c-38 0 -64 21 -64 65c0 66 59 122 181 122c130 0 196 -56 196 -163v-249
c0 -36 12 -52 33 -52c25 0 43 29 45 102zM221 29c46 0 91 35 91 100v121c-111 -14 -159 -47 -159 -131c0 -62 25 -90 68 -90z" />
    <glyph glyph-name="agrave" unicode="&#xe0;" horiz-adv-x="526" 
d="M150 618c-92 54 13 139 60 55l93 -128l-13 -13zM512 126l18 -1c-1 -87 -25 -137 -104 -137c-56 0 -95 24 -109 80c-17 -45 -62 -80 -144 -80c-78 0 -144 36 -144 121c0 99 83 145 283 162v90c0 75 -41 103 -104 103c-52 0 -98 -20 -119 -59c9 6 21 10 35 10
c35 0 59 -22 59 -55c0 -34 -23 -59 -62 -59c-38 0 -64 21 -64 65c0 66 59 122 181 122c130 0 196 -56 196 -163v-249c0 -36 12 -52 33 -52c25 0 43 29 45 102zM221 29c46 0 91 35 91 100v121c-111 -14 -159 -47 -159 -131c0 -62 25 -90 68 -90z" />
    <glyph glyph-name="amacron" unicode="&#x101;" horiz-adv-x="526" 
d="M397 623v-55h-291v55h291zM512 126l18 -1c-1 -87 -25 -137 -104 -137c-56 0 -95 24 -109 80c-17 -45 -62 -80 -144 -80c-78 0 -144 36 -144 121c0 99 83 145 283 162v90c0 75 -41 103 -104 103c-52 0 -98 -20 -119 -59c9 6 21 10 35 10c35 0 59 -22 59 -55
c0 -34 -23 -59 -62 -59c-38 0 -64 21 -64 65c0 66 59 122 181 122c130 0 196 -56 196 -163v-249c0 -36 12 -52 33 -52c25 0 43 29 45 102zM221 29c46 0 91 35 91 100v121c-111 -14 -159 -47 -159 -131c0 -62 25 -90 68 -90z" />
    <glyph glyph-name="aogonek" unicode="&#x105;" horiz-adv-x="526" 
d="M467 -161c14 2 28 11 43 22l7 -16c-18 -16 -49 -37 -106 -41c-65 -7 -100 22 -104 61c-3 35 12 52 67 84c18 15 36 27 53 39h-1c-56 0 -95 24 -109 80c-17 -45 -62 -80 -144 -80c-78 0 -144 36 -144 121c0 99 83 145 283 162v90c0 75 -41 103 -104 103
c-52 0 -98 -20 -119 -59c9 6 21 10 35 10c35 0 59 -22 59 -55c0 -34 -23 -59 -62 -59c-38 0 -64 21 -64 65c0 66 59 122 181 122c130 0 196 -56 196 -163v-249c0 -36 12 -52 33 -52c25 0 43 29 45 102l18 -1c-1 -66 -15 -111 -56 -128c-31 -27 -55 -58 -49 -110
c4 -34 18 -51 42 -48zM221 29c46 0 91 35 91 100v121c-111 -14 -159 -47 -159 -131c0 -62 25 -90 68 -90z" />
    <glyph glyph-name="aring" unicode="&#xe5;" horiz-adv-x="526" 
d="M251 533c-76 0 -128 39 -128 98c0 60 52 99 128 100s128 -39 128 -100c0 -59 -52 -97 -128 -98zM251 712c-38 0 -64 -29 -64 -81c0 -50 26 -79 64 -79c39 0 65 29 65 79c0 52 -26 81 -65 81zM512 126l18 -1c-1 -87 -25 -137 -104 -137c-56 0 -95 24 -109 80
c-17 -45 -62 -80 -144 -80c-78 0 -144 36 -144 121c0 99 83 145 283 162v90c0 75 -41 103 -104 103c-52 0 -98 -20 -119 -59c9 6 21 10 35 10c35 0 59 -22 59 -55c0 -34 -23 -59 -62 -59c-38 0 -64 21 -64 65c0 66 59 122 181 122c130 0 196 -56 196 -163v-249
c0 -36 12 -52 33 -52c25 0 43 29 45 102zM221 29c46 0 91 35 91 100v121c-111 -14 -159 -47 -159 -131c0 -62 25 -90 68 -90z" />
    <glyph glyph-name="atilde" unicode="&#xe3;" horiz-adv-x="526" 
d="M173 597c-30 0 -51 -16 -53 -44l-20 3c4 80 39 116 95 116c46 0 99 -33 139 -33c29 0 51 17 52 44l20 -3c-4 -81 -39 -116 -94 -116c-44 0 -96 33 -139 33zM512 126l18 -1c-1 -87 -25 -137 -104 -137c-56 0 -95 24 -109 80c-17 -45 -62 -80 -144 -80
c-78 0 -144 36 -144 121c0 99 83 145 283 162v90c0 75 -41 103 -104 103c-52 0 -98 -20 -119 -59c9 6 21 10 35 10c35 0 59 -22 59 -55c0 -34 -23 -59 -62 -59c-38 0 -64 21 -64 65c0 66 59 122 181 122c130 0 196 -56 196 -163v-249c0 -36 12 -52 33 -52c25 0 43 29 45 102
zM221 29c46 0 91 35 91 100v121c-111 -14 -159 -47 -159 -131c0 -62 25 -90 68 -90z" />
    <glyph glyph-name="ae" unicode="&#xe6;" horiz-adv-x="783" 
d="M731 146l20 -8c-30 -91 -99 -150 -206 -150c-99 0 -187 58 -219 160c-1 -99 -44 -160 -153 -160c-78 0 -144 36 -144 121c0 100 84 145 283 162v90c0 75 -41 103 -104 103c-43 0 -81 -16 -107 -53c7 3 15 4 23 4c36 0 59 -23 59 -55c0 -34 -23 -59 -62 -59
c-38 0 -64 21 -64 65c0 66 59 122 181 122c72 0 124 -20 153 -61c39 40 92 61 146 61c112 0 207 -68 207 -202v-24h-306l-1 -27c0 -138 53 -213 140 -213c68 0 125 46 154 124zM536 465c-51 0 -89 -44 -97 -179h186c-2 129 -34 179 -89 179zM312 155v95
c-111 -14 -159 -47 -159 -131c0 -62 25 -90 68 -90c46 0 91 43 91 126z" />
    <glyph glyph-name="cacute" unicode="&#x107;" horiz-adv-x="496" 
d="M360 620l-140 -86l-13 13l93 128c47 84 152 -1 60 -55zM449 148l21 -7c-31 -94 -87 -153 -192 -153c-119 0 -239 79 -239 251c0 166 117 249 241 249c103 0 171 -54 171 -133c0 -50 -30 -74 -69 -74c-40 0 -63 25 -63 60s24 58 60 58c18 0 32 -5 42 -15
c-16 49 -60 74 -110 74c-77 0 -140 -57 -140 -214c0 -147 55 -221 137 -221c68 0 113 50 141 125z" />
    <glyph glyph-name="ccaron" unicode="&#x10d;" horiz-adv-x="496" 
d="M248 537l-139 156l11 15l139 -77l139 77l10 -15l-138 -156h-22zM449 148l21 -7c-31 -94 -87 -153 -192 -153c-119 0 -239 79 -239 251c0 166 117 249 241 249c103 0 171 -54 171 -133c0 -50 -30 -74 -69 -74c-40 0 -63 25 -63 60s24 58 60 58c18 0 32 -5 42 -15
c-16 49 -60 74 -110 74c-77 0 -140 -57 -140 -214c0 -147 55 -221 137 -221c68 0 113 50 141 125z" />
    <glyph glyph-name="ccedilla" unicode="&#xe7;" horiz-adv-x="496" 
d="M278 -12h-8l-38 -40c12 4 25 5 42 5c61 0 97 -32 97 -69c0 -52 -49 -85 -128 -85c-51 0 -79 20 -94 41l15 13c17 -20 39 -32 65 -32c37 0 53 20 53 56c0 41 -17 52 -42 52c-16 0 -32 -8 -53 -31l-19 9l77 83c-107 13 -206 93 -206 249c0 166 117 249 241 249
c103 0 171 -54 171 -133c0 -50 -30 -74 -69 -74c-40 0 -63 25 -63 60s24 58 60 58c18 0 32 -5 42 -15c-16 49 -60 74 -110 74c-77 0 -140 -57 -140 -214c0 -147 55 -221 137 -221c68 0 113 50 141 125l21 -7c-31 -94 -87 -153 -192 -153z" />
    <glyph glyph-name="ccircumflex" unicode="&#x109;" horiz-adv-x="496" 
d="M259 612l-139 -77l-11 15l139 156h22l138 -156l-10 -15zM449 148l21 -7c-31 -94 -87 -153 -192 -153c-119 0 -239 79 -239 251c0 166 117 249 241 249c103 0 171 -54 171 -133c0 -50 -30 -74 -69 -74c-40 0 -63 25 -63 60s24 58 60 58c18 0 32 -5 42 -15
c-16 49 -60 74 -110 74c-77 0 -140 -57 -140 -214c0 -147 55 -221 137 -221c68 0 113 50 141 125z" />
    <glyph glyph-name="cdotaccent" unicode="&#x10b;" horiz-adv-x="496" 
d="M258 554c-45 0 -74 28 -74 68c0 38 29 66 74 66c43 0 74 -28 74 -66c0 -40 -31 -68 -74 -68zM449 148l21 -7c-31 -94 -87 -153 -192 -153c-119 0 -239 79 -239 251c0 166 117 249 241 249c103 0 171 -54 171 -133c0 -50 -30 -74 -69 -74c-40 0 -63 25 -63 60s24 58 60 58
c18 0 32 -5 42 -15c-16 49 -60 74 -110 74c-77 0 -140 -57 -140 -214c0 -147 55 -221 137 -221c68 0 113 50 141 125z" />
    <glyph glyph-name="eth" unicode="&#xf0;" horiz-adv-x="551" 
d="M327 661c111 -73 185 -193 185 -352c0 -242 -127 -321 -235 -321s-238 79 -238 250c0 170 130 250 238 250c36 0 65 -15 86 -42c-20 84 -54 145 -96 188l-133 -62l-8 19l125 58c-40 36 -86 57 -132 67l2 21c67 -9 130 -30 185 -63l101 47l9 -19zM277 9
c61 0 105 71 105 257c0 117 -39 202 -104 202c-63 0 -107 -65 -107 -230s44 -229 106 -229z" />
    <glyph glyph-name="dcaron" unicode="&#x10f;" horiz-adv-x="591" 
d="M602 741c26 0 45 -20 44 -53c-1 -36 -15 -76 -36 -132h-17c-22 56 -32 96 -33 132c-1 33 16 53 42 53zM502 20h67v-20h-189v84c-26 -67 -75 -96 -142 -96c-96 0 -199 81 -199 250s103 250 197 250c68 0 117 -30 144 -97v305h-74v21h196v-697zM276 29c53 0 107 49 107 209
s-54 209 -108 209c-53 0 -104 -47 -104 -209s52 -209 105 -209z" />
    <glyph glyph-name="dcroat" unicode="&#x111;" horiz-adv-x="588" 
d="M569 585h-67v-565h67v-20h-189v84c-26 -67 -75 -96 -142 -96c-96 0 -199 81 -199 250s103 250 197 250c68 0 117 -30 144 -97v194h-180v22h180v89h-74v21h196v-110h67v-22zM276 29c53 0 107 49 107 209s-54 209 -108 209c-53 0 -104 -47 -104 -209s52 -209 105 -209z" />
    <glyph glyph-name="eacute" unicode="&#xe9;" 
d="M366 618l-140 -86l-13 13l93 128c47 84 152 -1 60 -55zM464 146l20 -8c-30 -91 -99 -150 -206 -150c-128 0 -239 93 -239 252c0 163 112 248 231 248c112 0 207 -68 207 -202v-24h-307v-15c0 -147 51 -225 140 -225c68 0 125 46 154 124zM269 465c-52 0 -92 -45 -98 -179
h187c-2 129 -33 179 -89 179z" />
    <glyph glyph-name="ebreve" unicode="&#x115;" 
d="M264 541c-107 0 -142 76 -142 167h19c1 -57 46 -87 123 -87c76 0 121 30 122 87h19c0 -91 -35 -167 -141 -167zM464 146l20 -8c-30 -91 -99 -150 -206 -150c-128 0 -239 93 -239 252c0 163 112 248 231 248c112 0 207 -68 207 -202v-24h-307v-15c0 -147 51 -225 140 -225
c68 0 125 46 154 124zM269 465c-52 0 -92 -45 -98 -179h187c-2 129 -33 179 -89 179z" />
    <glyph glyph-name="ecaron" unicode="&#x11b;" 
d="M253 535l-139 156l11 15l139 -77l139 77l10 -15l-138 -156h-22zM464 146l20 -8c-30 -91 -99 -150 -206 -150c-128 0 -239 93 -239 252c0 163 112 248 231 248c112 0 207 -68 207 -202v-24h-307v-15c0 -147 51 -225 140 -225c68 0 125 46 154 124zM269 465
c-52 0 -92 -45 -98 -179h187c-2 129 -33 179 -89 179z" />
    <glyph glyph-name="ecircumflex" unicode="&#xea;" 
d="M264 610l-139 -77l-11 15l139 156h22l138 -156l-10 -15zM464 146l20 -8c-30 -91 -99 -150 -206 -150c-128 0 -239 93 -239 252c0 163 112 248 231 248c112 0 207 -68 207 -202v-24h-307v-15c0 -147 51 -225 140 -225c68 0 125 46 154 124zM269 465
c-52 0 -92 -45 -98 -179h187c-2 129 -33 179 -89 179z" />
    <glyph glyph-name="edieresis" unicode="&#xeb;" 
d="M169 550c-39 0 -64 25 -64 61c0 34 25 60 64 60c37 0 64 -26 64 -60c0 -36 -27 -61 -64 -61zM360 550c-40 0 -65 25 -65 61c0 34 25 60 65 60c37 0 63 -26 63 -60c0 -36 -26 -61 -63 -61zM464 146l20 -8c-30 -91 -99 -150 -206 -150c-128 0 -239 93 -239 252
c0 163 112 248 231 248c112 0 207 -68 207 -202v-24h-307v-15c0 -147 51 -225 140 -225c68 0 125 46 154 124zM269 465c-52 0 -92 -45 -98 -179h187c-2 129 -33 179 -89 179z" />
    <glyph glyph-name="edotaccent" unicode="&#x117;" 
d="M264 552c-45 0 -74 28 -74 68c0 38 29 66 74 66c43 0 74 -28 74 -66c0 -40 -31 -68 -74 -68zM464 146l20 -8c-30 -91 -99 -150 -206 -150c-128 0 -239 93 -239 252c0 163 112 248 231 248c112 0 207 -68 207 -202v-24h-307v-15c0 -147 51 -225 140 -225
c68 0 125 46 154 124zM269 465c-52 0 -92 -45 -98 -179h187c-2 129 -33 179 -89 179z" />
    <glyph glyph-name="egrave" unicode="&#xe8;" 
d="M162 618c-92 54 13 139 60 55l93 -128l-13 -13zM464 146l20 -8c-30 -91 -99 -150 -206 -150c-128 0 -239 93 -239 252c0 163 112 248 231 248c112 0 207 -68 207 -202v-24h-307v-15c0 -147 51 -225 140 -225c68 0 125 46 154 124zM269 465c-52 0 -92 -45 -98 -179h187
c-2 129 -33 179 -89 179z" />
    <glyph glyph-name="emacron" unicode="&#x113;" 
d="M409 623v-55h-291v55h291zM464 146l20 -8c-30 -91 -99 -150 -206 -150c-128 0 -239 93 -239 252c0 163 112 248 231 248c112 0 207 -68 207 -202v-24h-307v-15c0 -147 51 -225 140 -225c68 0 125 46 154 124zM269 465c-52 0 -92 -45 -98 -179h187c-2 129 -33 179 -89 179
z" />
    <glyph glyph-name="eogonek" unicode="&#x119;" 
d="M371 6c-35 -23 -56 -62 -51 -117c4 -35 17 -52 41 -50c16 2 31 11 46 21l7 -17c-19 -16 -52 -35 -110 -38c-66 -6 -101 26 -104 66c-3 35 14 57 70 88c15 11 28 22 41 31c-11 -1 -22 -2 -33 -2c-128 0 -239 93 -239 252c0 163 112 248 231 248c112 0 207 -68 207 -202
v-24h-307v-15c0 -147 51 -225 140 -225c68 0 125 46 154 124l20 -8c-20 -61 -58 -108 -113 -132zM269 465c-52 0 -92 -45 -98 -179h187c-2 129 -33 179 -89 179z" />
    <glyph glyph-name="gbreve" unicode="&#x11f;" horiz-adv-x="514" 
d="M244 543c-107 0 -142 76 -142 167h19c1 -57 46 -87 123 -87c76 0 121 30 122 87h19c0 -91 -35 -167 -141 -167zM414 522c0 17 7 28 18 34c-40 -11 -65 -47 -69 -99c49 -29 82 -75 82 -134c0 -102 -96 -166 -201 -166c-22 0 -43 3 -63 8c-23 -13 -50 -31 -50 -57
c0 -38 63 -36 158 -42c142 -7 188 -48 188 -121c0 -109 -112 -144 -240 -144c-122 0 -218 31 -218 100c0 43 44 71 101 86c-48 15 -72 41 -72 82c0 58 50 85 106 105c-63 26 -110 78 -110 149c0 101 96 165 200 165c36 0 72 -8 102 -22c6 64 49 110 109 110
c40 0 61 -22 61 -52c0 -32 -23 -50 -51 -50c-27 0 -51 17 -51 48zM244 177c50 0 85 46 85 146c0 99 -35 145 -85 145c-49 0 -83 -46 -83 -145c0 -100 34 -146 83 -146zM388 -95c0 48 -46 62 -152 66c-30 1 -57 3 -80 7c-29 -16 -47 -38 -47 -70c0 -55 51 -84 136 -84
c89 0 143 30 143 81z" />
    <glyph glyph-name="gcircumflex" unicode="&#x11d;" horiz-adv-x="514" 
d="M414 522c0 17 7 28 18 34c-40 -11 -65 -47 -69 -99c49 -29 82 -75 82 -134c0 -102 -96 -166 -201 -166c-22 0 -43 3 -63 8c-23 -13 -50 -31 -50 -57c0 -38 63 -36 158 -42c142 -7 188 -48 188 -121c0 -109 -112 -144 -240 -144c-122 0 -218 31 -218 100
c0 43 44 71 101 86c-48 15 -72 41 -72 82c0 58 50 85 106 105c-63 26 -110 78 -110 149c0 101 96 165 200 165c36 0 72 -8 102 -22c3 29 13 54 29 73l-131 73l-139 -77l-11 15l139 156h22l135 -152c18 14 40 22 65 22c40 0 61 -22 61 -52c0 -32 -23 -50 -51 -50
c-27 0 -51 17 -51 48zM244 177c50 0 85 46 85 146c0 99 -35 145 -85 145c-49 0 -83 -46 -83 -145c0 -100 34 -146 83 -146zM388 -95c0 48 -46 62 -152 66c-30 1 -57 3 -80 7c-29 -16 -47 -38 -47 -70c0 -55 51 -84 136 -84c89 0 143 30 143 81z" />
    <glyph glyph-name="uni0123" unicode="&#x123;" horiz-adv-x="514" 
d="M247 524c-34 0 -59 23 -59 64c0 56 40 114 102 132l7 -14c-44 -16 -69 -49 -81 -82c8 5 19 8 32 8c33 0 55 -23 55 -55c0 -31 -23 -53 -56 -53zM414 522c0 17 7 28 18 34c-40 -11 -65 -47 -69 -99c49 -29 82 -75 82 -134c0 -102 -96 -166 -201 -166c-22 0 -43 3 -63 8
c-23 -13 -50 -31 -50 -57c0 -38 63 -36 158 -42c142 -7 188 -48 188 -121c0 -109 -112 -144 -240 -144c-122 0 -218 31 -218 100c0 43 44 71 101 86c-48 15 -72 41 -72 82c0 58 50 85 106 105c-63 26 -110 78 -110 149c0 101 96 165 200 165c36 0 72 -8 102 -22
c6 64 49 110 109 110c40 0 61 -22 61 -52c0 -32 -23 -50 -51 -50c-27 0 -51 17 -51 48zM244 177c50 0 85 46 85 146c0 99 -35 145 -85 145c-49 0 -83 -46 -83 -145c0 -100 34 -146 83 -146zM388 -95c0 48 -46 62 -152 66c-30 1 -57 3 -80 7c-29 -16 -47 -38 -47 -70
c0 -55 51 -84 136 -84c89 0 143 30 143 81z" />
    <glyph glyph-name="gdotaccent" unicode="&#x121;" horiz-adv-x="514" 
d="M244 554c-45 0 -74 28 -74 68c0 38 29 66 74 66c43 0 74 -28 74 -66c0 -40 -31 -68 -74 -68zM414 522c0 17 7 28 18 34c-40 -11 -65 -47 -69 -99c49 -29 82 -75 82 -134c0 -102 -96 -166 -201 -166c-22 0 -43 3 -63 8c-23 -13 -50 -31 -50 -57c0 -38 63 -36 158 -42
c142 -7 188 -48 188 -121c0 -109 -112 -144 -240 -144c-122 0 -218 31 -218 100c0 43 44 71 101 86c-48 15 -72 41 -72 82c0 58 50 85 106 105c-63 26 -110 78 -110 149c0 101 96 165 200 165c36 0 72 -8 102 -22c6 64 49 110 109 110c40 0 61 -22 61 -52
c0 -32 -23 -50 -51 -50c-27 0 -51 17 -51 48zM244 177c50 0 85 46 85 146c0 99 -35 145 -85 145c-49 0 -83 -46 -83 -145c0 -100 34 -146 83 -146zM388 -95c0 48 -46 62 -152 66c-30 1 -57 3 -80 7c-29 -16 -47 -38 -47 -70c0 -55 51 -84 136 -84c89 0 143 30 143 81z" />
    <glyph glyph-name="hbar" unicode="&#x127;" horiz-adv-x="591" 
d="M504 20h67v-20h-237v20h48v335c0 58 -26 82 -65 82c-42 0 -83 -27 -107 -87v-330h53v-20h-242v20h67v565h-67v22h67v90h-67v20h189v-110h159v-22h-159v-194c29 62 90 97 160 97c78 0 134 -42 134 -136v-332z" />
    <glyph glyph-name="hcircumflex" unicode="&#x125;" horiz-adv-x="591" 
d="M295 840l-146 -63l-11 15l147 128h21l147 -128l-11 -15zM504 20h67v-20h-237v20h48v335c0 58 -26 82 -65 82c-42 0 -83 -27 -107 -87v-330h53v-20h-242v20h67v677h-67v20h189v-326c29 62 90 97 160 97c78 0 134 -42 134 -136v-332z" />
    <glyph glyph-name="dotlessi" unicode="&#x131;" horiz-adv-x="297" 
d="M209 20h67v-20h-255v20h67v436h-67v20h188v-456z" />
    <glyph glyph-name="iacute" unicode="&#xed;" horiz-adv-x="297" 
d="M238 637l-112 -115l-16 9l58 146c29 97 147 33 70 -40zM209 20h67v-20h-255v20h67v436h-67v20h188v-456z" />
    <glyph glyph-name="ibreve" unicode="&#x12d;" horiz-adv-x="297" 
d="M148 542c-98 0 -127 74 -128 161h19c2 -54 41 -82 109 -82c67 0 106 28 108 82h19c-1 -87 -30 -161 -127 -161zM209 20h67v-20h-255v20h67v436h-67v20h188v-456z" />
    <glyph glyph-name="icircumflex" unicode="&#xee;" horiz-adv-x="297" 
d="M148 616l-127 -84l-10 16l125 164h23l125 -164l-10 -16zM209 20h67v-20h-255v20h67v436h-67v20h188v-456z" />
    <glyph glyph-name="idieresis" unicode="&#xef;" horiz-adv-x="297" 
d="M128 616c0 -35 -27 -61 -64 -61c-39 0 -64 26 -64 61s25 61 64 61c37 0 64 -26 64 -61zM232 677c37 0 63 -26 63 -61s-26 -61 -63 -61c-39 0 -64 26 -64 61s25 61 64 61zM209 20h67v-20h-255v20h67v436h-67v20h188v-456z" />
    <glyph glyph-name="igrave" unicode="&#xec;" horiz-adv-x="297" 
d="M54 634c-80 70 37 138 69 42l60 -146l-15 -9zM209 20h67v-20h-255v20h67v436h-67v20h188v-456z" />
    <glyph glyph-name="ij" unicode="&#x133;" horiz-adv-x="587" 
d="M143 574c-42 0 -74 27 -74 67s32 67 74 67c43 0 76 -27 76 -67s-33 -67 -76 -67zM442 573c-43 0 -74 27 -74 67s31 67 74 67s76 -27 76 -67s-33 -67 -76 -67zM276 20v-20h-255v20h67v436h-67v20h188v-456h67zM510 476v-519c0 -135 -95 -169 -173 -169
c-67 0 -101 33 -101 81c0 39 24 59 53 59c31 0 48 -19 48 -47s-21 -46 -47 -46c-11 0 -21 3 -29 9c10 -21 31 -34 59 -34c41 0 68 29 68 92v554h-68v20h190z" />
    <glyph glyph-name="imacron" unicode="&#x12b;" horiz-adv-x="297" 
d="M274 630v-55h-252v55h252zM209 20h67v-20h-255v20h67v436h-67v20h188v-456z" />
    <glyph glyph-name="iogonek" unicode="&#x12f;" horiz-adv-x="297" 
d="M148 552c-45 0 -74 28 -74 68c0 38 29 66 74 66c43 0 74 -28 74 -66c0 -40 -31 -68 -74 -68zM267 0c-50 -7 -88 -41 -88 -108c0 -35 11 -54 36 -54c15 0 31 6 48 15l5 -17c-20 -14 -54 -31 -113 -31c-66 0 -97 34 -97 74c0 36 18 55 77 83c23 16 46 29 68 38h-182v20h67
v436h-67v20h188v-456h67v-20h-9z" />
    <glyph glyph-name="itilde" unicode="&#x129;" horiz-adv-x="297" 
d="M84 595c-27 0 -45 -14 -47 -43l-18 2c3 81 31 119 81 119c40 0 83 -34 116 -34c25 0 42 15 44 43l18 -2c-3 -82 -30 -119 -77 -119c-36 0 -80 34 -117 34zM209 20h67v-20h-255v20h67v436h-67v20h188v-456z" />
    <glyph glyph-name="uni0237" unicode="&#x237;" horiz-adv-x="290" 
d="M213 476v-519c0 -135 -95 -169 -173 -169c-67 0 -101 33 -101 81c0 39 24 59 53 59c31 0 48 -19 48 -47s-21 -46 -47 -46c-11 0 -21 3 -29 9c10 -21 31 -34 59 -34c41 0 68 29 68 92v554h-68v20h190z" />
    <glyph glyph-name="jcircumflex" unicode="&#x135;" horiz-adv-x="290" 
d="M156 712l125 -164l-10 -16l-126 84l-127 -84l-10 16l125 164h23zM213 476v-519c0 -135 -95 -169 -173 -169c-67 0 -101 33 -101 81c0 39 24 59 53 59c31 0 48 -19 48 -47s-21 -46 -47 -46c-11 0 -21 3 -29 9c10 -21 31 -34 59 -34c41 0 68 29 68 92v554h-68v20h190z" />
    <glyph glyph-name="uni0137" unicode="&#x137;" horiz-adv-x="568" 
d="M517 21h54v-21h-255v21h58l-129 231l-36 -35v-197h54v-20h-242v20h67v675h-67v20h188v-466l151 149c29 28 16 58 -22 58h-20v20h208v-20h-11c-46 -5 -88 -25 -131 -66l-51 -50zM282 -46c34 0 60 -23 60 -64c0 -56 -41 -114 -103 -132l-7 14c44 16 70 49 81 82
c-8 -5 -18 -8 -31 -8c-34 0 -56 23 -56 55c0 31 23 53 56 53z" />
    <glyph glyph-name="kgreenlandic" unicode="&#x138;" horiz-adv-x="568" 
d="M517 21h54v-21h-255v21h58l-129 231l-36 -35v-197h54v-20h-242v20h67v436h-67v20h188v-227l151 149c29 27 16 58 -22 58h-20v20h208v-20h-11c-46 -5 -88 -25 -131 -66l-51 -50z" />
    <glyph glyph-name="lacute" unicode="&#x13a;" horiz-adv-x="297" 
d="M225 895c73 75 145 -25 47 -60l-170 -53l-10 14zM210 715v-695h67v-20h-256v20h67v675h-67v20h189z" />
    <glyph glyph-name="lcaron" unicode="&#x13e;" horiz-adv-x="297" 
d="M299 798c26 0 45 -20 44 -53c-1 -36 -15 -76 -36 -132h-17c-22 56 -32 96 -33 132c-1 33 16 53 42 53zM210 715v-695h67v-20h-256v20h67v675h-67v20h189z" />
    <glyph glyph-name="uni013C" unicode="&#x13c;" horiz-adv-x="297" 
d="M210 20h67v-20h-256v20h67v675h-67v20h189v-695zM146 -46c34 0 60 -23 60 -64c0 -56 -41 -114 -103 -132l-7 14c44 16 70 49 81 82c-8 -5 -18 -8 -31 -8c-34 0 -56 23 -56 55c0 31 23 53 56 53z" />
    <glyph glyph-name="ldot" unicode="&#x140;" horiz-adv-x="379" 
d="M210 715v-695h67v-20h-256v20h67v675h-67v20h189zM337 481c44 0 75 -31 75 -72c0 -40 -31 -70 -75 -70s-74 30 -74 70c0 41 30 72 74 72z" />
    <glyph glyph-name="lslash" unicode="&#x142;" horiz-adv-x="297" 
d="M210 429v-409h67v-20h-256v20h67v332l-56 -35l-11 18l67 42v318h-67v20h189v-261l56 35l11 -18z" />
    <glyph glyph-name="nacute" unicode="&#x144;" horiz-adv-x="592" 
d="M399 618l-140 -86l-13 13l93 128c47 84 152 -1 60 -55zM505 20h67v-20h-239v20h50v335c0 58 -25 82 -64 82c-42 0 -85 -27 -109 -89v-328h51v-20h-240v20h67v436h-67v20h189v-87c29 62 90 99 161 99c78 0 134 -42 134 -136v-332z" />
    <glyph glyph-name="ncaron" unicode="&#x148;" horiz-adv-x="592" 
d="M286 535l-139 156l11 15l139 -77l139 77l10 -15l-138 -156h-22zM505 20h67v-20h-239v20h50v335c0 58 -25 82 -64 82c-42 0 -85 -27 -109 -89v-328h51v-20h-240v20h67v436h-67v20h189v-87c29 62 90 99 161 99c78 0 134 -42 134 -136v-332z" />
    <glyph glyph-name="uni0146" unicode="&#x146;" horiz-adv-x="592" 
d="M505 20h67v-20h-239v20h50v335c0 58 -25 82 -64 82c-42 0 -85 -27 -109 -89v-328h51v-20h-240v20h67v436h-67v20h189v-87c29 62 90 99 161 99c78 0 134 -42 134 -136v-332zM294 -46c34 0 60 -23 60 -64c0 -56 -41 -114 -103 -132l-7 14c44 16 70 49 81 82
c-8 -5 -18 -8 -31 -8c-34 0 -56 23 -56 55c0 31 23 53 56 53z" />
    <glyph glyph-name="eng" unicode="&#x14b;" horiz-adv-x="586" 
d="M371 488c78 0 134 -42 134 -136v-395c0 -135 -95 -169 -173 -169c-67 0 -101 33 -101 81c0 39 24 59 54 59s47 -19 47 -47s-21 -46 -47 -46c-11 0 -21 3 -29 9c10 -21 31 -34 59 -34c41 0 68 29 68 92v453c0 58 -25 82 -64 82c-42 0 -85 -27 -109 -89v-328h51v-20h-240
v20h67v436h-67v20h189v-87c29 62 90 99 161 99z" />
    <glyph glyph-name="ntilde" unicode="&#xf1;" horiz-adv-x="592" 
d="M218 597c-30 0 -51 -16 -53 -44l-20 3c4 80 39 116 95 116c46 0 99 -33 139 -33c29 0 51 17 52 44l20 -3c-4 -81 -39 -116 -94 -116c-44 0 -96 33 -139 33zM505 20h67v-20h-239v20h50v335c0 58 -25 82 -64 82c-42 0 -85 -27 -109 -89v-328h51v-20h-240v20h67v436h-67v20
h189v-87c29 62 90 99 161 99c78 0 134 -42 134 -136v-332z" />
    <glyph glyph-name="oacute" unicode="&#xf3;" horiz-adv-x="551" 
d="M225 545l93 128c47 84 152 -1 60 -55l-140 -86zM277 -12c-108 0 -238 79 -238 250c0 170 130 250 238 250c107 0 236 -80 236 -250c0 -171 -128 -250 -236 -250zM277 9c61 0 104 64 104 229s-43 229 -104 229c-62 0 -106 -64 -106 -229s44 -229 106 -229z" />
    <glyph glyph-name="obreve" unicode="&#x14f;" horiz-adv-x="551" 
d="M276 541c-107 0 -142 76 -142 167h19c1 -57 46 -87 123 -87c76 0 121 30 122 87h19c0 -91 -35 -167 -141 -167zM277 488c107 0 236 -80 236 -250c0 -171 -128 -250 -236 -250s-238 79 -238 250c0 170 130 250 238 250zM277 9c61 0 104 64 104 229s-43 229 -104 229
c-62 0 -106 -64 -106 -229s44 -229 106 -229z" />
    <glyph glyph-name="ocircumflex" unicode="&#xf4;" horiz-adv-x="551" 
d="M276 610l-139 -77l-11 15l139 156h22l138 -156l-10 -15zM277 488c107 0 236 -80 236 -250c0 -171 -128 -250 -236 -250s-238 79 -238 250c0 170 130 250 238 250zM277 9c61 0 104 64 104 229s-43 229 -104 229c-62 0 -106 -64 -106 -229s44 -229 106 -229z" />
    <glyph glyph-name="odieresis" unicode="&#xf6;" horiz-adv-x="551" 
d="M181 550c-39 0 -64 25 -64 61c0 34 25 60 64 60c37 0 64 -26 64 -60c0 -36 -27 -61 -64 -61zM372 550c-40 0 -65 25 -65 61c0 34 25 60 65 60c37 0 63 -26 63 -60c0 -36 -26 -61 -63 -61zM277 -12c-108 0 -238 79 -238 250c0 170 130 250 238 250c107 0 236 -80 236 -250
c0 -171 -128 -250 -236 -250zM277 9c61 0 104 64 104 229s-43 229 -104 229c-62 0 -106 -64 -106 -229s44 -229 106 -229z" />
    <glyph glyph-name="ograve" unicode="&#xf2;" horiz-adv-x="551" 
d="M327 545l-93 128c-47 84 -152 -1 -60 -55l140 -86zM277 -12c-108 0 -238 79 -238 250c0 170 130 250 238 250c107 0 236 -80 236 -250c0 -171 -128 -250 -236 -250zM277 9c61 0 104 64 104 229s-43 229 -104 229c-62 0 -106 -64 -106 -229s44 -229 106 -229z" />
    <glyph glyph-name="ohungarumlaut" unicode="&#x151;" horiz-adv-x="551" 
d="M168 542l77 132c33 90 146 20 69 -43l-132 -99zM344 542l76 132c33 90 147 20 70 -43l-132 -99zM277 -12c-108 0 -238 79 -238 250c0 170 130 250 238 250c107 0 236 -80 236 -250c0 -171 -128 -250 -236 -250zM277 9c61 0 104 64 104 229s-43 229 -104 229
c-62 0 -106 -64 -106 -229s44 -229 106 -229z" />
    <glyph glyph-name="omacron" unicode="&#x14d;" horiz-adv-x="551" 
d="M422 623v-55h-291v55h291zM277 -12c-108 0 -238 79 -238 250c0 170 130 250 238 250c107 0 236 -80 236 -250c0 -171 -128 -250 -236 -250zM277 9c61 0 104 64 104 229s-43 229 -104 229c-62 0 -106 -64 -106 -229s44 -229 106 -229z" />
    <glyph glyph-name="oslash" unicode="&#xf8;" horiz-adv-x="551" 
d="M453 409c36 -41 60 -97 60 -171c0 -171 -128 -250 -236 -250c-55 0 -115 20 -161 62l-59 -62l-17 17l59 63c-36 40 -60 97 -60 170c0 170 130 250 238 250c54 0 114 -20 159 -62l59 62l17 -16zM171 238c0 -34 2 -63 5 -88l195 206c-16 79 -51 111 -94 111
c-62 0 -106 -64 -106 -229zM277 9c61 0 104 64 104 229c0 34 -2 63 -5 89l-195 -207c17 -78 52 -111 96 -111z" />
    <glyph glyph-name="otilde" unicode="&#xf5;" horiz-adv-x="551" 
d="M430 680c-4 -81 -39 -116 -94 -116c-44 0 -96 33 -139 33c-30 0 -51 -16 -53 -44l-20 3c4 80 39 116 95 116c46 0 99 -33 139 -33c29 0 51 17 52 44zM277 -12c-108 0 -238 79 -238 250c0 170 130 250 238 250c107 0 236 -80 236 -250c0 -171 -128 -250 -236 -250zM277 9
c61 0 104 64 104 229s-43 229 -104 229c-62 0 -106 -64 -106 -229s44 -229 106 -229z" />
    <glyph glyph-name="oe" unicode="&#x153;" horiz-adv-x="857" 
d="M805 146l20 -8c-30 -91 -99 -150 -206 -150c-67 0 -129 26 -172 73c-47 -49 -111 -73 -170 -73c-108 0 -238 79 -238 250c0 170 130 250 238 250c58 0 121 -23 167 -71c43 47 104 71 168 71c111 0 206 -68 206 -202v-24h-307v-15c0 -147 52 -225 140 -225
c68 0 125 46 154 124zM277 9c61 0 104 64 104 229s-43 229 -104 229c-62 0 -106 -64 -106 -229s44 -229 106 -229zM610 465c-52 0 -92 -45 -98 -179h187c-2 129 -33 179 -89 179z" />
    <glyph glyph-name="thorn" unicode="&#xfe;" horiz-adv-x="588" 
d="M353 488c93 0 196 -81 196 -250s-103 -250 -199 -250c-66 0 -114 28 -141 93v-246h84v-20h-273v20h67v858h-67v20h273v-20h-84v-300c27 66 76 95 144 95zM313 29c53 0 104 47 104 209s-51 209 -104 209c-55 0 -108 -49 -108 -209c0 -161 53 -209 108 -209z" />
    <glyph glyph-name="racute" unicode="&#x155;" horiz-adv-x="460" 
d="M343 618l-140 -86l-13 13l93 128c47 84 152 -1 60 -55zM330 488c66 0 100 -45 100 -100c0 -52 -28 -79 -69 -79c-40 0 -65 25 -65 61s26 61 62 61c23 0 40 -11 50 -26c-7 40 -35 64 -77 64c-69 0 -121 -59 -121 -163v-286h85v-20h-274v20h67v436h-67v20h189v-77
c18 53 60 89 120 89z" />
    <glyph glyph-name="rcaron" unicode="&#x159;" horiz-adv-x="460" 
d="M230 535l-139 156l11 15l139 -77l139 77l10 -15l-138 -156h-22zM330 488c66 0 100 -45 100 -100c0 -52 -28 -79 -69 -79c-40 0 -65 25 -65 61s26 61 62 61c23 0 40 -11 50 -26c-7 40 -35 64 -77 64c-69 0 -121 -59 -121 -163v-286h85v-20h-274v20h67v436h-67v20h189v-77
c18 53 60 89 120 89z" />
    <glyph glyph-name="uni0157" unicode="&#x157;" horiz-adv-x="460" 
d="M330 488c66 0 100 -45 100 -100c0 -52 -28 -79 -69 -79c-40 0 -65 25 -65 61s26 61 62 61c23 0 40 -11 50 -26c-7 40 -35 64 -77 64c-69 0 -121 -59 -121 -163v-286h85v-20h-274v20h67v436h-67v20h189v-77c18 53 60 89 120 89zM189 -46c34 0 60 -23 60 -64
c0 -56 -41 -114 -103 -132l-7 14c44 16 70 49 81 82c-8 -5 -18 -8 -31 -8c-34 0 -56 23 -56 55c0 31 23 53 56 53z" />
    <glyph glyph-name="sacute" unicode="&#x15b;" horiz-adv-x="433" 
d="M166 545l93 128c47 84 152 -1 60 -55l-140 -86zM237 -12c-70 0 -110 33 -140 33c-21 0 -34 -11 -40 -27h-15l-2 169h15c29 -102 116 -153 181 -153c52 0 85 26 85 72c0 52 -45 75 -131 104c-95 33 -148 82 -148 165c0 94 73 137 151 137c66 0 96 -29 126 -29
c20 0 30 12 33 27h14v-143h-13c-33 81 -95 125 -156 124c-48 0 -80 -25 -80 -64c0 -49 51 -71 121 -97c92 -33 158 -72 158 -168c0 -104 -79 -150 -159 -150z" />
    <glyph glyph-name="scaron" unicode="&#x161;" horiz-adv-x="433" 
d="M206 535l-139 156l11 15l139 -77l139 77l10 -15l-138 -156h-22zM238 306c92 -33 158 -72 158 -168c0 -104 -79 -150 -159 -150c-70 0 -110 33 -140 33c-21 0 -34 -11 -40 -27h-15l-2 169h15c29 -102 116 -153 181 -153c52 0 85 26 85 72c0 52 -45 75 -131 104
c-95 33 -148 82 -148 165c0 94 73 137 151 137c66 0 96 -29 126 -29c20 0 30 12 33 27h14v-143h-13c-33 81 -95 125 -156 124c-48 0 -80 -25 -80 -64c0 -49 51 -71 121 -97z" />
    <glyph glyph-name="scedilla" unicode="&#x15f;" horiz-adv-x="433" 
d="M237 -12h-8l-37 -39c12 4 25 5 42 5c61 0 97 -32 97 -69c0 -52 -49 -85 -128 -85c-51 0 -79 20 -94 41l15 13c17 -20 39 -32 65 -32c37 0 53 20 53 56c0 41 -17 52 -42 52c-16 0 -32 -8 -53 -31l-19 9l77 82c-51 8 -83 31 -108 31c-21 0 -34 -11 -40 -27h-15l-2 169h15
c29 -102 116 -153 181 -153c52 0 85 26 85 72c0 52 -45 75 -131 104c-95 33 -148 82 -148 165c0 94 73 137 151 137c66 0 96 -29 126 -29c20 0 30 12 33 27h14v-143h-13c-33 81 -95 125 -156 124c-48 0 -80 -25 -80 -64c0 -49 51 -71 121 -97c92 -33 158 -72 158 -168
c0 -104 -79 -150 -159 -150z" />
    <glyph glyph-name="scircumflex" unicode="&#x15d;" horiz-adv-x="433" 
d="M217 610l-139 -77l-11 15l139 156h22l138 -156l-10 -15zM238 306c92 -33 158 -72 158 -168c0 -104 -79 -150 -159 -150c-70 0 -110 33 -140 33c-21 0 -34 -11 -40 -27h-15l-2 169h15c29 -102 116 -153 181 -153c52 0 85 26 85 72c0 52 -45 75 -131 104
c-95 33 -148 82 -148 165c0 94 73 137 151 137c66 0 96 -29 126 -29c20 0 30 12 33 27h14v-143h-13c-33 81 -95 125 -156 124c-48 0 -80 -25 -80 -64c0 -49 51 -71 121 -97z" />
    <glyph glyph-name="sacute.salt" horiz-adv-x="432" 
d="M319 618l-140 -86l-13 13l93 128c47 84 152 -1 60 -55zM253 296c67 -26 137 -58 137 -151c0 -103 -79 -157 -191 -157c-93 0 -158 43 -158 106c0 38 24 57 54 57s50 -18 50 -47s-20 -47 -50 -47c-9 0 -17 2 -23 5c20 -31 65 -53 122 -53c74 0 107 39 107 87
c0 57 -49 81 -104 103c-71 29 -152 58 -152 154c0 91 77 138 174 138c88 0 152 -42 152 -95c0 -37 -25 -53 -52 -53c-30 0 -48 20 -48 47c0 26 20 43 45 43c8 0 15 -2 21 -4c-23 26 -67 40 -108 40c-65 0 -98 -34 -98 -75c0 -55 60 -73 122 -98z" />
    <glyph glyph-name="scaron.salt" horiz-adv-x="432" 
d="M207 535l-139 156l11 15l139 -77l139 77l10 -15l-138 -156h-22zM253 296c67 -26 137 -58 137 -151c0 -103 -79 -157 -191 -157c-93 0 -158 43 -158 106c0 38 24 57 54 57s50 -18 50 -47s-20 -47 -50 -47c-9 0 -17 2 -23 5c20 -31 65 -53 122 -53c74 0 107 39 107 87
c0 57 -49 81 -104 103c-71 29 -152 58 -152 154c0 91 77 138 174 138c88 0 152 -42 152 -95c0 -37 -25 -53 -52 -53c-30 0 -48 20 -48 47c0 26 20 43 45 43c8 0 15 -2 21 -4c-23 26 -67 40 -108 40c-65 0 -98 -34 -98 -75c0 -55 60 -73 122 -98z" />
    <glyph glyph-name="scedilla.salt" horiz-adv-x="432" 
d="M390 145c0 -95 -68 -149 -167 -156l-37 -40c12 4 25 5 42 5c61 0 97 -32 97 -69c0 -52 -49 -85 -128 -85c-51 0 -79 20 -94 41l15 13c17 -20 39 -32 65 -32c37 0 53 20 53 56c0 41 -17 52 -42 52c-16 0 -32 -8 -53 -31l-19 9l75 80c-92 1 -156 44 -156 106
c0 38 24 57 54 57s50 -18 50 -47s-20 -47 -50 -47c-9 0 -17 2 -23 5c20 -31 65 -53 122 -53c74 0 107 39 107 87c0 57 -49 81 -104 103c-71 29 -152 58 -152 154c0 91 77 138 174 138c88 0 152 -42 152 -95c0 -37 -25 -53 -52 -53c-30 0 -48 20 -48 47c0 26 20 43 45 43
c8 0 15 -2 21 -4c-23 26 -67 40 -108 40c-65 0 -98 -34 -98 -75c0 -55 60 -73 122 -98c67 -26 137 -58 137 -151z" />
    <glyph glyph-name="scircumflex.salt" horiz-adv-x="432" 
d="M217 610l-139 -77l-11 15l139 156h22l138 -156l-10 -15zM253 296c67 -26 137 -58 137 -151c0 -103 -79 -157 -191 -157c-93 0 -158 43 -158 106c0 38 24 57 54 57s50 -18 50 -47s-20 -47 -50 -47c-9 0 -17 2 -23 5c20 -31 65 -53 122 -53c74 0 107 39 107 87
c0 57 -49 81 -104 103c-71 29 -152 58 -152 154c0 91 77 138 174 138c88 0 152 -42 152 -95c0 -37 -25 -53 -52 -53c-30 0 -48 20 -48 47c0 26 20 43 45 43c8 0 15 -2 21 -4c-23 26 -67 40 -108 40c-65 0 -98 -34 -98 -75c0 -55 60 -73 122 -98z" />
    <glyph glyph-name="tbar" unicode="&#x167;" horiz-adv-x="361" 
d="M316 148l20 -2c-9 -97 -28 -158 -125 -158c-70 0 -127 31 -127 141v161h-82v21h82v144h-82v21h82v151h122v-151h117v-21h-117v-144h117v-21h-117v-196c0 -57 16 -75 42 -75c39 0 59 41 68 129z" />
    <glyph glyph-name="tcaron" unicode="&#x165;" horiz-adv-x="361" 
d="M335 741c26 0 45 -20 44 -53c-1 -36 -15 -76 -36 -132h-17c-22 56 -32 96 -33 132c-1 33 16 53 42 53zM248 19c39 0 59 41 68 129l20 -2c-9 -97 -28 -158 -125 -158c-70 0 -127 31 -127 141v326h-82v21h82v151h122v-151h117v-21h-117v-361c0 -57 16 -75 42 -75z" />
    <glyph glyph-name="uni0163" unicode="&#x163;" horiz-adv-x="361" 
d="M204 -43c61 0 97 -32 97 -69c0 -52 -49 -85 -128 -85c-51 0 -79 20 -94 41l15 13c17 -20 39 -32 65 -32c37 0 53 20 53 56c0 41 -17 52 -42 52c-16 0 -32 -8 -53 -31l-19 9l75 81c-51 10 -89 48 -89 137v326h-82v21h82v151h122v-151h117v-21h-117v-361
c0 -57 16 -75 42 -75c39 0 59 41 68 129l20 -2c-9 -97 -28 -158 -125 -158h-15l-34 -36c12 4 25 5 42 5z" />
    <glyph glyph-name="uacute" unicode="&#xfa;" horiz-adv-x="577" 
d="M386 618l-140 -86l-13 13l93 128c47 84 152 -1 60 -55zM488 20h67v-20h-189v84c-28 -61 -88 -96 -159 -96c-79 0 -135 42 -135 136v332h-67v20h190v-357c0 -58 24 -81 64 -81c45 0 85 26 107 87v331h-58v20h180v-456z" />
    <glyph glyph-name="ubreve" unicode="&#x16d;" horiz-adv-x="577" 
d="M284 541c-107 0 -142 76 -142 167h19c1 -57 46 -87 123 -87c76 0 121 30 122 87h19c0 -91 -35 -167 -141 -167zM488 20h67v-20h-189v84c-28 -61 -88 -96 -159 -96c-79 0 -135 42 -135 136v332h-67v20h190v-357c0 -58 24 -81 64 -81c45 0 85 26 107 87v331h-58v20h180
v-456z" />
    <glyph glyph-name="ucircumflex" unicode="&#xfb;" horiz-adv-x="577" 
d="M284 610l-139 -77l-11 15l139 156h22l138 -156l-10 -15zM488 20h67v-20h-189v84c-28 -61 -88 -96 -159 -96c-79 0 -135 42 -135 136v332h-67v20h190v-357c0 -58 24 -81 64 -81c45 0 85 26 107 87v331h-58v20h180v-456z" />
    <glyph glyph-name="udieresis" unicode="&#xfc;" horiz-adv-x="577" 
d="M189 550c-39 0 -64 25 -64 61c0 34 25 60 64 60c37 0 64 -26 64 -60c0 -36 -27 -61 -64 -61zM380 550c-40 0 -65 25 -65 61c0 34 25 60 65 60c37 0 63 -26 63 -60c0 -36 -26 -61 -63 -61zM488 20h67v-20h-189v84c-28 -61 -88 -96 -159 -96c-79 0 -135 42 -135 136v332
h-67v20h190v-357c0 -58 24 -81 64 -81c45 0 85 26 107 87v331h-58v20h180v-456z" />
    <glyph glyph-name="ugrave" unicode="&#xf9;" horiz-adv-x="577" 
d="M182 618c-92 54 13 139 60 55l93 -128l-13 -13zM488 20h67v-20h-189v84c-28 -61 -88 -96 -159 -96c-79 0 -135 42 -135 136v332h-67v20h190v-357c0 -58 24 -81 64 -81c45 0 85 26 107 87v331h-58v20h180v-456z" />
    <glyph glyph-name="uhungarumlaut" unicode="&#x171;" horiz-adv-x="577" 
d="M322 631l-132 -99l-14 10l77 132c33 90 146 20 69 -43zM498 631l-132 -99l-14 10l76 132c33 90 147 20 70 -43zM488 20h67v-20h-189v84c-28 -61 -88 -96 -159 -96c-79 0 -135 42 -135 136v332h-67v20h190v-357c0 -58 24 -81 64 -81c45 0 85 26 107 87v331h-58v20h180
v-456z" />
    <glyph glyph-name="umacron" unicode="&#x16b;" horiz-adv-x="577" 
d="M429 623v-55h-291v55h291zM488 20h67v-20h-189v84c-28 -61 -88 -96 -159 -96c-79 0 -135 42 -135 136v332h-67v20h190v-357c0 -58 24 -81 64 -81c45 0 85 26 107 87v331h-58v20h180v-456z" />
    <glyph glyph-name="uogonek" unicode="&#x173;" horiz-adv-x="577" 
d="M532 0c-50 -7 -88 -41 -88 -108c0 -35 11 -54 36 -54c15 0 31 6 48 15l5 -17c-20 -14 -54 -31 -113 -31c-66 0 -97 34 -97 74c0 36 18 55 77 83c23 16 46 29 68 38h-102v84c-28 -61 -88 -96 -159 -96c-79 0 -135 42 -135 136v332h-67v20h190v-357c0 -58 24 -81 64 -81
c45 0 85 26 107 87v331h-58v20h180v-456h67v-20h-23z" />
    <glyph glyph-name="uring" unicode="&#x16f;" horiz-adv-x="577" 
d="M283 533c-76 0 -128 39 -128 98c0 60 52 99 128 100s128 -39 128 -100c0 -59 -52 -97 -128 -98zM283 712c-38 0 -64 -29 -64 -81c0 -50 26 -79 64 -79c39 0 65 29 65 79c0 52 -26 81 -65 81zM488 20h67v-20h-189v84c-28 -61 -88 -96 -159 -96c-79 0 -135 42 -135 136v332
h-67v20h190v-357c0 -58 24 -81 64 -81c45 0 85 26 107 87v331h-58v20h180v-456z" />
    <glyph glyph-name="utilde" unicode="&#x169;" horiz-adv-x="577" 
d="M205 597c-30 0 -51 -16 -53 -44l-20 3c4 80 39 116 95 116c46 0 99 -33 139 -33c29 0 51 17 52 44l20 -3c-4 -81 -39 -116 -94 -116c-44 0 -96 33 -139 33zM488 20h67v-20h-189v84c-28 -61 -88 -96 -159 -96c-79 0 -135 42 -135 136v332h-67v20h190v-357
c0 -58 24 -81 64 -81c45 0 85 26 107 87v331h-58v20h180v-456z" />
    <glyph glyph-name="wcircumflex" unicode="&#x175;" horiz-adv-x="814" 
d="M408 610l-139 -77l-11 15l139 156h22l138 -156l-10 -15zM632 476h197v-20h-15c-43 0 -73 -31 -84 -69l-120 -390h-90l-115 337l-102 -337h-90l-165 459h-63v20h262v-20h-67l122 -366l87 292l-26 74h-53v20h249v-20h-65l117 -364l89 300c10 32 -4 64 -45 64h-23v20z" />
    <glyph glyph-name="yacute" unicode="&#xfd;" horiz-adv-x="497" 
d="M353 618l-140 -86l-13 13l93 128c47 84 152 -1 60 -55zM317 476h202v-20h-20c-43 0 -69 -23 -86 -71l-166 -477c-25 -71 -60 -114 -124 -114c-58 0 -100 35 -100 90c0 43 27 70 66 70c33 0 59 -20 59 -56c0 -35 -25 -56 -58 -56c-21 0 -37 9 -46 22c10 -33 40 -51 77 -51
c56 0 86 49 103 99l23 69l-205 475h-64v20h266v-20h-65l122 -315l83 246c16 46 -1 69 -43 69h-24v20z" />
    <glyph glyph-name="ycircumflex" unicode="&#x177;" horiz-adv-x="497" 
d="M251 610l-139 -77l-11 15l139 156h22l138 -156l-10 -15zM317 476h202v-20h-20c-43 0 -69 -23 -86 -71l-166 -477c-25 -71 -60 -114 -124 -114c-58 0 -100 35 -100 90c0 43 27 70 66 70c33 0 59 -20 59 -56c0 -35 -25 -56 -58 -56c-21 0 -37 9 -46 22
c10 -33 40 -51 77 -51c56 0 86 49 103 99l23 69l-205 475h-64v20h266v-20h-65l122 -315l83 246c16 46 -1 69 -43 69h-24v20z" />
    <glyph glyph-name="ydieresis" unicode="&#xff;" horiz-adv-x="497" 
d="M155 550c-39 0 -64 25 -64 61c0 34 25 60 64 60c37 0 64 -26 64 -60c0 -36 -27 -61 -64 -61zM346 550c-40 0 -65 25 -65 61c0 34 25 60 65 60c37 0 63 -26 63 -60c0 -36 -26 -61 -63 -61zM317 476h202v-20h-20c-43 0 -69 -23 -86 -71l-166 -477
c-25 -71 -60 -114 -124 -114c-58 0 -100 35 -100 90c0 43 27 70 66 70c33 0 59 -20 59 -56c0 -35 -25 -56 -58 -56c-21 0 -37 9 -46 22c10 -33 40 -51 77 -51c56 0 86 49 103 99l23 69l-205 475h-64v20h266v-20h-65l122 -315l83 246c16 46 -1 69 -43 69h-24v20z" />
    <glyph glyph-name="zacute" unicode="&#x17a;" horiz-adv-x="464" 
d="M182 545l93 128c47 84 152 -1 60 -55l-140 -86zM411 462l-250 -443h74c89 0 139 47 160 152h16l-6 -171h-374v14l250 443h-78c-78 0 -130 -41 -145 -146h-15l6 165h362v-14z" />
    <glyph glyph-name="zcaron" unicode="&#x17e;" horiz-adv-x="464" 
d="M222 535l-139 156l11 15l139 -77l139 77l10 -15l-138 -156h-22zM411 476v-14l-250 -443h74c89 0 139 47 160 152h16l-6 -171h-374v14l250 443h-78c-78 0 -130 -41 -145 -146h-15l6 165h362z" />
    <glyph glyph-name="zdotaccent" unicode="&#x17c;" horiz-adv-x="464" 
d="M233 552c-45 0 -74 28 -74 68c0 38 29 66 74 66c43 0 74 -28 74 -66c0 -40 -31 -68 -74 -68zM411 462l-250 -443h74c89 0 139 47 160 152h16l-6 -171h-374v14l250 443h-78c-78 0 -130 -41 -145 -146h-15l6 165h362v-14z" />
    <glyph glyph-name="R.calt" horiz-adv-x="707" 
d="M674 115l15 -4c-14 -66 -38 -123 -118 -123c-97 0 -114 59 -119 160c-6 118 -25 182 -119 182h-75v-309h99v-21h-312v21h84v652h-84v21h313c160 0 255 -51 255 -174c0 -109 -74 -168 -205 -180c111 -10 170 -66 175 -182c4 -90 8 -125 38 -125c27 0 42 33 53 82zM340 673
h-82v-321h71c93 0 149 47 149 164c0 113 -53 157 -138 157z" />
    <glyph glyph-name="Racute.calt" horiz-adv-x="707" 
d="M475 798l-170 -53l-10 14l133 99c73 75 145 -25 47 -60zM674 115l15 -4c-14 -66 -38 -123 -118 -123c-97 0 -114 59 -119 160c-6 118 -25 182 -119 182h-75v-309h99v-21h-312v21h84v652h-84v21h313c160 0 255 -51 255 -174c0 -109 -74 -168 -205 -180
c111 -10 170 -66 175 -182c4 -90 8 -125 38 -125c27 0 42 33 53 82zM340 673h-82v-321h71c93 0 149 47 149 164c0 113 -53 157 -138 157z" />
    <glyph glyph-name="Rcaron.calt" horiz-adv-x="707" 
d="M341 749l-146 128l10 16l147 -64l147 64l11 -16l-147 -128h-22zM674 115l15 -4c-14 -66 -38 -123 -118 -123c-97 0 -114 59 -119 160c-6 118 -25 182 -119 182h-75v-309h99v-21h-312v21h84v652h-84v21h313c160 0 255 -51 255 -174c0 -109 -74 -168 -205 -180
c111 -10 170 -66 175 -182c4 -90 8 -125 38 -125c27 0 42 33 53 82zM340 673h-82v-321h71c93 0 149 47 149 164c0 113 -53 157 -138 157z" />
    <glyph glyph-name="uni0156.calt" horiz-adv-x="707" 
d="M674 115l15 -4c-14 -66 -38 -123 -118 -123c-97 0 -114 59 -119 160c-6 118 -25 182 -119 182h-75v-309h99v-21h-312v21h84v652h-84v21h313c160 0 255 -51 255 -174c0 -109 -74 -168 -205 -180c111 -10 170 -66 175 -182c4 -90 8 -125 38 -125c27 0 42 33 53 82zM340 673
h-82v-321h71c93 0 149 47 149 164c0 113 -53 157 -138 157zM358 -46c34 0 60 -23 60 -64c0 -56 -41 -114 -103 -132l-7 14c45 17 70 49 81 82c-8 -4 -18 -7 -31 -7c-34 0 -56 22 -56 54s23 53 56 53z" />
    <glyph glyph-name="c.calt" horiz-adv-x="496" 
d="M460 151l20 -8c-30 -97 -92 -155 -199 -155c-121 0 -242 79 -242 251c0 166 117 249 241 249c103 0 171 -54 171 -133c0 -50 -30 -74 -69 -74c-40 0 -63 25 -63 60s24 58 60 58c18 0 32 -5 42 -15c-16 49 -60 74 -110 74c-77 0 -140 -57 -140 -214
c0 -147 59 -221 142 -221c70 0 118 50 147 128z" />
    <glyph glyph-name="cacute.calt" horiz-adv-x="496" 
d="M360 620l-140 -86l-13 13l93 128c47 84 152 -1 60 -55zM460 151l20 -8c-30 -97 -92 -155 -199 -155c-121 0 -242 79 -242 251c0 166 117 249 241 249c103 0 171 -54 171 -133c0 -50 -30 -74 -69 -74c-40 0 -63 25 -63 60s24 58 60 58c18 0 32 -5 42 -15
c-16 49 -60 74 -110 74c-77 0 -140 -57 -140 -214c0 -147 59 -221 142 -221c70 0 118 50 147 128z" />
    <glyph glyph-name="ccaron.calt" horiz-adv-x="496" 
d="M248 537l-139 156l11 15l139 -77l139 77l10 -15l-138 -156h-22zM460 151l20 -8c-30 -97 -92 -155 -199 -155c-121 0 -242 79 -242 251c0 166 117 249 241 249c103 0 171 -54 171 -133c0 -50 -30 -74 -69 -74c-40 0 -63 25 -63 60s24 58 60 58c18 0 32 -5 42 -15
c-16 49 -60 74 -110 74c-77 0 -140 -57 -140 -214c0 -147 59 -221 142 -221c70 0 118 50 147 128z" />
    <glyph glyph-name="ccedilla.calt" horiz-adv-x="496" 
d="M281 -12h-11l-38 -40c12 4 25 5 42 5c61 0 97 -32 97 -69c0 -52 -49 -85 -128 -85c-51 0 -79 20 -94 41l15 13c17 -20 39 -32 65 -32c37 0 53 20 53 56c0 41 -17 52 -42 52c-16 0 -32 -8 -53 -31l-19 9l78 83c-109 14 -207 94 -207 249c0 166 117 249 241 249
c103 0 171 -54 171 -133c0 -50 -30 -74 -69 -74c-40 0 -63 25 -63 60s24 58 60 58c18 0 32 -5 42 -15c-16 49 -60 74 -110 74c-77 0 -140 -57 -140 -214c0 -147 59 -221 142 -221c70 0 118 50 147 128l20 -8c-30 -97 -92 -155 -199 -155z" />
    <glyph glyph-name="ccircumflex.calt" horiz-adv-x="496" 
d="M259 612l-139 -77l-11 15l139 156h22l138 -156l-10 -15zM460 151l20 -8c-30 -97 -92 -155 -199 -155c-121 0 -242 79 -242 251c0 166 117 249 241 249c103 0 171 -54 171 -133c0 -50 -30 -74 -69 -74c-40 0 -63 25 -63 60s24 58 60 58c18 0 32 -5 42 -15
c-16 49 -60 74 -110 74c-77 0 -140 -57 -140 -214c0 -147 59 -221 142 -221c70 0 118 50 147 128z" />
    <glyph glyph-name="cdotaccent.calt" horiz-adv-x="496" 
d="M258 554c-45 0 -74 28 -74 68c0 38 29 66 74 66c43 0 74 -28 74 -66c0 -40 -31 -68 -74 -68zM460 151l20 -8c-30 -97 -92 -155 -199 -155c-121 0 -242 79 -242 251c0 166 117 249 241 249c103 0 171 -54 171 -133c0 -50 -30 -74 -69 -74c-40 0 -63 25 -63 60s24 58 60 58
c18 0 32 -5 42 -15c-16 49 -60 74 -110 74c-77 0 -140 -57 -140 -214c0 -147 59 -221 142 -221c70 0 118 50 147 128z" />
    <glyph glyph-name="eacute.calt" 
d="M366 618l-140 -86l-13 13l93 128c47 84 152 -1 60 -55zM476 146l20 -8c-30 -92 -100 -150 -213 -150c-134 0 -244 93 -244 252c0 163 112 248 231 248c112 0 207 -68 207 -202v-24h-307v-15c0 -147 51 -224 145 -224c73 0 132 45 161 123zM269 465
c-52 0 -92 -45 -98 -179h187c-2 129 -33 179 -89 179z" />
    <glyph glyph-name="ebreve.calt" 
d="M264 541c-107 0 -142 76 -142 167h19c1 -57 46 -87 123 -87c76 0 121 30 122 87h19c0 -91 -35 -167 -141 -167zM476 146l20 -8c-30 -92 -100 -150 -213 -150c-134 0 -244 93 -244 252c0 163 112 248 231 248c112 0 207 -68 207 -202v-24h-307v-15
c0 -147 51 -224 145 -224c73 0 132 45 161 123zM269 465c-52 0 -92 -45 -98 -179h187c-2 129 -33 179 -89 179z" />
    <glyph glyph-name="ecaron.calt" 
d="M253 535l-139 156l11 15l139 -77l139 77l10 -15l-138 -156h-22zM476 146l20 -8c-30 -92 -100 -150 -213 -150c-134 0 -244 93 -244 252c0 163 112 248 231 248c112 0 207 -68 207 -202v-24h-307v-15c0 -147 51 -224 145 -224c73 0 132 45 161 123zM269 465
c-52 0 -92 -45 -98 -179h187c-2 129 -33 179 -89 179z" />
    <glyph glyph-name="ecircumflex.calt" 
d="M264 610l-139 -77l-11 15l139 156h22l138 -156l-10 -15zM476 146l20 -8c-30 -92 -100 -150 -213 -150c-134 0 -244 93 -244 252c0 163 112 248 231 248c112 0 207 -68 207 -202v-24h-307v-15c0 -147 51 -224 145 -224c73 0 132 45 161 123zM269 465
c-52 0 -92 -45 -98 -179h187c-2 129 -33 179 -89 179z" />
    <glyph glyph-name="edieresis.calt" 
d="M169 550c-39 0 -64 25 -64 61c0 34 25 60 64 60c37 0 64 -26 64 -60c0 -36 -27 -61 -64 -61zM360 550c-40 0 -65 25 -65 61c0 34 25 60 65 60c37 0 63 -26 63 -60c0 -36 -26 -61 -63 -61zM476 146l20 -8c-30 -92 -100 -150 -213 -150c-134 0 -244 93 -244 252
c0 163 112 248 231 248c112 0 207 -68 207 -202v-24h-307v-15c0 -147 51 -224 145 -224c73 0 132 45 161 123zM269 465c-52 0 -92 -45 -98 -179h187c-2 129 -33 179 -89 179z" />
    <glyph glyph-name="edotaccent.calt" 
d="M264 552c-45 0 -74 28 -74 68c0 38 29 66 74 66c43 0 74 -28 74 -66c0 -40 -31 -68 -74 -68zM476 146l20 -8c-30 -92 -100 -150 -213 -150c-134 0 -244 93 -244 252c0 163 112 248 231 248c112 0 207 -68 207 -202v-24h-307v-15c0 -147 51 -224 145 -224
c73 0 132 45 161 123zM269 465c-52 0 -92 -45 -98 -179h187c-2 129 -33 179 -89 179z" />
    <glyph glyph-name="egrave.calt" 
d="M162 618c-92 54 13 139 60 55l93 -128l-13 -13zM476 146l20 -8c-30 -92 -100 -150 -213 -150c-134 0 -244 93 -244 252c0 163 112 248 231 248c112 0 207 -68 207 -202v-24h-307v-15c0 -147 51 -224 145 -224c73 0 132 45 161 123zM269 465c-52 0 -92 -45 -98 -179h187
c-2 129 -33 179 -89 179z" />
    <glyph glyph-name="emacron.calt" 
d="M409 623v-55h-291v55h291zM476 146l20 -8c-30 -92 -100 -150 -213 -150c-134 0 -244 93 -244 252c0 163 112 248 231 248c112 0 207 -68 207 -202v-24h-307v-15c0 -147 51 -224 145 -224c73 0 132 45 161 123zM269 465c-52 0 -92 -45 -98 -179h187
c-2 129 -33 179 -89 179z" />
    <glyph glyph-name="eogonek.calt" 
d="M362 -1c-30 -24 -46 -60 -42 -110c4 -35 17 -52 41 -50c16 2 31 11 46 21l7 -17c-19 -16 -52 -35 -110 -38c-66 -6 -101 26 -104 66c-3 35 14 57 70 88c14 11 27 21 40 30c-9 -1 -18 -1 -27 -1c-134 0 -244 93 -244 252c0 163 112 248 231 248c112 0 207 -68 207 -202
v-24h-307v-15c0 -147 51 -224 145 -224c73 0 132 45 161 123l20 -8c-22 -68 -67 -118 -134 -139zM269 465c-52 0 -92 -45 -98 -179h187c-2 129 -33 179 -89 179z" />
    <glyph glyph-name="racute.calt" horiz-adv-x="453" 
d="M343 618l-140 -86l-13 13l93 128c47 84 152 -1 60 -55zM325 488c66 0 98 -44 98 -100c0 -52 -28 -80 -69 -80c-40 0 -65 26 -65 62s26 61 62 61c23 0 41 -11 50 -27c-6 40 -33 65 -76 65c-68 0 -115 -59 -115 -163v-286h85v-20h-274v20h67v436h-67v20h189v-74
c17 52 56 86 115 86z" />
    <glyph glyph-name="rcaron.calt" horiz-adv-x="453" 
d="M230 535l-139 156l11 15l139 -77l139 77l10 -15l-138 -156h-22zM325 488c66 0 98 -44 98 -100c0 -52 -28 -80 -69 -80c-40 0 -65 26 -65 62s26 61 62 61c23 0 41 -11 50 -27c-6 40 -33 65 -76 65c-68 0 -115 -59 -115 -163v-286h85v-20h-274v20h67v436h-67v20h189v-74
c17 52 56 86 115 86z" />
    <glyph glyph-name="uni0157.calt" horiz-adv-x="453" 
d="M325 488c66 0 98 -44 98 -100c0 -52 -28 -80 -69 -80c-40 0 -65 26 -65 62s26 61 62 61c23 0 41 -11 50 -27c-6 40 -33 65 -76 65c-68 0 -115 -59 -115 -163v-286h85v-20h-274v20h67v436h-67v20h189v-74c17 52 56 86 115 86zM189 -46c34 0 60 -23 60 -64
c0 -56 -41 -114 -103 -132l-7 14c44 16 70 49 81 82c-8 -5 -18 -8 -31 -8c-34 0 -56 23 -56 55c0 31 23 53 56 53z" />
    <glyph glyph-name="tcaron.calt" horiz-adv-x="361" 
d="M335 741c26 0 45 -20 44 -53c-1 -36 -15 -76 -36 -132h-17c-22 56 -32 96 -33 132c-1 33 16 53 42 53zM248 19c39 0 59 41 68 129l20 -2c-9 -97 -28 -158 -125 -158c-70 0 -127 31 -127 141v326h-82v21h82v151h122v-151h117v-21h-117v-361c0 -57 16 -75 42 -75z" />
    <glyph glyph-name="uni0163.calt" horiz-adv-x="361" 
d="M204 -43c61 0 97 -32 97 -69c0 -52 -49 -85 -128 -85c-51 0 -79 20 -94 41l15 13c17 -20 39 -32 65 -32c37 0 53 20 53 56c0 41 -17 52 -42 52c-16 0 -32 -8 -53 -31l-19 9l75 81c-51 10 -89 48 -89 137v326h-82v21h82v151h122v-151h117v-21h-117v-361
c0 -57 16 -75 42 -75c39 0 59 41 68 129l20 -2c-9 -97 -28 -158 -125 -158h-15l-34 -36c12 4 25 5 42 5z" />
    <glyph glyph-name="Aacute.sc" horiz-adv-x="600" 
d="M399 711l-143 -87l-13 13l93 128c47 84 153 0 63 -54zM531 17h62v-17h-276v17h68l-52 167h-191l-32 -107c-12 -38 1 -60 40 -60h40v-17h-212v17h32c41 0 61 29 71 62l153 495h114zM148 203h179l-91 290z" />
    <glyph glyph-name="Abreve.sc" horiz-adv-x="600" 
d="M294 631c-107 0 -141 76 -142 168l19 -1c2 -57 46 -86 123 -86c76 0 120 29 122 86l19 1c-1 -92 -35 -168 -141 -168zM531 17h62v-17h-276v17h68l-52 167h-191l-32 -107c-12 -38 1 -60 40 -60h40v-17h-212v17h32c41 0 61 29 71 62l153 495h114zM148 203h179l-91 290z" />
    <glyph glyph-name="Acircumflex.sc" horiz-adv-x="600" 
d="M294 702l-139 -78l-10 16l139 156h21l139 -156l-11 -16zM531 17h62v-17h-276v17h68l-52 167h-191l-32 -107c-12 -38 1 -60 40 -60h40v-17h-212v17h32c41 0 61 29 71 62l153 495h114zM148 203h179l-91 290z" />
    <glyph glyph-name="Adieresis.sc" horiz-adv-x="600" 
d="M199 642c-40 0 -65 26 -65 62c0 34 25 61 65 61c37 0 63 -27 63 -61c0 -36 -26 -62 -63 -62zM390 642c-40 0 -65 26 -65 62c0 34 25 61 65 61c37 0 64 -27 64 -61c0 -36 -27 -62 -64 -62zM531 17h62v-17h-276v17h68l-52 167h-191l-32 -107c-12 -38 1 -60 40 -60h40v-17
h-212v17h32c41 0 61 29 71 62l153 495h114zM148 203h179l-91 290z" />
    <glyph glyph-name="Agrave.sc" horiz-adv-x="600" 
d="M184 709c-92 55 13 140 60 56l92 -128l-12 -13zM531 17h62v-17h-276v17h68l-52 167h-191l-32 -107c-12 -38 1 -60 40 -60h40v-17h-212v17h32c41 0 61 29 71 62l153 495h114zM148 203h179l-91 290z" />
    <glyph glyph-name="Amacron.sc" horiz-adv-x="600" 
d="M439 708v-51h-290v51h290zM531 17h62v-17h-276v17h68l-52 167h-191l-32 -107c-12 -38 1 -60 40 -60h40v-17h-212v17h32c41 0 61 29 71 62l153 495h114zM148 203h179l-91 290z" />
    <glyph glyph-name="Aogonek.sc" horiz-adv-x="600" 
d="M530 0c-50 -7 -88 -41 -88 -108c0 -35 11 -54 36 -54c15 0 31 6 48 15l5 -17c-20 -14 -54 -31 -113 -31c-66 0 -97 34 -97 74c0 34 16 53 68 80c26 18 52 31 79 41h-151v17h68l-52 167h-191l-32 -107c-12 -38 1 -60 40 -60h40v-17h-212v17h32c41 0 61 29 71 62l153 495
h114l183 -557h62v-17h-63zM148 203h179l-91 290z" />
    <glyph glyph-name="Aring.sc" horiz-adv-x="600" 
d="M293 625c-76 -1 -128 38 -128 98s52 99 128 100c76 0 129 -39 129 -100c0 -59 -53 -97 -129 -98zM293 804c-38 0 -64 -30 -64 -81c0 -50 26 -79 64 -79c39 0 65 29 65 79c0 51 -26 81 -65 81zM531 17h62v-17h-276v17h68l-52 167h-191l-32 -107c-12 -38 1 -60 40 -60h40
v-17h-212v17h32c41 0 61 29 71 62l153 495h114zM148 203h179l-91 290z" />
    <glyph glyph-name="Atilde.sc" horiz-adv-x="600" 
d="M215 686c-29 0 -51 -15 -53 -43l-19 2c4 81 39 118 95 118c46 0 98 -34 138 -34c30 0 51 18 53 44l19 -2c-3 -82 -38 -118 -94 -118c-43 0 -96 33 -139 33zM531 17h62v-17h-276v17h68l-52 167h-191l-32 -107c-12 -38 1 -60 40 -60h40v-17h-212v17h32c41 0 61 29 71 62
l153 495h114zM148 203h179l-91 290z" />
    <glyph glyph-name="AE.sc" horiz-adv-x="798" 
d="M727 185h18l-6 -185h-404v184h-209l-66 -107c-20 -35 -13 -60 26 -60h41v-17h-212v17h31c41 0 68 31 87 64l302 486h399l6 -178h-19c-18 117 -77 162 -166 162h-91v-245h57c68 0 92 41 99 100h16v-221h-16c-7 63 -32 104 -99 104h-57v-272h96c103 0 145 52 167 168z
M138 203h197v318z" />
    <glyph glyph-name="Cacute.sc" horiz-adv-x="574" 
d="M251 637l93 128c47 84 153 0 63 -54l-143 -87zM320 -10c-127 0 -275 91 -275 294c0 204 146 293 272 293c79 0 107 -34 142 -34c24 0 34 15 39 32h16v-200h-18c-23 115 -90 180 -156 180c-93 0 -154 -86 -154 -271c0 -184 64 -271 154 -271c68 0 139 73 159 184h18v-204
h-16c-6 17 -18 31 -40 31c-37 0 -64 -34 -141 -34z" />
    <glyph glyph-name="Ccaron.sc" horiz-adv-x="574" 
d="M291 626l-138 157l10 15l139 -77l139 77l11 -15l-139 -157h-22zM499 197h18v-204h-16c-6 17 -18 31 -40 31c-37 0 -64 -34 -141 -34c-127 0 -275 91 -275 294c0 204 146 293 272 293c79 0 107 -34 142 -34c24 0 34 15 39 32h16v-200h-18c-23 115 -90 180 -156 180
c-93 0 -154 -86 -154 -271c0 -184 64 -271 154 -271c68 0 139 73 159 184z" />
    <glyph glyph-name="Ccedilla.sc" horiz-adv-x="574" 
d="M499 197h18v-204h-16c-6 17 -18 31 -40 31c-37 0 -64 -34 -141 -34h-6l-37 -40c12 4 25 5 41 5c61 0 97 -32 97 -69c0 -52 -49 -85 -128 -85c-51 0 -78 20 -94 41l15 13c17 -20 40 -32 65 -32c38 0 53 20 53 56c0 41 -17 52 -41 52c-18 0 -35 -10 -54 -31l-19 9l78 83
c-119 13 -245 105 -245 292c0 204 146 293 272 293c79 0 107 -34 142 -34c24 0 34 15 39 32h16v-200h-18c-23 115 -90 180 -156 180c-93 0 -154 -86 -154 -271c0 -184 64 -271 154 -271c68 0 139 73 159 184z" />
    <glyph glyph-name="Ccircumflex.sc" horiz-adv-x="574" 
d="M302 702l-139 -78l-10 16l139 156h21l139 -156l-11 -16zM499 197h18v-204h-16c-6 17 -18 31 -40 31c-37 0 -64 -34 -141 -34c-127 0 -275 91 -275 294c0 204 146 293 272 293c79 0 107 -34 142 -34c24 0 34 15 39 32h16v-200h-18c-23 115 -90 180 -156 180
c-93 0 -154 -86 -154 -271c0 -184 64 -271 154 -271c68 0 139 73 159 184z" />
    <glyph glyph-name="Cdotaccent.sc" horiz-adv-x="574" 
d="M302 641c-46 0 -75 28 -75 67c0 38 29 67 75 67c43 0 74 -29 74 -67c0 -39 -31 -67 -74 -67zM320 -10c-127 0 -275 91 -275 294c0 204 146 293 272 293c79 0 107 -34 142 -34c24 0 34 15 39 32h16v-200h-18c-23 115 -90 180 -156 180c-93 0 -154 -86 -154 -271
c0 -184 64 -271 154 -271c68 0 139 73 159 184h18v-204h-16c-6 17 -18 31 -40 31c-37 0 -64 -34 -141 -34z" />
    <glyph glyph-name="Eth.sc" horiz-adv-x="646" 
d="M295 567c178 0 305 -88 305 -283c0 -196 -127 -284 -305 -284h-255v17h73v265h-73v18h73v250h-73v17h255zM284 17c120 0 175 85 175 267s-57 266 -175 266h-42v-250h100v-18h-100v-265h42z" />
    <glyph glyph-name="Dcaron.sc" horiz-adv-x="646" 
d="M312 626l-138 157l10 15l139 -77l139 77l11 -15l-139 -157h-22zM295 567c178 0 305 -88 305 -283c0 -196 -127 -284 -305 -284h-255v17h73v533h-73v17h255zM284 17c120 0 175 85 175 267s-57 266 -175 266h-42v-533h42z" />
    <glyph glyph-name="Dcroat.sc" horiz-adv-x="646" 
d="M295 567c178 0 305 -88 305 -283c0 -196 -127 -284 -305 -284h-255v17h73v265h-73v18h73v250h-73v17h255zM284 17c120 0 175 85 175 267s-57 266 -175 266h-42v-250h100v-18h-100v-265h42z" />
    <glyph glyph-name="Eacute.sc" horiz-adv-x="575" 
d="M408 711l-143 -87l-13 13l93 128c47 84 153 0 63 -54zM504 185h18l-6 -185h-476v17h73v534h-73v16h472l6 -178h-19c-19 117 -77 162 -166 162h-91v-245h53c70 0 95 39 102 100h16v-221h-16c-7 65 -32 104 -102 104h-53v-272h96c102 0 145 52 166 168z" />
    <glyph glyph-name="Ebreve.sc" horiz-adv-x="575" 
d="M303 631c-107 0 -141 76 -142 168l19 -1c2 -57 46 -86 123 -86c76 0 120 29 122 86l19 1c-1 -92 -35 -168 -141 -168zM504 185h18l-6 -185h-476v17h73v534h-73v16h472l6 -178h-19c-19 117 -77 162 -166 162h-91v-245h53c70 0 95 39 102 100h16v-221h-16
c-7 65 -32 104 -102 104h-53v-272h96c102 0 145 52 166 168z" />
    <glyph glyph-name="Ecaron.sc" horiz-adv-x="575" 
d="M291 626l-138 157l10 15l139 -77l139 77l11 -15l-139 -157h-22zM504 185h18l-6 -185h-476v17h73v534h-73v16h472l6 -178h-19c-19 117 -77 162 -166 162h-91v-245h53c70 0 95 39 102 100h16v-221h-16c-7 65 -32 104 -102 104h-53v-272h96c102 0 145 52 166 168z" />
    <glyph glyph-name="Ecircumflex.sc" horiz-adv-x="575" 
d="M302 702l-139 -78l-10 16l139 156h21l139 -156l-11 -16zM504 185h18l-6 -185h-476v17h73v534h-73v16h472l6 -178h-19c-19 117 -77 162 -166 162h-91v-245h53c70 0 95 39 102 100h16v-221h-16c-7 65 -32 104 -102 104h-53v-272h96c102 0 145 52 166 168z" />
    <glyph glyph-name="Edieresis.sc" horiz-adv-x="575" 
d="M207 642c-40 0 -65 26 -65 62c0 34 25 61 65 61c37 0 63 -27 63 -61c0 -36 -26 -62 -63 -62zM398 642c-40 0 -65 26 -65 62c0 34 25 61 65 61c37 0 64 -27 64 -61c0 -36 -27 -62 -64 -62zM504 185h18l-6 -185h-476v17h73v534h-73v16h472l6 -178h-19
c-19 117 -77 162 -166 162h-91v-245h53c70 0 95 39 102 100h16v-221h-16c-7 65 -32 104 -102 104h-53v-272h96c102 0 145 52 166 168z" />
    <glyph glyph-name="Edotaccent.sc" horiz-adv-x="575" 
d="M303 641c-46 0 -75 28 -75 67c0 38 29 67 75 67c43 0 74 -29 74 -67c0 -39 -31 -67 -74 -67zM504 185h18l-6 -185h-476v17h73v534h-73v16h472l6 -178h-19c-19 117 -77 162 -166 162h-91v-245h53c70 0 95 39 102 100h16v-221h-16c-7 65 -32 104 -102 104h-53v-272h96
c102 0 145 52 166 168z" />
    <glyph glyph-name="Egrave.sc" horiz-adv-x="575" 
d="M192 709c-92 55 13 140 60 56l92 -128l-12 -13zM504 185h18l-6 -185h-476v17h73v534h-73v16h472l6 -178h-19c-19 117 -77 162 -166 162h-91v-245h53c70 0 95 39 102 100h16v-221h-16c-7 65 -32 104 -102 104h-53v-272h96c102 0 145 52 166 168z" />
    <glyph glyph-name="Emacron.sc" horiz-adv-x="575" 
d="M447 708v-51h-290v51h290zM504 185h18l-6 -185h-476v17h73v534h-73v16h472l6 -178h-19c-19 117 -77 162 -166 162h-91v-245h53c70 0 95 39 102 100h16v-221h-16c-7 65 -32 104 -102 104h-53v-272h96c102 0 145 52 166 168z" />
    <glyph glyph-name="Eogonek.sc" horiz-adv-x="575" 
d="M512 0c-50 -7 -88 -41 -88 -108c0 -35 11 -54 36 -54c15 0 31 6 48 15l5 -17c-20 -14 -54 -31 -113 -31c-66 0 -97 34 -97 74c0 34 16 53 68 80c26 18 52 31 79 41h-410v17h73v534h-73v16h472l6 -178h-19c-19 117 -77 162 -166 162h-91v-245h53c70 0 95 39 102 100h16
v-221h-16c-7 65 -32 104 -102 104h-53v-272h96c102 0 145 52 166 168h18l-6 -185h-4z" />
    <glyph glyph-name="Gbreve.sc" horiz-adv-x="631" 
d="M318 632c-107 0 -141 76 -142 168l19 -1c2 -57 46 -86 123 -86c76 0 120 29 122 86l19 1c-1 -92 -35 -168 -141 -168zM618 263v-17h-61v-253h-18c-6 21 -21 38 -50 38c-45 0 -76 -41 -163 -41c-137 0 -281 94 -281 295c0 200 151 292 283 292c84 0 125 -35 159 -35
c26 0 37 14 42 33h17l-1 -205h-17c-25 106 -86 183 -174 183c-97 0 -161 -92 -161 -268c0 -177 49 -273 145 -273c61 0 109 39 109 109v125h-77v17h248z" />
    <glyph glyph-name="Gcircumflex.sc" horiz-adv-x="631" 
d="M318 703l-139 -78l-10 16l139 156h21l139 -156l-11 -16zM618 263v-17h-61v-253h-18c-6 21 -21 38 -50 38c-45 0 -76 -41 -163 -41c-137 0 -281 94 -281 295c0 200 151 292 283 292c84 0 125 -35 159 -35c26 0 37 14 42 33h17l-1 -205h-17c-25 106 -86 183 -174 183
c-97 0 -161 -92 -161 -268c0 -177 49 -273 145 -273c61 0 109 39 109 109v125h-77v17h248z" />
    <glyph glyph-name="uni0122.sc" horiz-adv-x="631" 
d="M618 263v-17h-61v-253h-18c-6 21 -21 38 -50 38c-45 0 -76 -41 -163 -41c-137 0 -281 94 -281 295c0 200 151 292 283 292c84 0 125 -35 159 -35c26 0 37 14 42 33h17l-1 -205h-17c-25 106 -86 183 -174 183c-97 0 -161 -92 -161 -268c0 -177 49 -273 145 -273
c61 0 109 39 109 109v125h-77v17h248zM315 -46c34 0 60 -23 60 -64c0 -56 -41 -114 -103 -132l-6 14c44 16 69 49 80 82c-8 -5 -18 -8 -31 -8c-34 0 -56 23 -56 55s23 53 56 53z" />
    <glyph glyph-name="Gdotaccent.sc" horiz-adv-x="631" 
d="M318 642c-46 0 -75 28 -75 67c0 38 29 67 75 67c43 0 74 -29 74 -67c0 -39 -31 -67 -74 -67zM618 263v-17h-61v-253h-18c-6 21 -21 38 -50 38c-45 0 -76 -41 -163 -41c-137 0 -281 94 -281 295c0 200 151 292 283 292c84 0 125 -35 159 -35c26 0 37 14 42 33h17l-1 -205
h-17c-25 106 -86 183 -174 183c-97 0 -161 -92 -161 -268c0 -177 49 -273 145 -273c61 0 109 39 109 109v125h-77v17h248z" />
    <glyph glyph-name="Hbar.sc" horiz-adv-x="706" 
d="M666 551h-72v-114h72v-19h-72v-401h72v-17h-263v17h62v273h-223v-273h61v-17h-263v17h73v401h-73v19h73v114h-73v16h263v-16h-61v-114h223v114h-62v16h263v-16zM465 310v108h-223v-108h223z" />
    <glyph glyph-name="Hcircumflex.sc" horiz-adv-x="706" 
d="M353 702l-139 -78l-10 16l139 156h21l139 -156l-11 -16zM666 551h-72v-534h72v-17h-263v17h62v273h-223v-273h61v-17h-263v17h73v534h-73v16h263v-16h-61v-241h223v241h-62v16h263v-16z" />
    <glyph glyph-name="IJ.sc" horiz-adv-x="800" 
d="M314 567v-17h-72v-533h72v-17h-274v17h73v533h-73v17h274zM793 567v-16h-73v-406c0 -113 -82 -155 -188 -155c-103 0 -155 46 -155 115c0 53 32 75 69 75c36 0 62 -22 62 -54s-25 -57 -59 -57c-23 0 -42 10 -52 25c8 -52 52 -78 100 -78c54 0 94 33 94 108v427h-82v16
h284z" />
    <glyph glyph-name="Iacute.sc" horiz-adv-x="354" 
d="M283 711l-143 -87l-13 13l93 128c47 84 153 0 63 -54zM314 567v-17h-72v-533h72v-17h-274v17h73v533h-73v17h274z" />
    <glyph glyph-name="Ibreve.sc" horiz-adv-x="354" 
d="M178 631c-107 0 -141 76 -142 168l19 -1c2 -57 46 -86 123 -86c76 0 120 29 122 86l19 1c-1 -92 -35 -168 -141 -168zM314 567v-17h-72v-533h72v-17h-274v17h73v533h-73v17h274z" />
    <glyph glyph-name="Icircumflex.sc" horiz-adv-x="354" 
d="M188 796l139 -156l-11 -16l-139 78l-139 -78l-10 16l139 156h21zM314 567v-17h-72v-533h72v-17h-274v17h73v533h-73v17h274z" />
    <glyph glyph-name="Idieresis.sc" horiz-adv-x="354" 
d="M145 704c0 -36 -26 -62 -63 -62c-40 0 -65 26 -65 62c0 34 25 61 65 61c37 0 63 -27 63 -61zM273 765c37 0 64 -27 64 -61c0 -36 -27 -62 -64 -62c-40 0 -65 26 -65 62c0 34 25 61 65 61zM314 567v-17h-72v-533h72v-17h-274v17h73v533h-73v17h274z" />
    <glyph glyph-name="Idotaccent.sc" horiz-adv-x="354" 
d="M178 641c-46 0 -75 28 -75 67c0 38 29 67 75 67c43 0 74 -29 74 -67c0 -39 -31 -67 -74 -67zM314 550h-72v-533h72v-17h-274v17h73v533h-73v17h274v-17z" />
    <glyph glyph-name="Igrave.sc" horiz-adv-x="354" 
d="M67 709c-92 55 13 140 60 56l92 -128l-12 -13zM314 550h-72v-533h72v-17h-274v17h73v533h-73v17h274v-17z" />
    <glyph glyph-name="Imacron.sc" horiz-adv-x="354" 
d="M32 708h290v-51h-290v51zM314 567v-17h-72v-533h72v-17h-274v17h73v533h-73v17h274z" />
    <glyph glyph-name="Iogonek.sc" horiz-adv-x="354" 
d="M314 550h-72v-533h72v-17h-22c-50 -7 -88 -41 -88 -108c0 -35 11 -54 36 -54c15 0 31 6 48 15l5 -17c-20 -14 -54 -31 -113 -31c-66 0 -97 34 -97 74c0 34 16 53 68 80c26 18 52 31 79 41h-190v17h73v533h-73v17h274v-17z" />
    <glyph glyph-name="Itilde.sc" horiz-adv-x="354" 
d="M98 686c-29 0 -51 -15 -53 -43l-19 2c4 81 39 118 95 118c46 0 98 -34 138 -34c30 0 51 18 53 44l19 -2c-3 -82 -38 -118 -94 -118c-43 0 -96 33 -139 33zM314 567v-17h-72v-533h72v-17h-274v17h73v533h-73v17h274z" />
    <glyph glyph-name="Jcircumflex.sc" horiz-adv-x="446" 
d="M273 702l-139 -78l-10 16l139 156h21l139 -156l-11 -16zM439 567v-16h-73v-406c0 -113 -82 -155 -188 -155c-103 0 -155 46 -155 115c0 53 32 75 69 75c36 0 62 -22 62 -54s-25 -57 -59 -57c-23 0 -42 10 -52 25c8 -52 52 -78 100 -78c54 0 94 33 94 108v427h-82v16h284z
" />
    <glyph glyph-name="uni0136.sc" horiz-adv-x="632" 
d="M589 17h55v-17h-266v17h63l-166 265l-33 -36v-229h69v-17h-271v17h73v533h-73v17h277v-17h-75v-269l180 199c30 31 31 70 -16 70h-17v17h219v-17h-18c-46 0 -92 -23 -129 -63l-100 -110zM323 -46c34 0 60 -23 60 -64c0 -56 -41 -114 -103 -132l-6 14c44 16 69 49 80 82
c-8 -5 -18 -8 -31 -8c-34 0 -56 23 -56 55s23 53 56 53z" />
    <glyph glyph-name="Lacute.sc" 
d="M322 711l-143 -87l-13 13l93 128c47 84 153 0 63 -54zM468 214h18l-7 -214h-439v17h73v534h-73v16h287v-16h-85v-534h61c83 0 140 52 165 197z" />
    <glyph glyph-name="Lcaron.sc" 
d="M473 652c25 0 44 -20 43 -53c-1 -36 -15 -76 -36 -132h-17c-21 56 -32 96 -33 132c-1 33 16 53 43 53zM303 17c83 0 140 52 165 197h18l-7 -214h-439v17h73v534h-73v16h287v-16h-85v-534h61z" />
    <glyph glyph-name="uni013B.sc" 
d="M468 214h18l-7 -214h-439v17h73v534h-73v16h287v-16h-85v-534h61c83 0 140 52 165 197zM275 -46c34 0 60 -23 60 -64c0 -56 -41 -114 -103 -132l-6 14c44 16 69 49 80 82c-8 -5 -18 -8 -31 -8c-34 0 -56 23 -56 55s23 53 56 53z" />
    <glyph glyph-name="Ldot.sc" horiz-adv-x="522" 
d="M303 17c83 0 140 52 165 197h18l-7 -214h-439v17h73v534h-73v16h287v-16h-85v-534h61zM441 444c44 0 75 -31 75 -72c0 -40 -31 -70 -75 -70s-74 30 -74 70c0 41 30 72 74 72z" />
    <glyph glyph-name="Lslash.sc" 
d="M468 214h18l-7 -214h-439v17h73v202l-61 -42l-12 17l73 50v307h-73v16h287v-16h-85v-218l200 138l12 -16l-212 -147v-291h61c83 0 140 52 165 197z" />
    <glyph glyph-name="Nacute.sc" horiz-adv-x="640" 
d="M425 711l-143 -87l-13 13l93 128c47 84 153 0 63 -54zM419 567h201v-16h-19c-34 0 -70 -27 -70 -80v-480h-85l-312 518v-407c0 -57 33 -85 76 -85h18v-17h-209v17h18c40 0 73 28 73 85v397c0 37 -13 52 -52 52h-29v16h217l261 -411v315c0 53 -33 80 -68 80h-20v16z" />
    <glyph glyph-name="Ncaron.sc" horiz-adv-x="640" 
d="M309 626l-138 157l10 15l139 -77l139 77l11 -15l-139 -157h-22zM419 567h201v-16h-19c-34 0 -70 -27 -70 -80v-480h-85l-312 518v-407c0 -57 33 -85 76 -85h18v-17h-209v17h18c40 0 73 28 73 85v397c0 37 -13 52 -52 52h-29v16h217l261 -411v315c0 53 -33 80 -68 80h-20
v16z" />
    <glyph glyph-name="uni0145.sc" horiz-adv-x="640" 
d="M419 567h201v-16h-19c-34 0 -70 -27 -70 -80v-480h-85l-312 518v-407c0 -57 33 -85 76 -85h18v-17h-209v17h18c40 0 73 28 73 85v397c0 37 -13 52 -52 52h-29v16h217l261 -411v315c0 53 -33 80 -68 80h-20v16zM319 -46c34 0 60 -23 60 -64c0 -56 -41 -114 -103 -132
l-6 14c44 16 69 49 80 82c-8 -5 -18 -8 -31 -8c-34 0 -56 23 -56 55s23 53 56 53z" />
    <glyph glyph-name="Eng.sc" horiz-adv-x="640" 
d="M601 551c-34 0 -70 -27 -70 -80v-497c0 -127 -52 -189 -153 -189c-74 0 -122 44 -122 111c0 54 33 75 69 75c37 0 62 -22 62 -54s-25 -56 -58 -56c-24 0 -43 12 -52 28c7 -52 47 -82 102 -82c94 0 108 116 57 201l-302 500v-406c0 -57 33 -85 76 -85h18v-17h-209v17h18
c40 0 73 28 73 85v397c0 37 -13 52 -52 52h-29v16h217l261 -413v317c0 53 -33 80 -68 80h-20v16h201v-16h-19z" />
    <glyph glyph-name="Ntilde.sc" horiz-adv-x="640" 
d="M241 686c-29 0 -51 -15 -53 -43l-19 2c4 81 39 118 95 118c46 0 98 -34 138 -34c30 0 51 18 53 44l19 -2c-3 -82 -38 -118 -94 -118c-43 0 -96 33 -139 33zM419 567h201v-16h-19c-34 0 -70 -27 -70 -80v-480h-85l-312 518v-407c0 -57 33 -85 76 -85h18v-17h-209v17h18
c40 0 73 28 73 85v397c0 37 -13 52 -52 52h-29v16h217l261 -411v315c0 53 -33 80 -68 80h-20v16z" />
    <glyph glyph-name="Oacute.sc" horiz-adv-x="654" 
d="M277 637l93 128c47 84 153 0 63 -54l-143 -87zM328 -10c-122 0 -283 97 -283 293c0 197 159 294 283 294c125 0 281 -97 281 -294c0 -196 -159 -293 -281 -293zM328 10c84 0 139 84 139 273c0 192 -55 275 -139 275s-141 -83 -141 -275c0 -189 58 -273 141 -273z" />
    <glyph glyph-name="Obreve.sc" horiz-adv-x="654" 
d="M328 631c-107 0 -141 76 -142 168l19 -1c2 -57 46 -86 123 -86c76 0 120 29 122 86l19 1c-1 -92 -35 -168 -141 -168zM328 577c125 0 281 -97 281 -294c0 -196 -159 -293 -281 -293s-283 97 -283 293c0 197 159 294 283 294zM328 10c84 0 139 84 139 273
c0 192 -55 275 -139 275s-141 -83 -141 -275c0 -189 58 -273 141 -273z" />
    <glyph glyph-name="Ocircumflex.sc" horiz-adv-x="654" 
d="M327 702l-139 -78l-10 16l139 156h21l139 -156l-11 -16zM328 577c125 0 281 -97 281 -294c0 -196 -159 -293 -281 -293s-283 97 -283 293c0 197 159 294 283 294zM328 10c84 0 139 84 139 273c0 192 -55 275 -139 275s-141 -83 -141 -275c0 -189 58 -273 141 -273z" />
    <glyph glyph-name="Odieresis.sc" horiz-adv-x="654" 
d="M233 642c-40 0 -65 26 -65 62c0 34 25 61 65 61c37 0 63 -27 63 -61c0 -36 -26 -62 -63 -62zM424 642c-40 0 -65 26 -65 62c0 34 25 61 65 61c37 0 64 -27 64 -61c0 -36 -27 -62 -64 -62zM328 -10c-122 0 -283 97 -283 293c0 197 159 294 283 294c125 0 281 -97 281 -294
c0 -196 -159 -293 -281 -293zM328 10c84 0 139 84 139 273c0 192 -55 275 -139 275s-141 -83 -141 -275c0 -189 58 -273 141 -273z" />
    <glyph glyph-name="Ograve.sc" horiz-adv-x="654" 
d="M369 637l-92 128c-47 84 -152 -1 -60 -56l140 -85zM328 -10c-122 0 -283 97 -283 293c0 197 159 294 283 294c125 0 281 -97 281 -294c0 -196 -159 -293 -281 -293zM328 10c84 0 139 84 139 273c0 192 -55 275 -139 275s-141 -83 -141 -275c0 -189 58 -273 141 -273z" />
    </font>
</defs>
</svg>
