<?xml version="1.0" encoding="UTF-8"?>
<svg width="42px" height="42px" viewBox="0 0 42 42" version="1.1" xmlns="http://www.w3.org/2000/svg" xmlns:xlink="http://www.w3.org/1999/xlink">
    <!-- Generator: Sketch 52.2 (67145) - http://www.bohemiancoding.com/sketch -->
    <title>Insta</title>
    <desc>Created with Sketch.</desc>
    <g id="Symbols" stroke="none" stroke-width="1" fill="none" fill-rule="evenodd">
        <g id="Footer" transform="translate(-1064.000000, -134.000000)">
            <g transform="translate(0.000000, 2.000000)" id="Social">
                <g transform="translate(875.000000, 132.000000)">
                    <g id="Insta" transform="translate(189.000000, 0.000000)">
                        <g id="Group" opacity="0.35" stroke="#000000" stroke-width="2">
                            <path d="M21,1 C9.95428475,1 1,9.95428475 1,21 C1,32.0457153 9.95428475,41 21,41 C32.0457153,41 41,32.0457153 41,21 C41,9.95428475 32.0457153,1 21,1 Z" id="Shape"></path>
                        </g>
                        <g id="insta" transform="translate(13.000000, 13.000000)" fill="#000000">
                            <path d="M8.21217706,4.8217371 C6.3428598,4.8217371 4.82170599,6.34289091 4.82170599,8.21220817 C4.82170599,10.0815254 6.3428598,11.6023681 8.21217706,11.6023681 C10.0814943,11.6023681 11.602337,10.0815254 11.602337,8.21220817 C11.602337,6.34289091 10.0814943,4.8217371 8.21217706,4.8217371" id="Fill-1"></path>
                            <g id="Group-5">
                                <path d="M13.1987551,3.99663017 C12.632795,3.99663017 12.1735553,3.53739044 12.1735553,2.97143038 C12.1735553,2.40484803 12.632795,1.94591944 13.1987551,1.94591944 C13.7650263,1.94591944 14.224266,2.40484803 14.224266,2.97143038 C14.224266,3.53739044 13.7650263,3.99663017 13.1987551,3.99663017 L13.1987551,3.99663017 Z M8.21214594,13.0554138 C5.54164827,13.0554138 3.36866029,10.882737 3.36866029,8.21223928 C3.36866029,5.54143047 5.54164827,3.36875363 8.21214594,3.36875363 C10.8829548,3.36875363 13.0553205,5.54143047 13.0553205,8.21223928 C13.0553205,10.882737 10.8829548,13.0554138 8.21214594,13.0554138 L8.21214594,13.0554138 Z M16.4902843,3.72345098 C16.4902843,1.66713977 14.8235179,6.22276052e-05 12.7668955,6.22276052e-05 L3.72335764,6.22276052e-05 C1.66704643,6.22276052e-05 -3.11138028e-05,1.66713977 -3.11138028e-05,3.72345098 L-3.11138028e-05,12.7669888 C-3.11138028e-05,14.8233001 1.66704643,16.4903776 3.72335764,16.4903776 L12.7668955,16.4903776 C14.8235179,16.4903776 16.4902843,14.8233001 16.4902843,12.7669888 L16.4902843,3.72345098 Z" id="Fill-3"></path>
                            </g>
                        </g>
                    </g>
                </g>
            </g>
        </g>
    </g>
</svg>