<?xml version="1.0" encoding="UTF-8"?>
<svg width="42px" height="42px" viewBox="0 0 42 42" version="1.1" xmlns="http://www.w3.org/2000/svg" xmlns:xlink="http://www.w3.org/1999/xlink">
    <!-- Generator: Sketch 52.2 (67145) - http://www.bohemiancoding.com/sketch -->
    <title>Youtube</title>
    <desc>Created with Sketch.</desc>
    <g id="Symbols" stroke="none" stroke-width="1" fill="none" fill-rule="evenodd">
        <g id="Footer" transform="translate(-1001.000000, -134.000000)">
            <g transform="translate(0.000000, 2.000000)" id="Social">
                <g transform="translate(875.000000, 132.000000)">
                    <g id="Youtube" transform="translate(126.000000, 0.000000)">
                        <g id="Group" opacity="0.354381793" stroke="#000000" stroke-width="2">
                            <path d="M21,1 C9.95428475,1 1,9.95428475 1,21 C1,32.0457153 9.95428475,41 21,41 C32.0457153,41 41,32.0457153 41,21 C41,9.95428475 32.0457153,1 21,1 Z" id="Shape"></path>
                        </g>
                        <g transform="translate(12.000000, 14.000000)">
                            <path d="M18.8212185,5.87288928 L18.8212185,7.9775643 C18.813665,8.02131958 18.801782,8.06489063 18.7990185,8.10901438 C18.7565528,8.79371542 18.7148241,9.4786007 18.673556,10.1633939 C18.6090745,11.23526 18.1961168,12.1495151 17.4156147,12.8868146 C17.0827061,13.2012078 16.6878953,13.4393286 16.2228918,13.470464 C15.0885707,13.5466442 13.9531443,13.6222718 12.817073,13.6476959 C11.1894687,13.684174 9.56029838,13.7068346 7.93287832,13.6779101 C6.2056041,13.6472353 4.47971162,13.5461836 2.75289798,13.4834524 C2.31073936,13.467332 1.91924475,13.3267624 1.57261082,13.0623884 C0.831810901,12.4975308 0.403746089,11.7233847 0.24751671,10.829948 C0.118001081,10.0885032 0.104828439,9.32670079 0.0408075558,8.57392574 C0.0256083533,8.39531208 0.0134489913,8.21642207 0,8.0377163 L0,5.96307121 C0.00764565945,5.9292645 0.0199892542,5.89573414 0.0222000473,5.86155896 C0.064665698,5.19693929 0.106394418,4.53231962 0.147201973,3.86751571 C0.212051904,2.81223047 0.582912446,1.89032975 1.3548477,1.15266179 C1.70332396,0.819568966 2.11784767,0.607240713 2.60974913,0.571868024 C3.09418917,0.537048032 3.57780016,0.486936722 4.06270077,0.467039585 C5.27891332,0.417388856 6.49540222,0.360092469 7.71225959,0.34378787 C10.5685121,0.305191107 13.4224618,0.380265956 16.2730031,0.57426305 C16.8227537,0.611570183 17.2925472,0.805935742 17.6820153,1.19227184 C18.2187774,1.72498085 18.5036013,2.39144286 18.6029948,3.12201786 C18.6999934,3.83499863 18.7244042,4.55792797 18.7798583,5.27652784 C18.7952417,5.47522287 18.8075853,5.67410213 18.8212185,5.87288928" id="Fill-1" fill="#000000"></path>
                            <path d="M7.19790033,10.6710634 C9.15758418,9.5472436 11.0978315,8.43456986 13.0720697,7.30236745 C11.0999501,6.1710862 9.15749206,5.0569386 7.19790033,3.93293454 L7.19790033,10.6710634 Z" id="Fill-4" fill="#FFFFFF"></path>
                        </g>
                    </g>
                </g>
            </g>
        </g>
    </g>
</svg>