<?xml version="1.0" encoding="UTF-8"?>
<svg width="42px" height="42px" viewBox="0 0 42 42" version="1.1" xmlns="http://www.w3.org/2000/svg" xmlns:xlink="http://www.w3.org/1999/xlink">
    <!-- Generator: Sketch 52.2 (67145) - http://www.bohemiancoding.com/sketch -->
    <title>Twitter</title>
    <desc>Created with Sketch.</desc>
    <g id="Symbols" stroke="none" stroke-width="1" fill="none" fill-rule="evenodd">
        <g id="Footer" transform="translate(-938.000000, -134.000000)">
            <g transform="translate(0.000000, 2.000000)" id="Social">
                <g transform="translate(875.000000, 132.000000)">
                    <g id="Twitter" transform="translate(63.000000, 0.000000)">
                        <g id="Group">
                            <path d="M21,1 C9.95428475,1 1,9.95428475 1,21 C1,32.0457153 9.95428475,41 21,41 C32.0457153,41 41,32.0457153 41,21 C41,9.95428475 32.0457153,1 21,1 Z" id="Shape" stroke="#000000" stroke-width="2" opacity="0.35"></path>
                            <path d="M30,16.421 C29.411,16.662 28.779,16.825 28.115,16.898 C28.792,16.523 29.313,15.93 29.557,15.223 C28.923,15.57 28.221,15.822 27.473,15.958 C26.875,15.369 26.022,15.001 25.077,15.001 C23.264,15.001 21.795,16.357 21.795,18.03 C21.795,18.268 21.824,18.499 21.88,18.721 C19.153,18.595 16.735,17.388 15.116,15.556 C14.833,16.003 14.672,16.523 14.672,17.078 C14.672,18.129 15.251,19.057 16.132,19.6 C15.593,19.584 15.087,19.447 14.645,19.221 L14.645,19.259 C14.645,20.727 15.776,21.95 17.278,22.229 C17.002,22.298 16.713,22.336 16.413,22.336 C16.202,22.336 15.996,22.317 15.796,22.281 C16.213,23.484 17.426,24.36 18.862,24.384 C17.738,25.197 16.323,25.681 14.785,25.681 C14.521,25.681 14.259,25.667 14.002,25.639 C15.454,26.498 17.179,27 19.033,27 C25.07,27 28.371,22.384 28.371,18.381 C28.371,18.25 28.368,18.12 28.362,17.99 C29.004,17.563 29.56,17.029 30,16.422 L30,16.421 L30,16.421 Z" id="Shape" fill="#000000"></path>
                        </g>
                    </g>
                </g>
            </g>
        </g>
    </g>
</svg>