<?xml version="1.0" encoding="UTF-8"?>
<svg width="42px" height="42px" viewBox="0 0 42 42" version="1.1" xmlns="http://www.w3.org/2000/svg" xmlns:xlink="http://www.w3.org/1999/xlink">
    <!-- Generator: Sketch 52.2 (67145) - http://www.bohemiancoding.com/sketch -->
    <title>Facebook</title>
    <desc>Created with Sketch.</desc>
    <g id="Symbols" stroke="none" stroke-width="1" fill="none" fill-rule="evenodd">
        <g id="Footer" transform="translate(-875.000000, -134.000000)">
            <g transform="translate(0.000000, 2.000000)" id="Social">
                <g transform="translate(875.000000, 132.000000)">
                    <g id="Facebook">
                        <g id="Group">
                            <path d="M21,1 C9.95428475,1 1,9.95428475 1,21 C1,32.0457153 9.95428475,41 21,41 C32.0457153,41 41,32.0457153 41,21 C41,9.95428475 32.0457153,1 21,1 Z" id="Shape" stroke="#000000" stroke-width="2" opacity="0.347361866"></path>
                            <path d="M22.4839306,29.984582 L18.4892275,29.984582 L18.4892275,21.4961189 L16.493,21.4961189 L16.493,18.2252731 L18.4892275,18.2252731 L18.4892275,16.2627656 C18.4892275,13.5955089 19.6166015,12.008418 22.8177592,12.008418 L25.483892,12.008418 L25.483892,15.2792638 L23.818121,15.2792638 C22.5716028,15.2792638 22.4884266,15.7367327 22.4884266,16.5887262 L22.4839306,18.2252731 L25.503,18.2252731 L25.1500634,21.4961189 L22.4839306,21.4961189 L22.4839306,29.984582 L22.4839306,29.984582 Z" id="Shape" fill="#000000"></path>
                        </g>
                    </g>
                </g>
            </g>
        </g>
    </g>
</svg>